<svg width="1440" height="1440" viewBox="0 0 1440 1440" fill="none" xmlns="http://www.w3.org/2000/svg">
<path fill-rule="evenodd" clip-rule="evenodd" d="M632.085 333.655L632.085 1057.57C632.085 1075.34 618.129 1089.75 600.913 1089.75H173.492C156.276 1089.75 142.32 1075.34 142.32 1057.57L142.32 333.655C142.32 315.884 156.276 301.478 173.492 301.478L600.913 301.478C618.129 301.478 632.085 315.884 632.085 333.655Z" fill="#CCD7EE"/>
<path fill-rule="evenodd" clip-rule="evenodd" d="M606.771 348.484L606.771 1046.4C606.771 1054.09 600.608 1060.33 593.005 1060.33H189.928C182.325 1060.33 176.162 1054.09 176.162 1046.4L176.162 348.484C176.162 340.788 182.325 334.548 189.928 334.548L593.005 334.548C600.608 334.548 606.771 340.788 606.771 348.484Z" fill="#253368"/>
<path fill-rule="evenodd" clip-rule="evenodd" d="M400 756.625C353.401 756.625 315.625 794.401 315.625 841C315.625 887.599 353.401 925.375 400 925.375C446.599 925.375 484.375 887.599 484.375 841C484.375 794.401 446.599 756.625 400 756.625Z" fill="#7CB305"/>
<path fill-rule="evenodd" clip-rule="evenodd" d="M386.405 869.662L381.078 864.335L432.697 812.527C434.462 810.762 437.324 810.762 439.09 812.527L441.22 814.657C442.985 816.423 442.985 819.285 441.22 821.05L392.797 869.662C391.032 871.427 388.17 871.427 386.405 869.662Z" fill="white"/>
<path fill-rule="evenodd" clip-rule="evenodd" d="M398.114 864.335L392.787 869.662C391.022 871.427 388.16 871.427 386.395 869.662L365.183 848.45C363.418 846.685 363.418 843.823 365.183 842.058L367.314 839.927C369.079 838.162 371.941 838.162 373.706 839.927L398.114 864.335Z" fill="white"/>
<g clip-path="url(#clip0_8949_8062)">
<g filter="url(#filter0_d_8949_8062)">
<path fill-rule="evenodd" clip-rule="evenodd" d="M1088.37 742.048C1074.97 720.255 1046.03 659.326 1102.17 618.667C1147.07 586.155 1190.14 609.98 1215.67 634.98C1259.78 678.169 1304.79 762.942 1337.64 825.442C1337.64 825.442 1377.38 895.126 1310.17 933.172C1253.29 965.368 1215.85 910.401 1215.85 910.401C1215.85 910.401 1103.68 766.956 1088.37 742.048Z" fill="#FFC2BD"/>
<path fill-rule="evenodd" clip-rule="evenodd" d="M1155.18 828.36C1138.83 807.385 1093.73 749.511 1088.91 741.664C1075.51 719.871 1046.56 658.942 1102.71 618.284C1147.61 585.771 1190.68 609.596 1216.21 634.596C1233.81 651.83 1274.74 714.696 1290.15 738.001L1155.18 828.36Z" fill="#597EF7"/>
<path d="M1100.76 619.096C1101.37 618.659 1102.21 618.794 1102.65 619.397C1103.08 620 1102.95 620.843 1102.34 621.28C1077.5 639.273 1067.74 662.365 1069.92 688.843C1071.43 707.26 1078.52 725.587 1088.07 741.508L1088.9 742.866C1090.7 745.798 1098.32 755.996 1110.44 771.811L1126.45 792.592C1133.76 802.04 1140.47 810.668 1149.42 822.166L1154.32 828.448L1288.25 738.789C1288.8 738.421 1289.52 738.511 1289.96 738.97L1290.12 739.159C1290.49 739.709 1290.39 740.432 1289.94 740.877L1289.75 741.03L1154.77 831.388C1154.19 831.782 1153.4 831.654 1152.96 831.097L1126.93 797.615L1111.6 777.749C1097.71 759.681 1088.94 747.987 1086.71 744.457L1086.6 744.278C1076.43 727.717 1068.83 708.496 1067.23 689.064C1064.98 661.676 1075.13 637.662 1100.76 619.096Z" fill="#253368"/>
<path fill-rule="evenodd" clip-rule="evenodd" d="M839.332 1590.35C804.052 1585.39 782.35 1554.12 785.571 1518.64L817.275 1169.58C821.616 1121.76 858.116 1086.33 905.657 1093.01C953.199 1099.69 985.483 1144.79 976.483 1191.95L917.734 1537.21C911.054 1572.2 874.611 1595.31 839.332 1590.35Z" fill="#4E5C93"/>
<path fill-rule="evenodd" clip-rule="evenodd" d="M1052.06 1590.75C1087.69 1590.75 1113.54 1562.8 1115.28 1527.22L1132.45 1177.14C1134.8 1129.19 1103.59 1089.02 1055.58 1089.02C1007.57 1089.02 969.328 1129.19 971.68 1177.14L981.819 1527.22C983.563 1562.8 1016.44 1590.75 1052.06 1590.75Z" fill="#4E5C93"/>
<path fill-rule="evenodd" clip-rule="evenodd" d="M853.67 742.15C867.065 720.357 896.009 659.427 839.868 618.769C794.97 586.257 751.897 610.085 726.366 635.082C682.259 678.275 637.245 763.043 604.402 825.544C604.402 825.544 564.658 895.227 631.873 933.273C688.752 965.473 726.187 910.503 726.187 910.503C726.187 910.503 838.363 767.058 853.67 742.15Z" fill="#FFC2BD"/>
<path fill-rule="evenodd" clip-rule="evenodd" d="M786.86 828.463C803.207 807.485 848.309 749.614 853.136 741.764C866.527 719.974 895.475 659.041 839.331 618.387C794.436 585.874 751.359 609.699 725.829 634.699C708.229 651.933 667.304 714.796 651.888 738.104L786.86 828.463Z" fill="#597EF7"/>
<path d="M839.392 615.985C839.828 615.382 840.671 615.247 841.274 615.684C866.912 634.249 877.057 658.264 874.807 685.651C873.256 704.543 866.032 723.238 856.28 739.477L855.438 740.862C853.059 744.732 841.326 760.261 822.67 784.423L807.718 803.731C802.316 810.688 796.508 818.147 789.076 827.684C788.69 828.18 788.022 828.335 787.466 828.088L787.263 827.976L652.295 737.617C651.676 737.203 651.51 736.365 651.924 735.747C652.292 735.197 652.995 735.005 653.581 735.26L653.795 735.376L787.72 825.037L811.287 794.731L829.54 771.082C842.625 754.039 850.942 742.941 853.035 739.621L853.141 739.45C863.114 723.223 870.564 704.374 872.12 685.43C874.295 658.953 864.539 635.86 839.693 617.868C839.09 617.431 838.955 616.588 839.392 615.985Z" fill="#253368"/>
<path fill-rule="evenodd" clip-rule="evenodd" d="M913.477 447.986C913.477 447.986 901.253 409.679 884.051 426.308C866.849 442.937 884.199 482.129 904.952 484.211C925.701 486.292 913.477 447.986 913.477 447.986Z" fill="#FFC2BD"/>
<path d="M885.666 438.407C886.767 434.881 889.721 433.507 894.014 435.88C900.291 439.345 900.593 444.238 897.438 452.554L896.951 453.795C894.942 458.796 896.326 461.961 901.002 463.587C901.776 463.856 902.185 464.701 901.916 465.475C901.646 466.249 900.801 466.658 900.027 466.389C893.907 464.261 891.688 459.517 893.99 453.23L894.694 451.421C897.335 444.45 897.078 440.961 892.579 438.478C890 437.052 889.061 437.489 888.498 439.292C888.304 439.913 888.213 440.57 888.188 441.103L888.181 441.478L888.17 441.698C888.081 442.416 887.478 442.979 886.733 442.997C885.989 443.015 885.359 442.481 885.236 441.768L885.214 441.515C885.203 440.652 885.313 439.537 885.666 438.407Z" fill="#D18888"/>
<path fill-rule="evenodd" clip-rule="evenodd" d="M1035.29 453.76C1035.29 453.76 1051.09 416.783 1066.64 434.962C1082.19 453.145 1061.21 490.52 1040.36 490.629C1019.5 490.738 1035.29 453.76 1035.29 453.76Z" fill="#FFC2BD"/>
<path d="M1055.81 443.55C1060.22 441.634 1063.03 443.178 1063.85 446.689C1064.04 447.508 1064.11 448.341 1064.09 449.125L1064.07 449.703C1064.06 449.847 1064.05 449.946 1064.04 450.025C1063.94 450.839 1063.2 451.42 1062.39 451.323C1061.65 451.235 1061.1 450.617 1061.08 449.894L1061.11 449.501C1061.15 448.825 1061.12 448.054 1060.96 447.363C1060.55 445.607 1059.66 445.115 1057 446.271C1052.14 448.381 1051.67 451.975 1053.85 459.621L1054.04 460.267C1056.05 467.035 1053.42 471.767 1046.95 473.355C1046.15 473.55 1045.35 473.063 1045.15 472.268C1044.96 471.472 1045.44 470.668 1046.24 470.473C1050.89 469.333 1052.61 466.471 1051.34 461.619L1050.83 459.827C1048.48 451.245 1049.24 446.407 1055.81 443.55Z" fill="#D18888"/>
<path fill-rule="evenodd" clip-rule="evenodd" d="M906.935 566.616L910.447 495.445C912.145 461.056 941.367 434.53 975.764 436.158C1009.35 437.75 1035.65 465.658 1035.24 499.281L1034.38 570.571C1033.95 605.885 1004.34 633.817 969.06 632.186L966.409 632.063C931.889 630.466 905.23 601.129 906.935 566.616Z" fill="#FFC2BD"/>
<path fill-rule="evenodd" clip-rule="evenodd" d="M1044.96 449.076C1044.13 463.426 1043.01 483.803 1039.18 497.855C1036.78 506.658 1020.57 524.721 1003.67 536.305C994.923 542.3 985.319 542.373 972.69 541.776C962.913 541.312 951.375 539.747 941.802 534.86C926.79 527.2 907.353 498.544 906.15 492.539C903.566 479.63 901.664 460.973 902.67 443.982C907.339 365.179 939.538 352.909 979.31 354.794C1019.08 356.678 1049.52 370.762 1044.96 449.076Z" fill="#FFC2BD"/>
<path fill-rule="evenodd" clip-rule="evenodd" d="M1043.43 456.443C1043.46 457.154 1044.5 457.206 1044.57 456.5C1046.27 440.423 1049.98 402.661 1048.77 389.798C1047.77 379.346 1038.61 363.55 1027.45 348.159C1016.29 332.764 1006.87 332.813 1003.53 340.583C1000.78 335.991 980.595 312.243 974.288 319.872C967.981 327.501 946.536 340.853 946.536 340.853C946.536 340.853 944.982 331.86 938.675 339.489C932.368 347.118 916.6 361.599 910.431 370.852C901.571 384.152 901.982 428.579 902.541 446.568C902.566 447.342 903.688 447.405 903.797 446.638C905.252 436.538 908.441 419.35 913.83 414.122C919.55 408.448 916.6 381.649 923.428 378.903C935.55 374.027 1011.21 376.125 1027.17 384.313C1034.34 387.991 1031.1 414.456 1034.95 419.863C1042.14 429.936 1042.81 442.233 1043.43 456.443Z" fill="#253368"/>
<path d="M932.221 413.38C932.908 412.967 933.728 412.852 934.495 413.051L934.819 413.156L960.624 423.13C962.153 423.721 962.914 425.44 962.323 426.969C961.769 428.403 960.223 429.161 958.772 428.763L958.483 428.668L934.031 419.217L925.079 424.595C923.767 425.383 922.09 425.038 921.186 423.846L921.005 423.578C920.217 422.266 920.561 420.589 921.753 419.686L922.022 419.504L932.221 413.38Z" fill="#253368"/>
<path d="M1020.14 424.425C1020.44 424.425 1020.74 424.47 1021.02 424.558L1021.31 424.66L1030.19 428.422C1031.7 429.062 1032.4 430.804 1031.76 432.314C1031.16 433.729 1029.59 434.438 1028.16 433.994L1027.87 433.89L1019.54 430.364L992.19 430.416C990.652 430.419 989.386 429.253 989.231 427.756L989.215 427.453C989.212 425.915 990.378 424.649 991.875 424.494L992.178 424.478L1020.14 424.425Z" fill="#253368"/>
<path fill-rule="evenodd" clip-rule="evenodd" d="M903.061 463.655C903.061 463.655 921.518 473.934 930.799 489.994C942.833 473.055 959.571 468.316 959.571 468.316C959.571 468.316 968.42 476.747 976.597 478.452C979.54 475.246 988.258 469.427 988.258 469.427C988.258 469.427 1008.95 478.241 1018.79 494.329C1023.77 483.409 1042.63 472.254 1042.63 472.254C1042.63 472.254 1044.16 487.895 1037.9 503.986C1030.23 523.698 1008.9 544.482 975.855 542.914C936.719 541.062 911.488 523.346 906.552 498.009C905.511 490.092 902.769 469.835 903.061 463.655Z" fill="#EFADAB"/>
<path d="M916.436 516.302C916.992 515.831 917.824 515.9 918.294 516.456C920.315 518.842 922.497 521.093 924.816 523.213C929.515 527.508 934.552 531.073 939.589 533.946C941.056 534.783 942.434 535.509 943.699 536.128L944.445 536.486C945.19 536.838 945.749 537.084 946.084 537.224L946.587 537.414C947.013 537.565 947.658 537.777 948.517 538.034C950.446 538.611 952.732 539.189 955.363 539.729C966.662 542.05 980.282 542.943 995.845 541.589C1007.67 539.342 1017.85 532.066 1026.36 521.514C1026.82 520.948 1027.65 520.859 1028.22 521.316C1028.78 521.773 1028.87 522.603 1028.42 523.17C1019.55 534.166 1008.86 541.799 996.206 544.197C980.251 545.592 966.375 544.683 954.833 542.312C952.125 541.756 949.764 541.159 947.762 540.56L946.775 540.256C946.623 540.207 946.476 540.159 946.335 540.112L945.269 539.739L944.358 539.349C944.061 539.216 943.713 539.057 943.319 538.87C941.796 538.151 940.103 537.275 938.282 536.236C933.085 533.272 927.89 529.595 923.037 525.16C920.637 522.966 918.377 520.634 916.282 518.16C915.812 517.604 915.88 516.772 916.436 516.302Z" fill="#D18888"/>
<path d="M966.643 431.708C967.281 431.558 967.919 431.899 968.162 432.485L968.228 432.689L970.703 443.211C970.762 443.463 970.746 443.727 970.656 443.969L969.359 447.547C968.386 450.262 967.412 453.038 966.504 455.712L965.922 457.439C964.502 461.688 963.448 465.115 962.877 467.416L962.775 467.829L974.789 476.384L985.779 469.939C986.337 469.611 987.037 469.741 987.445 470.215L987.583 470.409C987.91 470.967 987.78 471.667 987.306 472.075L987.113 472.213L975.388 479.09C975.004 479.315 974.537 479.329 974.145 479.138L973.956 479.026L960.537 469.471C960.113 469.169 959.906 468.645 960.01 468.135C960.43 466.065 961.411 462.719 962.83 458.388L964.007 454.864C964.616 453.071 965.254 451.234 965.901 449.4L968.044 443.43L965.661 433.293C965.511 432.655 965.852 432.016 966.438 431.773L966.643 431.708Z" fill="#D18888"/>
<path fill-rule="evenodd" clip-rule="evenodd" d="M996.627 484.586C973.525 484.15 951.774 481.274 951.774 481.274C951.774 481.274 956.485 495.234 973.624 496.047C990.759 496.859 996.627 484.586 996.627 484.586Z" fill="white"/>
<path d="M949.524 482.033C950.252 484.189 951.926 487.263 954.863 490.323C959.404 495.056 965.578 498.043 973.511 498.419C981.834 498.813 988.448 496.405 993.435 492.14C996.235 489.745 997.949 487.325 998.769 485.61C999.514 484.051 998.399 482.244 996.671 482.211C987.345 482.035 977.573 481.453 967.852 480.592L964.806 480.312C962.813 480.124 960.899 479.93 959.076 479.734L955.029 479.281L952.086 478.92C950.342 478.689 948.962 480.367 949.524 482.033ZM956.167 484.451L955.978 484.17L958.569 484.457C961.331 484.753 964.3 485.045 967.433 485.323L971.118 485.636C977.262 486.134 983.403 486.517 989.423 486.751L992.095 486.841L991.582 487.384C991.197 487.772 990.786 488.156 990.347 488.531C986.257 492.03 980.817 494.01 973.736 493.674C967.06 493.358 962.016 490.918 958.29 487.034C957.49 486.201 956.784 485.333 956.167 484.451Z" fill="#D18888"/>
<path d="M967.923 506.421L981.272 507.053C982 507.088 982.561 507.705 982.527 508.433C982.496 509.087 981.992 509.608 981.362 509.68L981.147 509.687L967.799 509.054C967.071 509.02 966.51 508.402 966.544 507.675C966.575 507.021 967.078 506.5 967.709 506.428L967.923 506.421Z" fill="#D18888"/>
<path d="M973.41 526.613C974.065 526.644 974.585 527.148 974.657 527.778L974.664 527.993L974.007 541.837C973.972 542.565 973.355 543.126 972.628 543.092C971.973 543.061 971.453 542.557 971.38 541.927L971.373 541.712L972.031 527.868C972.065 527.14 972.683 526.579 973.41 526.613Z" fill="#D18888"/>
<path fill-rule="evenodd" clip-rule="evenodd" d="M958.494 506.747C958.332 507.499 957.59 507.978 956.838 507.816C956.085 507.654 955.607 506.912 955.769 506.16C955.931 505.411 956.673 504.929 957.425 505.091C958.177 505.256 958.655 505.995 958.494 506.747Z" fill="#597EF7"/>
<path fill-rule="evenodd" clip-rule="evenodd" d="M946.508 507.08C946.346 507.832 945.605 508.31 944.852 508.149C944.1 507.987 943.622 507.245 943.784 506.493C943.945 505.744 944.687 505.262 945.439 505.424C946.192 505.586 946.67 506.328 946.508 507.08Z" fill="#597EF7"/>
<path fill-rule="evenodd" clip-rule="evenodd" d="M1013.59 514.819C1013.82 515.55 1013.42 516.334 1012.69 516.569C1011.95 516.801 1011.17 516.397 1010.94 515.666C1010.7 514.931 1011.11 514.151 1011.84 513.915C1012.57 513.68 1013.36 514.087 1013.59 514.819Z" fill="#597EF7"/>
<path fill-rule="evenodd" clip-rule="evenodd" d="M1026.97 508.785C1027.2 509.516 1026.79 510.3 1026.06 510.536C1025.33 510.768 1024.55 510.363 1024.31 509.632C1024.08 508.897 1024.48 508.117 1025.21 507.881C1025.95 507.646 1026.73 508.054 1026.97 508.785Z" fill="#597EF7"/>
<path fill-rule="evenodd" clip-rule="evenodd" d="M1002.07 518.334C1002.3 519.066 1001.89 519.85 1001.16 520.085C1000.43 520.317 999.648 519.913 999.412 519.182C999.177 518.447 999.581 517.666 1000.32 517.431C1001.05 517.195 1001.83 517.603 1002.07 518.334Z" fill="#597EF7"/>
<path fill-rule="evenodd" clip-rule="evenodd" d="M989.252 523.259C989.484 523.99 989.083 524.774 988.348 525.01C987.617 525.242 986.833 524.837 986.598 524.106C986.366 523.371 986.766 522.587 987.501 522.355C988.232 522.12 989.02 522.528 989.252 523.259Z" fill="#597EF7"/>
<path fill-rule="evenodd" clip-rule="evenodd" d="M930.569 500.589C930.805 501.321 930.401 502.108 929.666 502.34C928.935 502.572 928.151 502.168 927.915 501.437C927.683 500.702 928.087 499.921 928.819 499.686C929.553 499.45 930.337 499.858 930.569 500.589Z" fill="#597EF7"/>
<path fill-rule="evenodd" clip-rule="evenodd" d="M956.224 521.865C956.063 522.618 955.321 523.096 954.568 522.934C953.816 522.772 953.338 522.031 953.5 521.278C953.661 520.529 954.403 520.048 955.156 520.21C955.908 520.371 956.386 521.113 956.224 521.865Z" fill="#597EF7"/>
<path fill-rule="evenodd" clip-rule="evenodd" d="M967.121 520.219C966.96 520.971 966.218 521.449 965.466 521.288C964.713 521.126 964.235 520.384 964.397 519.632C964.558 518.883 965.3 518.401 966.053 518.563C966.805 518.725 967.283 519.467 967.121 520.219Z" fill="#597EF7"/>
<path fill-rule="evenodd" clip-rule="evenodd" d="M1010.55 526.033C1010.38 526.785 1009.64 527.264 1008.89 527.102C1008.14 526.94 1007.66 526.198 1007.82 525.446C1007.98 524.694 1008.73 524.216 1009.48 524.377C1010.23 524.539 1010.71 525.281 1010.55 526.033Z" fill="#597EF7"/>
<path fill-rule="evenodd" clip-rule="evenodd" d="M1004.42 509.267C1004.26 510.019 1003.52 510.498 1002.76 510.336C1002.01 510.174 1001.54 509.432 1001.7 508.68C1001.86 507.931 1002.6 507.45 1003.35 507.611C1004.1 507.773 1004.58 508.515 1004.42 509.267Z" fill="#597EF7"/>
<path fill-rule="evenodd" clip-rule="evenodd" d="M1010.09 495.591C1009.93 496.343 1009.18 496.821 1008.43 496.659C1007.68 496.498 1007.2 495.756 1007.36 495.003C1007.53 494.251 1008.27 493.773 1009.02 493.935C1009.77 494.096 1010.25 494.838 1010.09 495.591Z" fill="#597EF7"/>
<path fill-rule="evenodd" clip-rule="evenodd" d="M944.728 515.689C944.567 516.441 943.825 516.919 943.072 516.758C942.32 516.596 941.842 515.854 942.004 515.102C942.165 514.353 942.907 513.871 943.659 514.033C944.412 514.195 944.89 514.936 944.728 515.689Z" fill="#597EF7"/>
<path fill-rule="evenodd" clip-rule="evenodd" d="M1012.06 448.181C1011.82 453.082 1008.71 456.914 1005.1 456.742C1001.49 456.57 998.743 452.46 998.975 447.563C999.207 442.662 1002.33 438.83 1005.94 439.002C1009.55 439.171 1012.29 443.284 1012.06 448.181Z" fill="#253368"/>
<path fill-rule="evenodd" clip-rule="evenodd" d="M948.208 444.358C947.976 449.259 944.857 453.088 941.247 452.919C937.633 452.747 934.894 448.637 935.126 443.74C935.358 438.839 938.473 435.007 942.087 435.179C945.701 435.348 948.44 439.458 948.208 444.358Z" fill="#253368"/>
<path fill-rule="evenodd" clip-rule="evenodd" d="M1174.69 629.059C1174.6 620.692 1169.62 613.119 1161.95 609.762C1138.87 599.655 1079.87 586.432 1018.41 576.821C1001.08 574.107 992.843 627.091 974.502 628.005C962.096 628.623 929.341 575.077 918.924 576.444C863.932 583.666 815.881 591.034 779.617 607.797C768.107 613.116 761.245 625.111 762.739 637.701C768.184 683.541 793.708 807.934 849.93 936.796C849.93 936.796 827.117 976.688 862.192 982.882C1098.04 982.882 1093.07 981.835 1093.07 981.835C1093.07 981.835 1121.45 972.546 1100.57 937.141C1100.57 937.141 1175.73 730.246 1174.69 629.059Z" fill="#597EF7"/>
<path fill-rule="evenodd" clip-rule="evenodd" d="M884.096 586.427L904.325 551.348L942.94 558.379L970.316 620.856L1000.01 561.568L1035.52 551.443L1052.97 587.106C1052.97 587.106 1039.39 635.818 970.766 635.818C902.127 635.818 884.096 586.427 884.096 586.427Z" fill="#597EF7"/>
<path d="M886.699 585.435C887.247 584.931 888.1 584.966 888.604 585.514L889.021 585.95C889.208 586.14 889.442 586.374 889.723 586.648C890.67 587.572 891.795 588.604 893.092 589.717C896.808 592.906 901.154 596.097 906.089 599.076C911.958 602.618 918.272 605.618 924.998 607.904C925.703 608.143 926.08 608.909 925.841 609.614C925.601 610.319 924.835 610.696 924.13 610.457C917.213 608.107 910.725 605.024 904.696 601.385C899.626 598.325 895.161 595.046 891.336 591.764C890.263 590.843 889.301 589.973 888.454 589.169L887.84 588.578C887.242 587.995 886.833 587.573 886.619 587.34C886.115 586.792 886.151 585.939 886.699 585.435Z" fill="#253368"/>
<path d="M1054.01 586.253C1054.48 586.831 1054.4 587.68 1053.82 588.15L1052.42 589.267C1051.31 590.152 1050.04 591.136 1048.65 592.196C1044.68 595.225 1040.5 598.254 1036.32 601.083C1033.67 602.871 1031.1 604.522 1028.64 606.01C1021.12 610.552 1014.9 613.377 1010.33 614.03C1009.59 614.135 1008.91 613.623 1008.8 612.886C1008.7 612.149 1009.21 611.466 1009.95 611.361C1014.06 610.773 1020.01 608.068 1027.25 603.701C1029.67 602.239 1032.2 600.612 1034.81 598.849C1038.95 596.051 1043.08 593.052 1047.01 590.052L1048.61 588.83C1049.12 588.436 1049.6 588.055 1050.07 587.69L1052.12 586.06C1052.69 585.59 1053.54 585.676 1054.01 586.253Z" fill="#253368"/>
<path d="M970.316 619.539C970.971 619.539 971.515 620.017 971.617 620.643L971.634 620.857V691.883C971.634 692.612 971.044 693.202 970.316 693.202C969.661 693.202 969.117 692.724 969.015 692.097L968.998 691.883V620.857C968.998 620.129 969.588 619.539 970.316 619.539Z" fill="#D18888"/>
<path d="M1156.59 729.242L1156.81 729.253C1157.55 729.351 1158.07 730.028 1157.97 730.767L1157.66 733.018L1157.02 737.323C1156.85 738.458 1156.66 739.651 1156.46 740.902L1156.05 743.479C1154.41 753.576 1152.37 764.825 1149.91 776.94C1142.89 811.555 1133.92 846.172 1122.8 878.491C1115.72 899.101 1107.97 918.113 1099.53 935.201L1098.55 937.162L1098.73 937.54C1107.17 955.948 1105.6 969.343 1097.67 978.293L1097.24 978.76C1095.7 980.427 1094.04 981.781 1092.38 982.85C1091.37 983.5 1090.57 983.915 1090.08 984.122C1089.97 984.169 1089.86 984.201 1089.74 984.218L1089.56 984.23H862.193L861.88 984.193L861.422 984.071C861.291 984.033 861.14 983.988 860.971 983.936C860.282 983.723 859.517 983.453 858.696 983.121C856.354 982.175 854.013 980.92 851.821 979.31C840.632 971.091 837.693 957.567 847.778 937.975L848.405 936.783L847.71 935.437C838.172 916.817 829.401 894.798 821.376 870.056L820.519 867.395C811.303 838.568 803.551 807.692 797.213 776.817L796.213 771.886C794.586 763.761 793.157 756.116 791.922 749.068L790.979 743.575C790.677 741.773 790.405 740.114 790.164 738.605L789.703 735.635C789.594 734.899 790.102 734.213 790.839 734.104C791.575 733.995 792.261 734.504 792.37 735.24L792.827 738.18L793.462 742.07C793.635 743.112 793.82 744.207 794.016 745.352L794.215 746.513C795.765 755.492 797.643 765.499 799.855 776.275C806.175 807.063 813.904 837.849 823.087 866.574C831.585 893.154 840.927 916.635 851.125 936.171C851.333 936.57 851.329 937.046 851.114 937.441C840.52 956.861 842.996 969.482 853.417 977.137C855.414 978.604 857.56 979.754 859.706 980.621C860.268 980.848 860.799 981.042 861.29 981.206L862.359 981.532H1089.26L1089.4 981.464C1089.7 981.314 1090.09 981.097 1090.56 980.811L1090.92 980.583C1092.4 979.631 1093.88 978.419 1095.27 976.926C1102.93 968.657 1104.48 955.988 1095.84 937.72C1095.66 937.344 1095.67 936.908 1095.85 936.537C1104.73 918.914 1112.85 899.146 1120.25 877.614C1131.32 845.418 1140.27 810.912 1147.27 776.404L1148.23 771.619C1150.1 762.144 1151.7 753.247 1153.05 745.074L1153.99 739.254C1154.12 738.449 1154.24 737.67 1154.35 736.917L1155.19 731.25L1155.3 730.413C1155.39 729.748 1155.95 729.261 1156.59 729.242Z" fill="#253368"/>
<path fill-rule="evenodd" clip-rule="evenodd" d="M1128.74 1182.69C1128.74 1182.69 1137.87 1130.96 1124.78 1075.79C1118.21 1048.08 1096.13 1019.04 1096.13 1019.04L1089.64 992.301C996.335 992.301 862.302 986.356 862.302 986.356C862.302 986.356 860.73 995.06 854.786 1011.4C820.895 1096.57 817.924 1179.72 817.924 1179.72L944.761 1248.97L995.411 1249.96L1128.74 1182.69Z" fill="#4E5C93"/>
<path fill-rule="evenodd" clip-rule="evenodd" d="M1095.08 1019.42C978.63 1019.42 855.481 1013.23 855.481 1013.23L859.939 981.469C859.939 981.469 1004.37 983.34 1092.48 983.34C1094.52 998.569 1095.08 1019.42 1095.08 1019.42Z" fill="#253368"/>
<path d="M1013.48 1015.58C1014.57 1015.52 1015.51 1016.35 1015.58 1017.44L1016.02 1025.1L1016.41 1032.47C1016.67 1037.54 1016.92 1042.93 1017.17 1048.55C1017.84 1064.18 1018.34 1079.61 1018.58 1094.19L1018.68 1101.07C1019.21 1146.99 1017.13 1174.85 1010.78 1179.79C1007.18 1182.59 1002.83 1185.18 997.892 1187.58C992.844 1190.03 987.448 1192.15 982.055 1193.94C980.545 1194.44 979.122 1194.89 977.806 1195.28L975.768 1195.87C975.36 1195.98 975.045 1196.06 974.832 1196.12C973.772 1196.39 972.695 1195.75 972.425 1194.69C972.155 1193.63 972.795 1192.55 973.854 1192.28L975.371 1191.87L975.745 1191.76C977.271 1191.32 978.974 1190.79 980.808 1190.19C986.048 1188.45 991.286 1186.39 996.163 1184.02C1000.87 1181.73 1004.99 1179.28 1008.35 1176.66C1013.2 1172.89 1015.3 1143.05 1014.68 1098.2C1014.47 1082.51 1013.94 1065.74 1013.21 1048.72L1012.78 1039.35C1012.68 1037.07 1012.57 1034.84 1012.46 1032.67L1011.86 1021.61L1011.63 1017.68C1011.56 1016.59 1012.39 1015.65 1013.48 1015.58Z" fill="#253368"/>
<path d="M881.768 1012.41C882.852 1012.55 883.616 1013.55 883.475 1014.63L883.371 1015.35C883.286 1015.93 883.18 1016.59 883.052 1017.34C882.69 1019.47 882.228 1021.84 881.658 1024.39C880.028 1031.68 877.855 1038.97 875.059 1045.8C865.831 1068.32 852.07 1080.75 832.954 1077.08C831.88 1076.88 831.177 1075.84 831.383 1074.76C831.589 1073.69 832.626 1072.99 833.7 1073.19C850.477 1076.41 862.796 1065.28 871.396 1044.3C874.099 1037.7 876.21 1030.61 877.795 1023.53C878.257 1021.46 878.646 1019.51 878.966 1017.73L879.15 1016.68C879.36 1015.45 879.49 1014.57 879.549 1014.12C879.68 1013.12 880.536 1012.39 881.52 1012.39L881.768 1012.41Z" fill="#253368"/>
<path d="M1063.12 1012.41C1064.2 1012.27 1065.19 1013.03 1065.34 1014.12L1065.48 1015.11C1065.55 1015.54 1065.63 1016.06 1065.74 1016.68C1066.09 1018.74 1066.54 1021.05 1067.09 1023.53C1068.68 1030.61 1070.79 1037.7 1073.49 1044.3C1082.09 1065.28 1094.41 1076.41 1111.19 1073.19C1112.26 1072.99 1113.3 1073.69 1113.5 1074.76C1113.71 1075.84 1113.01 1076.88 1111.93 1077.08C1092.82 1080.75 1079.05 1068.32 1069.83 1045.8C1067.03 1038.97 1064.86 1031.68 1063.23 1024.39C1062.75 1022.27 1062.35 1020.27 1062.02 1018.43L1061.74 1016.8L1061.41 1014.63C1061.27 1013.55 1062.03 1012.55 1063.12 1012.41Z" fill="#253368"/>
<path d="M976.156 1015.36C977.164 1015.39 977.974 1016.17 978.066 1017.15L978.074 1017.4L971.043 1249.69C971.01 1250.78 970.097 1251.64 969.005 1251.61C967.996 1251.58 967.187 1250.8 967.094 1249.82L967.086 1249.57L974.117 1017.28C974.15 1016.19 975.063 1015.33 976.156 1015.36Z" fill="#253368"/>
<path fill-rule="evenodd" clip-rule="evenodd" d="M937.19 1015.09V983.361C937.19 979.216 940.351 975.824 944.352 975.704C957.62 975.307 987.408 973.865 1014.15 977.254C1017.88 977.729 1020.4 982.071 1020.4 985.959V1015.79C1020.4 1020.05 1017.05 1023.5 1012.93 1023.45C997.768 1023.26 963.231 1022.85 944.528 1022.75C940.456 1022.72 937.19 1019.3 937.19 1015.09Z" fill="#E4EBF7"/>
<path fill-rule="evenodd" clip-rule="evenodd" d="M945.772 1009.61L945.779 988.611C945.782 985.869 948.363 983.623 951.625 983.545C962.45 983.285 985.013 981.837 1006.83 984.09C1009.88 984.403 1012.17 986.558 1012.17 989.132V1010.1C1012.17 1012.93 1009.44 1015.2 1006.08 1015.17C993.711 1015.04 967.013 1014.76 951.759 1014.68C948.436 1014.67 945.772 1012.4 945.772 1009.61Z" fill="#253368"/>
<path fill-rule="evenodd" clip-rule="evenodd" d="M1013.43 981.262L943.19 1012.61L946.09 1019L1016.92 987.066L1013.43 981.262Z" fill="#E4EBF7"/>
<path fill-rule="evenodd" clip-rule="evenodd" d="M1016.45 1011.6L946.044 980.622L943.263 987.062L1014.49 1018.08L1016.45 1011.6Z" fill="#E4EBF7"/>
<path fill-rule="evenodd" clip-rule="evenodd" d="M1137.57 1024.13C1187.8 994.452 1256.49 991.341 1317.96 939.876C1317.96 939.876 1380.76 884.722 1334.32 831.745C1289.04 780.094 1216.39 829.499 1216.39 829.499C1146.18 894.447 1128.98 921.208 1088.63 956.139C1088.63 956.139 1067.88 975.876 1085.19 1005.43C1105.74 1040.49 1137.57 1024.13 1137.57 1024.13Z" fill="#FFC2BD"/>
<path fill-rule="evenodd" clip-rule="evenodd" d="M1062.18 962.681C1062.18 962.681 1101.2 923.883 1114.47 925.117C1135.04 927.033 1121.52 967.027 1121.52 967.027C1121.52 967.027 1139.19 978.414 1127.82 998.79C1135.4 1018.36 1124.64 1027.91 1124.64 1027.91C1124.64 1027.91 1136.24 1042.72 1120.08 1055.01C1103.92 1067.3 1066.88 1064.16 1072.13 1038.41C1057.14 1024.3 1069.24 1010.01 1069.24 1010.01C1069.24 1010.01 1058.34 996.547 1070.43 982.931C1059.56 976.913 1058.15 966.77 1062.18 962.681Z" fill="#FFC2BD"/>
<path d="M1108.86 958.545C1109.48 958.173 1110.29 958.378 1110.66 959.004C1111 959.56 1110.87 960.261 1110.4 960.672L1110.21 960.811L1071.1 984.063C1070.47 984.436 1069.67 984.23 1069.29 983.604C1068.96 983.048 1069.09 982.347 1069.56 981.936L1069.75 981.797L1108.86 958.545Z" fill="#D18888"/>
<path d="M1114.54 923.802C1124.4 924.355 1127.98 932.853 1127.04 946.153C1126.75 950.337 1126.01 954.794 1124.98 959.308C1124.59 960.984 1124.19 962.579 1123.77 964.066L1123.33 965.617L1123.02 966.637L1123.43 967.044L1124.05 967.691C1125.27 968.997 1126.49 970.485 1127.62 972.134C1133.43 980.549 1135 989.578 1129.71 998.293L1129.32 998.92L1129.41 999.132C1133.93 1009.67 1133.3 1018.11 1129.35 1024.46L1129.02 1024.98C1128.05 1026.44 1127.08 1027.54 1126.26 1028.28L1125.97 1028.54L1126.28 1046.18C1126.29 1046.83 1125.82 1047.38 1125.2 1047.5L1124.98 1047.52C1124.33 1047.53 1123.78 1047.06 1123.66 1046.44L1123.64 1046.22L1123.32 1027.93C1123.31 1027.5 1123.52 1027.09 1123.87 1026.84L1124.12 1026.64C1124.28 1026.5 1124.49 1026.31 1124.74 1026.07C1125.44 1025.38 1126.15 1024.53 1126.82 1023.53C1130.67 1017.7 1131.32 1009.75 1126.62 999.334C1126.43 998.915 1126.47 998.427 1126.73 998.047C1132.24 990.004 1130.98 981.64 1125.45 973.631C1124.39 972.095 1123.26 970.705 1122.12 969.49L1121.58 968.925C1121.17 968.501 1120.85 968.195 1120.65 968.016C1120.25 967.667 1120.1 967.115 1120.27 966.614L1120.58 965.602C1120.69 965.268 1120.8 964.875 1120.93 964.429C1121.43 962.686 1121.94 960.762 1122.41 958.718C1123.42 954.327 1124.13 950 1124.41 945.968C1125.26 933.944 1122.28 926.877 1114.4 926.434C1113.67 926.393 1113.11 925.771 1113.15 925.044C1113.19 924.317 1113.82 923.761 1114.54 923.802Z" fill="#D18888"/>
<path d="M1106.7 997.676C1107.4 997.472 1108.13 997.872 1108.34 998.571C1108.52 999.2 1108.21 999.856 1107.64 1000.13L1107.44 1000.21L1069.61 1011.27C1068.91 1011.47 1068.18 1011.07 1067.98 1010.38C1067.79 1009.75 1068.1 1009.09 1068.67 1008.82L1068.87 1008.74L1106.7 997.676Z" fill="#D18888"/>
<path d="M1108.38 1030.12C1109.09 1029.98 1109.78 1030.45 1109.92 1031.17C1110.05 1031.81 1109.68 1032.43 1109.08 1032.65L1108.88 1032.71L1072.38 1039.71C1071.66 1039.84 1070.97 1039.37 1070.83 1038.66C1070.71 1038.02 1071.08 1037.39 1071.67 1037.17L1071.88 1037.12L1108.38 1030.12Z" fill="#D18888"/>
<path d="M1215.43 828.592C1215.93 828.063 1216.77 828.04 1217.29 828.541C1217.76 828.986 1217.83 829.695 1217.49 830.218L1217.34 830.405L1125.74 927.144C1125.24 927.673 1124.41 927.695 1123.88 927.195C1123.41 926.75 1123.34 926.041 1123.68 925.518L1123.83 925.331L1215.43 828.592Z" fill="#D18888"/>
<path fill-rule="evenodd" clip-rule="evenodd" d="M931.429 745.835C882.995 785.991 788.807 886.112 713.995 929.129C713.995 929.129 641.802 969.928 604.114 900.252C567.372 832.32 651.628 788.068 651.628 788.068C743.403 741.43 844.365 696.325 894.652 668.551C894.652 668.551 922.331 654.984 946.43 684.927C975.027 720.463 931.429 745.835 931.429 745.835Z" fill="#FFC2BD"/>
<path fill-rule="evenodd" clip-rule="evenodd" d="M1023.06 689.723L966.515 689.719C960.908 689.719 956.267 685.356 955.919 679.759L948.607 562.355C948.223 556.241 953.079 551.073 959.203 551.073L1030.39 551.077C1036.51 551.081 1041.37 556.248 1040.99 562.359L1033.66 679.766C1033.31 685.363 1028.66 689.723 1023.06 689.723Z" fill="#4E5C93"/>
<path fill-rule="evenodd" clip-rule="evenodd" d="M1023.06 695.81L966.515 695.806C960.908 695.806 956.267 691.443 955.919 685.846L948.603 568.439C948.223 562.325 953.079 557.16 959.203 557.16L1030.39 557.164C1036.51 557.164 1041.37 562.332 1040.99 568.446L1033.66 685.85C1033.31 691.45 1028.66 695.81 1023.06 695.81Z" fill="#253368"/>
<path fill-rule="evenodd" clip-rule="evenodd" d="M928.789 745.835C928.789 745.835 874.677 753.752 873.879 721.588C873.165 692.626 874.677 681.162 874.677 681.162C874.677 681.162 895.848 653.803 920.872 634.97C933.757 625.274 948.677 596.435 949.12 607.798C950.01 630.47 950.695 637.083 951.669 647.827C953.641 669.595 1026.32 647.535 1038.66 648.994C1057.46 651.209 1058.48 692.148 1000.06 723.399C983.443 732.286 954.214 739.405 928.789 745.835Z" fill="#FFC2BD"/>
<path d="M1040.46 661.473C1041.13 661.187 1041.9 661.498 1042.19 662.168C1042.47 662.838 1042.16 663.612 1041.49 663.898C1040.29 664.411 1039.08 664.907 1037.85 665.386C1025.77 670.095 1012.87 673.073 999.848 674.658C995.072 675.24 990.54 675.599 986.343 675.778L984.51 675.845C983.049 675.89 981.752 675.908 980.637 675.905L978.897 675.882C978.17 675.858 977.6 675.248 977.624 674.52C977.649 673.792 978.259 673.222 978.987 673.247L980.649 673.269C981.953 673.271 983.517 673.246 985.313 673.18L986.231 673.143C990.361 672.967 994.825 672.614 999.53 672.041C1012.34 670.481 1025.04 667.551 1036.89 662.929C1038.09 662.46 1039.28 661.975 1040.46 661.473Z" fill="#D18888"/>
<path d="M1040.38 678.664C1041.04 678.339 1041.83 678.603 1042.15 679.254C1042.48 679.905 1042.21 680.697 1041.56 681.023L1040.58 681.485L1040.28 681.619C1039.25 682.083 1038.02 682.598 1036.61 683.151C1032.59 684.729 1027.88 686.304 1022.52 687.773C1009.23 691.417 994.213 693.808 977.666 694.359C976.938 694.383 976.328 693.813 976.304 693.085C976.28 692.357 976.85 691.748 977.578 691.724C993.913 691.18 1008.73 688.821 1021.83 685.23C1027.09 683.786 1031.71 682.241 1035.65 680.697L1037.2 680.07C1037.94 679.767 1038.61 679.48 1039.21 679.212L1040.27 678.72C1040.31 678.699 1040.35 678.68 1040.38 678.664Z" fill="#D18888"/>
<path d="M1020.67 705.023C1021.34 704.745 1022.12 705.064 1022.39 705.737C1022.67 706.409 1022.35 707.181 1021.68 707.459C1002.8 715.281 986.186 717.202 973.407 715.825L972.364 715.701C972.202 715.679 972.046 715.658 971.896 715.637L970.878 715.473C970.832 715.465 970.794 715.457 970.761 715.451C970.048 715.306 969.586 714.61 969.731 713.897C969.875 713.183 970.571 712.722 971.285 712.866L971.906 712.974C972.346 713.043 972.943 713.122 973.689 713.203C986.051 714.536 1002.23 712.665 1020.67 705.023Z" fill="#D18888"/>
</g>
<path d="M723 366C723.02 393.606 745.394 415.98 773 416C745.394 416.02 723.02 438.394 723 466C722.98 438.394 700.606 416.02 673 416C700.606 415.98 722.98 393.606 723 366Z" fill="#FAAD14"/>
<path d="M1183 348C1183.03 389.409 1216.59 422.971 1258 423C1216.59 423.029 1183.03 456.591 1183 498C1182.97 456.591 1149.41 423.029 1108 423C1149.41 422.971 1182.97 389.409 1183 348Z" fill="#FAAD14"/>
<path d="M1224 496C1224.02 520.846 1244.15 540.982 1269 541C1244.15 541.018 1224.02 561.154 1224 586C1223.98 561.154 1203.85 541.018 1179 541C1203.85 540.982 1223.98 520.846 1224 496Z" fill="#FAAD14"/>
</g>
<path d="M228.156 470.375V464.312H242.688C244.771 464.312 246.438 463.594 247.688 462.156C248.958 460.719 249.594 458.833 249.594 456.5C249.594 454.125 248.958 452.219 247.688 450.781C246.438 449.344 244.771 448.625 242.688 448.625H228.156V442.562H242.469C245.219 442.562 247.615 443.146 249.656 444.312C251.698 445.458 253.281 447.073 254.406 449.156C255.552 451.24 256.125 453.688 256.125 456.5C256.125 459.292 255.552 461.729 254.406 463.812C253.281 465.896 251.698 467.51 249.656 468.656C247.615 469.802 245.219 470.375 242.469 470.375H228.156ZM224.875 488V442.562H231.25V488H224.875ZM280.875 488V467.438C280.875 465.312 280.302 463.667 279.156 462.5C278.031 461.312 276.427 460.719 274.344 460.719C273.073 460.719 271.812 460.917 270.562 461.312C269.333 461.688 268.229 462.24 267.25 462.969L262.594 459.781C263.823 458.302 265.438 457.156 267.438 456.344C269.458 455.51 271.698 455.094 274.156 455.094C278.219 455.094 281.365 456.146 283.594 458.25C285.823 460.354 286.938 463.323 286.938 467.156V488H280.875ZM272.938 488.469C268.958 488.469 265.969 487.646 263.969 486C261.99 484.354 261 481.833 261 478.438C261 475.208 261.906 472.802 263.719 471.219C265.552 469.615 268.292 468.812 271.938 468.812H281.156L281.594 473.938H271.969C270.323 473.938 269.083 474.312 268.25 475.062C267.417 475.792 267 476.917 267 478.438C267 480.083 267.552 481.302 268.656 482.094C269.76 482.885 271.417 483.281 273.625 483.281C276.042 483.281 277.854 483.021 279.062 482.5C280.271 481.979 280.875 481.167 280.875 480.062L281.531 484.625C280.969 485.5 280.271 486.219 279.438 486.781C278.604 487.344 277.646 487.76 276.562 488.031C275.5 488.323 274.292 488.469 272.938 488.469ZM310 488.469C305.75 488.469 302.458 487.24 300.125 484.781C297.792 482.302 296.625 478.823 296.625 474.344V470.312L301.125 463.719C301.625 461.302 302.719 459.469 304.406 458.219C306.115 456.969 308.396 456.344 311.25 456.344C315.104 456.344 318.083 457.562 320.188 460C322.312 462.438 323.375 465.875 323.375 470.312V474.438C323.375 478.896 322.208 482.354 319.875 484.812C317.542 487.25 314.25 488.469 310 488.469ZM309.969 482.406C312.198 482.406 313.927 481.708 315.156 480.312C316.385 478.917 317 476.958 317 474.438V470.312C317 467.792 316.385 465.844 315.156 464.469C313.927 463.094 312.198 462.406 309.969 462.406C307.76 462.406 306.042 463.094 304.812 464.469C303.604 465.844 303 467.792 303 470.312V474.438C303 476.958 303.604 478.917 304.812 480.312C306.042 481.708 307.76 482.406 309.969 482.406ZM296.625 470.688V458.688C296.625 454.271 297.781 450.979 300.094 448.812C302.427 446.625 305.917 445.51 310.562 445.469C312.354 445.448 313.688 445.198 314.562 444.719C315.458 444.24 315.906 443.521 315.906 442.562H321.812C321.812 445.354 320.917 447.448 319.125 448.844C317.354 450.219 314.677 450.906 311.094 450.906C308.281 450.906 306.177 451.5 304.781 452.688C303.385 453.875 302.688 455.667 302.688 458.062V470.688H296.625ZM344.875 488.469C340.625 488.469 337.333 487.24 335 484.781C332.667 482.302 331.5 478.823 331.5 474.344V469.062C331.5 464.625 332.667 461.188 335 458.75C337.333 456.312 340.625 455.094 344.875 455.094C349.125 455.094 352.417 456.312 354.75 458.75C357.083 461.188 358.25 464.625 358.25 469.062V474.438C358.25 478.896 357.083 482.354 354.75 484.812C352.417 487.25 349.125 488.469 344.875 488.469ZM344.875 482.406C347.104 482.406 348.823 481.708 350.031 480.312C351.26 478.917 351.875 476.958 351.875 474.438V469.062C351.875 466.542 351.26 464.594 350.031 463.219C348.823 461.844 347.104 461.156 344.875 461.156C342.667 461.156 340.948 461.844 339.719 463.219C338.49 464.594 337.875 466.542 337.875 469.062V474.438C337.875 476.958 338.49 478.917 339.719 480.312C340.948 481.708 342.667 482.406 344.875 482.406ZM372.656 488V458.969H379.031V488H372.656ZM363.25 461.312V455.562H388.438V461.312H363.25ZM415.188 488V467.438C415.188 465.312 414.615 463.667 413.469 462.5C412.344 461.312 410.74 460.719 408.656 460.719C407.385 460.719 406.125 460.917 404.875 461.312C403.646 461.688 402.542 462.24 401.562 462.969L396.906 459.781C398.135 458.302 399.75 457.156 401.75 456.344C403.771 455.51 406.01 455.094 408.469 455.094C412.531 455.094 415.677 456.146 417.906 458.25C420.135 460.354 421.25 463.323 421.25 467.156V488H415.188ZM407.25 488.469C403.271 488.469 400.281 487.646 398.281 486C396.302 484.354 395.312 481.833 395.312 478.438C395.312 475.208 396.219 472.802 398.031 471.219C399.865 469.615 402.604 468.812 406.25 468.812H415.469L415.906 473.938H406.281C404.635 473.938 403.396 474.312 402.562 475.062C401.729 475.792 401.312 476.917 401.312 478.438C401.312 480.083 401.865 481.302 402.969 482.094C404.073 482.885 405.729 483.281 407.938 483.281C410.354 483.281 412.167 483.021 413.375 482.5C414.583 481.979 415.188 481.167 415.188 480.062L415.844 484.625C415.281 485.5 414.583 486.219 413.75 486.781C412.917 487.344 411.958 487.76 410.875 488.031C409.812 488.323 408.604 488.469 407.25 488.469ZM434.656 474.5V469.062H448.562V474.5H434.656ZM430.938 488V455.562H437.312V488H430.938ZM458.188 488.469C453.938 488.469 450.646 487.24 448.312 484.781C445.979 482.302 444.812 478.823 444.812 474.344V469.062C444.812 464.625 445.979 461.188 448.312 458.75C450.646 456.312 453.938 455.094 458.188 455.094C462.438 455.094 465.729 456.312 468.062 458.75C470.396 461.188 471.562 464.625 471.562 469.062V474.438C471.562 478.896 470.396 482.354 468.062 484.812C465.729 487.25 462.438 488.469 458.188 488.469ZM458.188 482.406C460.417 482.406 462.135 481.708 463.344 480.312C464.573 478.917 465.188 476.958 465.188 474.438V469.062C465.188 466.542 464.573 464.594 463.344 463.219C462.135 461.844 460.417 461.156 458.188 461.156C455.979 461.156 454.26 461.844 453.031 463.219C451.802 464.594 451.188 466.542 451.188 469.062V474.438C451.188 476.958 451.802 478.917 453.031 480.312C454.26 481.708 455.979 482.406 458.188 482.406ZM518.312 488V455.562H524.688V488H518.312ZM497.812 488V455.562H504.188V488H497.812ZM501.781 474.938V469.188H521.688V474.938H501.781ZM553 488V467.438C553 465.312 552.427 463.667 551.281 462.5C550.156 461.312 548.552 460.719 546.469 460.719C545.198 460.719 543.938 460.917 542.688 461.312C541.458 461.688 540.354 462.24 539.375 462.969L534.719 459.781C535.948 458.302 537.562 457.156 539.562 456.344C541.583 455.51 543.823 455.094 546.281 455.094C550.344 455.094 553.49 456.146 555.719 458.25C557.948 460.354 559.062 463.323 559.062 467.156V488H553ZM545.062 488.469C541.083 488.469 538.094 487.646 536.094 486C534.115 484.354 533.125 481.833 533.125 478.438C533.125 475.208 534.031 472.802 535.844 471.219C537.677 469.615 540.417 468.812 544.062 468.812H553.281L553.719 473.938H544.094C542.448 473.938 541.208 474.312 540.375 475.062C539.542 475.792 539.125 476.917 539.125 478.438C539.125 480.083 539.677 481.302 540.781 482.094C541.885 482.885 543.542 483.281 545.75 483.281C548.167 483.281 549.979 483.021 551.188 482.5C552.396 481.979 553 481.167 553 480.062L553.656 484.625C553.094 485.5 552.396 486.219 551.562 486.781C550.729 487.344 549.771 487.76 548.688 488.031C547.625 488.323 546.417 488.469 545.062 488.469ZM220.188 622.656L216.969 617.062L230.156 596.562H238.156L220.188 622.656ZM231.219 642L216.938 622L222.531 618.719L240.062 642H231.219ZM205.25 642V596.562H211.625V642H205.25ZM208.344 622.469V616.406H222.562V622.469H208.344ZM259.312 642.469C256.146 642.469 253.375 641.771 251 640.375C248.625 638.958 246.781 636.979 245.469 634.438C244.156 631.896 243.5 628.927 243.5 625.531V613.062C243.5 609.646 244.156 606.667 245.469 604.125C246.781 601.583 248.625 599.615 251 598.219C253.375 596.802 256.146 596.094 259.312 596.094C261.938 596.094 264.333 596.656 266.5 597.781C268.688 598.906 270.51 600.479 271.969 602.5C273.448 604.521 274.448 606.885 274.969 609.594H268.438C268.042 608.135 267.375 606.865 266.438 605.781C265.521 604.677 264.438 603.823 263.188 603.219C261.938 602.615 260.646 602.312 259.312 602.312C256.521 602.312 254.271 603.302 252.562 605.281C250.875 607.24 250.031 609.833 250.031 613.062V625.531C250.031 628.76 250.875 631.354 252.562 633.312C254.271 635.271 256.521 636.25 259.312 636.25C261.292 636.25 263.156 635.625 264.906 634.375C266.656 633.125 267.833 631.323 268.438 628.969H274.969C274.448 631.677 273.448 634.042 271.969 636.062C270.49 638.083 268.667 639.656 266.5 640.781C264.333 641.906 261.938 642.469 259.312 642.469ZM296.875 642L313.625 596.562H319.062L335.812 642H328.938L316.344 605.344L303.75 642H296.875ZM304.594 632.031V625.969H328.5V632.031H304.594ZM339.875 642.281V636.219C341.542 636.219 342.833 635.458 343.75 633.938C344.688 632.417 345.156 630.271 345.156 627.5V609.562H351.531V628.375C351.531 632.812 350.562 636.24 348.625 638.656C346.708 641.073 344 642.281 340.5 642.281H339.875ZM361.656 642V609.562H368.031V642H361.656ZM349.125 615.625V609.562H365.031V615.625H349.125ZM393.312 627.5L402.906 609.562H408.562V642H402.812V619.094L403.125 621.094L395.219 635.688H391.406L383.5 621.094L383.812 619.094V642H378.062V609.562H383.719L393.312 627.5ZM436.875 642V621.438C436.875 619.312 436.302 617.667 435.156 616.5C434.031 615.312 432.427 614.719 430.344 614.719C429.073 614.719 427.812 614.917 426.562 615.312C425.333 615.688 424.229 616.24 423.25 616.969L418.594 613.781C419.823 612.302 421.438 611.156 423.438 610.344C425.458 609.51 427.698 609.094 430.156 609.094C434.219 609.094 437.365 610.146 439.594 612.25C441.823 614.354 442.938 617.323 442.938 621.156V642H436.875ZM428.938 642.469C424.958 642.469 421.969 641.646 419.969 640C417.99 638.354 417 635.833 417 632.438C417 629.208 417.906 626.802 419.719 625.219C421.552 623.615 424.292 622.812 427.938 622.812H437.156L437.594 627.938H427.969C426.323 627.938 425.083 628.312 424.25 629.062C423.417 629.792 423 630.917 423 632.438C423 634.083 423.552 635.302 424.656 636.094C425.76 636.885 427.417 637.281 429.625 637.281C432.042 637.281 433.854 637.021 435.062 636.5C436.271 635.979 436.875 635.167 436.875 634.062L437.531 638.625C436.969 639.5 436.271 640.219 435.438 640.781C434.604 641.344 433.646 641.76 432.562 642.031C431.5 642.323 430.292 642.469 428.938 642.469ZM462.781 642.469C459.365 642.469 456.594 641.635 454.469 639.969C452.344 638.281 451.062 635.906 450.625 632.844H456.812C457.042 634.052 457.667 634.99 458.688 635.656C459.729 636.323 461.062 636.656 462.688 636.656C464.5 636.656 465.906 636.26 466.906 635.469C467.906 634.677 468.406 633.552 468.406 632.094V632.062C468.406 630.938 468.042 630.062 467.312 629.438C466.604 628.812 465.583 628.5 464.25 628.5H459.156V623.062H464.25C465.229 623.062 465.99 622.74 466.531 622.094C467.073 621.448 467.344 620.542 467.344 619.375V619.344C467.344 617.927 466.906 616.833 466.031 616.062C465.177 615.292 463.948 614.906 462.344 614.906C460.865 614.906 459.625 615.24 458.625 615.906C457.625 616.573 456.948 617.51 456.594 618.719H450.438C451.042 615.656 452.406 613.292 454.531 611.625C456.656 609.938 459.354 609.094 462.625 609.094C466.167 609.094 468.896 609.854 470.812 611.375C472.75 612.896 473.719 615.042 473.719 617.812V617.844C473.719 619.615 473.292 621.146 472.438 622.438C471.583 623.729 470.385 624.677 468.844 625.281C470.74 625.552 472.198 626.312 473.219 627.562C474.26 628.792 474.781 630.406 474.781 632.406V632.438C474.781 635.625 473.729 638.094 471.625 639.844C469.542 641.594 466.594 642.469 462.781 642.469ZM503.562 642V609.562H509.938V642H503.562ZM483.062 642V609.562H489.438V642H483.062ZM487.031 628.938V623.188H506.938V628.938H487.031ZM538.25 642V621.438C538.25 619.312 537.677 617.667 536.531 616.5C535.406 615.312 533.802 614.719 531.719 614.719C530.448 614.719 529.188 614.917 527.938 615.312C526.708 615.688 525.604 616.24 524.625 616.969L519.969 613.781C521.198 612.302 522.812 611.156 524.812 610.344C526.833 609.51 529.073 609.094 531.531 609.094C535.594 609.094 538.74 610.146 540.969 612.25C543.198 614.354 544.312 617.323 544.312 621.156V642H538.25ZM530.312 642.469C526.333 642.469 523.344 641.646 521.344 640C519.365 638.354 518.375 635.833 518.375 632.438C518.375 629.208 519.281 626.802 521.094 625.219C522.927 623.615 525.667 622.812 529.312 622.812H538.531L538.969 627.938H529.344C527.698 627.938 526.458 628.312 525.625 629.062C524.792 629.792 524.375 630.917 524.375 632.438C524.375 634.083 524.927 635.302 526.031 636.094C527.135 636.885 528.792 637.281 531 637.281C533.417 637.281 535.229 637.021 536.438 636.5C537.646 635.979 538.25 635.167 538.25 634.062L538.906 638.625C538.344 639.5 537.646 640.219 536.812 640.781C535.979 641.344 535.021 641.76 533.938 642.031C532.875 642.323 531.667 642.469 530.312 642.469ZM575.281 630.594H563.781C560.385 630.594 557.656 629.635 555.594 627.719C553.531 625.781 552.49 623.229 552.469 620.062C552.469 616.896 553.5 614.354 555.562 612.438C557.646 610.521 560.385 609.562 563.781 609.562H575.281V615.625H563.531C562.24 615.625 561.198 616.031 560.406 616.844C559.635 617.656 559.25 618.729 559.25 620.062C559.25 621.396 559.646 622.479 560.438 623.312C561.229 624.125 562.26 624.531 563.531 624.531H575.281V630.594ZM578.375 642H572V609.562H578.375V642ZM559.375 642H551.812L560.938 627.75L567.281 629.188L559.375 642Z" fill="white"/>
<defs>
<filter id="filter0_d_8949_8062" x="386" y="9" width="1208" height="2408" filterUnits="userSpaceOnUse" color-interpolation-filters="sRGB">
<feFlood flood-opacity="0" result="BackgroundImageFix"/>
<feColorMatrix in="SourceAlpha" type="matrix" values="0 0 0 0 0 0 0 0 0 0 0 0 0 0 0 0 0 0 127 0" result="hardAlpha"/>
<feOffset dy="4"/>
<feGaussianBlur stdDeviation="2"/>
<feComposite in2="hardAlpha" operator="out"/>
<feColorMatrix type="matrix" values="0 0 0 0 0 0 0 0 0 0 0 0 0 0 0 0 0 0 0.25 0"/>
<feBlend mode="normal" in2="BackgroundImageFix" result="effect1_dropShadow_8949_8062"/>
<feBlend mode="normal" in="SourceGraphic" in2="effect1_dropShadow_8949_8062" result="shape"/>
</filter>
<clipPath id="clip0_8949_8062">
<rect x="577" y="229" width="826" height="910" rx="413" fill="white"/>
</clipPath>
</defs>
</svg>
