<svg width="477" height="427" viewBox="0 0 477 427" fill="none" xmlns="http://www.w3.org/2000/svg">
<g clip-path="url(#clip0_2_809)">
<mask id="mask0_2_809" style="mask-type:luminance" maskUnits="userSpaceOnUse" x="0" y="0" width="477" height="427">
<path d="M477 0H0V427H477V0Z" fill="white"/>
</mask>
<g mask="url(#mask0_2_809)">
<path opacity="0.503534" d="M227.5 401C323.32 401 401 323.321 401 227.5C401 131.679 323.32 54 227.5 54C131.679 54 54 131.679 54 227.5C54 323.321 131.679 401 227.5 401Z" fill="#EDEDED"/>
<path fill-rule="evenodd" clip-rule="evenodd" d="M364.5 167.656C350.05 167.656 338.34 155.946 338.34 141.5C338.34 127.054 350.05 115.344 364.5 115.344C378.95 115.344 390.66 127.054 390.66 141.5C390.66 155.946 378.95 167.656 364.5 167.656ZM443 153.332V129.668L424.35 124.929C422.98 119.977 421.02 115.274 418.54 110.902L428.37 94.359L411.64 77.626L395.1 87.465C390.73 84.983 386.02 83.018 381.07 81.65L376.33 63H352.67L347.93 81.65C342.98 83.018 338.27 84.983 333.9 87.465L317.36 77.626L300.63 94.359L310.46 110.902C307.98 115.274 306.02 119.978 304.65 124.929L286 129.668V153.332L304.65 158.071C306.02 163.022 307.98 167.726 310.46 172.098L300.63 188.641L317.36 205.374L333.9 195.535C338.27 198.016 342.98 199.982 347.93 201.35L352.67 220H376.33L381.07 201.35C386.02 199.982 390.73 198.016 395.1 195.535L411.64 205.374L428.37 188.641L418.54 172.098C421.02 167.726 422.98 163.022 424.35 158.071L443 153.332Z" fill="#597EF7"/>
<path fill-rule="evenodd" clip-rule="evenodd" d="M54 152.099V106.461C54 100.707 58.669 96 64.375 96H110.184C115.891 96 120.56 100.707 120.56 106.461V152.099C120.56 157.852 115.891 162.56 110.184 162.56H64.375C58.669 162.56 54 157.852 54 152.099Z" fill="#7DB308"/>
<path d="M370.3 133.887H95.545C90.826 133.887 87 137.713 87 142.432V339.738C87 344.457 90.826 348.282 95.545 348.282H370.3C375.01 348.282 378.84 344.457 378.84 339.738V142.432C378.84 137.713 375.01 133.887 370.3 133.887Z" fill="#E4EBF7"/>
<path d="M349.25 172.01H116.595C114.801 172.01 113.347 173.464 113.347 175.258V325.405C113.347 327.199 114.801 328.653 116.595 328.653H349.25C351.04 328.653 352.49 327.199 352.49 325.405V175.258C352.49 173.464 351.04 172.01 349.25 172.01Z" fill="#4E5C93"/>
<path d="M307.25 220.121H145.377V227.724H307.25V220.121Z" fill="white"/>
<path d="M226.31 246.567H145.372V254.17H226.31V246.567Z" fill="#FAAD14"/>
<path d="M226.31 299.46H145.372V307.062H226.31V299.46Z" fill="#E4EBF7"/>
<path d="M193.93 193.574H145.368V201.177H193.93V193.574Z" fill="#E4EBF7"/>
<path d="M266.97 246.467H242.65V254.069H266.97V246.467Z" fill="#E4EBF7"/>
<path d="M266.78 273.014H145.375V280.616H266.78V273.014Z" fill="white"/>
<path d="M94.817 124H370.88C375.19 124 378.69 127.427 378.69 131.655V154.466H87V131.655C87 127.427 90.5 124 94.817 124Z" fill="#4E5C93"/>
<path d="M103.709 144.696C106.791 144.696 109.289 142.25 109.289 139.233C109.289 136.215 106.791 133.769 103.709 133.769C100.628 133.769 98.13 136.215 98.13 139.233C98.13 142.25 100.628 144.696 103.709 144.696Z" fill="#FF7A46"/>
<path d="M124.548 144.696C127.63 144.696 130.128 142.25 130.128 139.233C130.128 136.215 127.63 133.769 124.548 133.769C121.467 133.769 118.969 136.215 118.969 139.233C118.969 142.25 121.467 144.696 124.548 144.696Z" fill="#FAAD14"/>
<path d="M145.391 144.696C148.472 144.696 150.97 142.25 150.97 139.233C150.97 136.215 148.472 133.769 145.391 133.769C142.309 133.769 139.811 136.215 139.811 139.233C139.811 142.25 142.309 144.696 145.391 144.696Z" fill="#BAE637"/>
<mask id="mask1_2_809" style="mask-type:alpha" maskUnits="userSpaceOnUse" x="30" y="230" width="130" height="160">
<path d="M30.383 230.28H159.039V389.037H30.383V230.28Z" fill="white"/>
</mask>
<g mask="url(#mask1_2_809)">
<path fill-rule="evenodd" clip-rule="evenodd" d="M130.123 230.28H59.3C56.996 230.28 55.072 231.99 54.75 234.271C52.644 249.154 39.074 256.805 33.146 259.386C31.472 260.115 30.383 261.761 30.383 263.587V324.15C30.383 363.783 94.711 389.037 94.711 389.037C94.711 389.037 159.039 363.783 159.039 324.15V263.587C159.039 261.761 157.951 260.115 156.276 259.386C150.349 256.805 136.778 249.154 134.673 234.271C134.35 231.99 132.427 230.471 130.123 230.471V230.28Z" fill="#ADC6FF"/>
</g>
<path fill-rule="evenodd" clip-rule="evenodd" d="M124.169 242.078C125.042 244.775 126.21 247.377 127.667 249.861C129.808 253.512 132.579 256.915 135.903 259.975C139.63 263.407 143.57 265.975 146.994 267.831V323.823C146.994 338.979 132.478 352.404 120.301 360.996C110.402 367.981 100.32 373.002 94.703 375.57C89.178 373.048 79.321 368.143 69.478 361.247C61.149 355.412 54.602 349.392 50.017 343.355C47.521 340.068 45.616 336.772 44.355 333.558C43.059 330.255 42.429 327.07 42.429 323.823V267.831C45.852 265.975 49.793 263.407 53.52 259.975C56.844 256.915 59.615 253.512 61.756 249.861C63.212 247.377 64.381 244.775 65.254 242.078H124.169Z" fill="#597EF7"/>
<path fill-rule="evenodd" clip-rule="evenodd" d="M97.796 273.591L76.652 305.675C75.514 307.414 76.738 309.553 78.789 309.553H88.26L76.615 331.468C75.746 333.239 77.985 334.883 79.357 333.482L111.029 301.78C112.645 300.13 111.499 297.312 109.212 297.312H94.889L100.881 274.984C101.349 273.083 98.862 271.961 97.796 273.591Z" fill="white"/>
<path fill-rule="evenodd" clip-rule="evenodd" d="M363.61 348.294C360.68 342.556 362.97 335.533 368.71 332.609C374.44 329.685 381.47 331.967 384.39 337.706C387.32 343.444 385.03 350.467 379.29 353.391C373.56 356.315 366.53 354.033 363.61 348.294ZM385.19 376.58L394.59 371.79L392.7 363.422C394.39 361.876 395.86 360.143 397.09 358.273L405.66 358.833L408.92 348.798L401.66 344.218C401.76 341.979 401.59 339.713 401.13 337.469L407.58 331.811L402.79 322.41L394.42 324.302C392.88 322.612 391.14 321.142 389.27 319.907L389.83 311.343L379.8 308.083L375.22 315.34C372.98 315.24 370.71 315.411 368.47 315.87L362.81 309.42L353.41 314.21L355.3 322.578C353.61 324.124 352.14 325.857 350.91 327.727L342.34 327.167L339.08 337.202L346.34 341.782C346.24 344.021 346.41 346.287 346.87 348.531L340.42 354.189L345.21 363.59L353.58 361.698C355.12 363.388 356.86 364.858 358.73 366.093L358.17 374.657L368.2 377.917L372.78 370.66C375.02 370.76 377.29 370.589 379.53 370.13L385.19 376.58Z" fill="#FF885A"/>
<g opacity="0.21031">
<path opacity="0.21031" fill-rule="evenodd" clip-rule="evenodd" d="M409 266.171V253.829C409 252.273 410.26 251 411.81 251H424.19C425.74 251 427 252.273 427 253.829V266.171C427 267.727 425.74 269 424.19 269H411.81C410.26 269 409 267.727 409 266.171Z" fill="#597EF7"/>
</g>
<g opacity="0.21031">
<path opacity="0.21031" fill-rule="evenodd" clip-rule="evenodd" d="M235.77 396.171L244.5 387.444C245.6 386.344 247.39 386.337 248.48 387.428L257.24 396.188C258.34 397.279 258.33 399.072 257.23 400.172L248.5 408.899C247.4 410 245.61 410.007 244.52 408.916L235.76 400.156C234.66 399.065 234.67 397.272 235.77 396.171Z" fill="#597EF7"/>
</g>
<g opacity="0.21031">
<path opacity="0.21031" fill-rule="evenodd" clip-rule="evenodd" d="M186.55 49.999L204 32.545C206.2 30.344 209.79 30.33 211.97 32.512L229.49 50.032C231.67 52.214 231.66 55.8 229.46 58.001L212 75.455C209.8 77.655 206.21 77.67 204.03 75.488L186.51 57.968C184.33 55.786 184.34 52.2 186.55 49.999Z" fill="#597EF7"/>
</g>
</g>
</g>
<defs>
<clipPath id="clip0_2_809">
<rect width="477" height="427" fill="white"/>
</clipPath>
</defs>
</svg>
