<svg id="eFrZUMc5aiw1" xmlns="http://www.w3.org/2000/svg" xmlns:xlink="http://www.w3.org/1999/xlink" viewBox="0 0 477 427" shape-rendering="geometricPrecision" text-rendering="geometricPrecision">
	<g clip-path="url(#eFrZUMc5aiw34)">
		<g>
			<path d="M477,0L0,0v427h477v-427Z" fill="#fff" />
			<path d="M227.5,401C323.32,401,401,323.321,401,227.5s-77.68-173.5-173.5-173.5C131.679,54,54,131.679,54,227.5s77.679,173.5,173.5,173.5Z" opacity="0.503534" fill="#ededed" />
			<path id="eFrZUMc5aiw6" d="M364.5,167.656c-14.45,0-26.16-11.71-26.16-26.156s11.71-26.156,26.16-26.156s26.16,11.71,26.16,26.156-11.71,26.156-26.16,26.156ZM443,153.332v-23.664l-18.65-4.739c-1.37-4.952-3.33-9.655-5.81-14.027l9.83-16.543-16.73-16.733-16.54,9.839c-4.37-2.482-9.08-4.447-14.03-5.815L376.33,63h-23.66l-4.74,18.65c-4.95,1.368-9.66,3.333-14.03,5.815l-16.54-9.839-16.73,16.733l9.83,16.543c-2.48,4.372-4.44,9.076-5.81,14.027L286,129.668v23.664l18.65,4.739c1.37,4.951,3.33,9.655,5.81,14.027l-9.83,16.543l16.73,16.733l16.54-9.839c4.37,2.481,9.08,4.447,14.03,5.815L352.67,220h23.66l4.74-18.65c4.95-1.368,9.66-3.334,14.03-5.815l16.54,9.839l16.73-16.733-9.83-16.543c2.48-4.372,4.44-9.076,5.81-14.027L443,153.332Z" clip-rule="evenodd" fill="#597ef7" fill-rule="evenodd" />
			<path d="M54,152.099v-45.638C54,100.707,58.669,96,64.375,96h45.809c5.707,0,10.376,4.707,10.376,10.461v45.638c0,5.753-4.669,10.461-10.376,10.461h-45.809C58.669,162.56,54,157.852,54,152.099Z" clip-rule="evenodd" fill="#7db308" fill-rule="evenodd" />
			<path d="M370.3,133.887h-274.755c-4.719,0-8.545,3.826-8.545,8.545v197.306c0,4.719,3.826,8.544,8.545,8.544h274.755c4.71,0,8.54-3.825,8.54-8.544v-197.306c0-4.719-3.83-8.545-8.54-8.545Z" fill="#e4ebf7" />
			<path d="M349.25,172.01h-232.655c-1.794,0-3.248,1.454-3.248,3.248v150.147c0,1.794,1.454,3.248,3.248,3.248h232.655c1.79,0,3.24-1.454,3.24-3.248v-150.147c0-1.794-1.45-3.248-3.24-3.248Z" fill="#4e5c93" />
			<path d="M307.25,220.121h-161.873v7.603h161.873v-7.603Z" fill="#fff" />
			<path d="M226.31,246.567h-80.938v7.603h80.938v-7.603Z" fill="#faad14" />
			<path d="M226.31,299.46h-80.938v7.602h80.938v-7.602Z" fill="#e4ebf7" />
			<path d="M193.93,193.574h-48.562v7.603h48.562v-7.603Z" fill="#e4ebf7" />
			<path d="M266.97,246.467h-24.32v7.602h24.32v-7.602Z" fill="#e4ebf7" />
			<path d="M266.78,273.014h-121.405v7.602h121.405v-7.602Z" fill="#fff" />
			<path d="M94.817,124h276.063c4.31,0,7.81,3.427,7.81,7.655v22.811h-291.69v-22.811c0-4.228,3.5-7.655,7.817-7.655Z" fill="#4e5c93" />
			<path d="M103.709,144.696c3.082,0,5.58-2.446,5.58-5.463c0-3.018-2.498-5.464-5.58-5.464-3.081,0-5.579,2.446-5.579,5.464c0,3.017,2.498,5.463,5.579,5.463Z" fill="#ff7a46" />
			<path d="M124.548,144.696c3.082,0,5.58-2.446,5.58-5.463c0-3.018-2.498-5.464-5.58-5.464-3.081,0-5.579,2.446-5.579,5.464c0,3.017,2.498,5.463,5.579,5.463Z" fill="#faad14" />
			<path d="M145.391,144.696c3.081,0,5.579-2.446,5.579-5.463c0-3.018-2.498-5.464-5.579-5.464-3.082,0-5.58,2.446-5.58,5.464c0,3.017,2.498,5.463,5.58,5.463Z" fill="#bae637" />
			<g mask="url(#eFrZUMc5aiw23)">
				<g>
					<path d="M130.123,230.28h-70.823c-2.304,0-4.228,1.71-4.55,3.991-2.106,14.883-15.676,22.534-21.604,25.115-1.674.729-2.763,2.375-2.763,4.201v60.563c0,39.633,64.328,64.887,64.328,64.887s64.328-25.254,64.328-64.887v-60.563c0-1.826-1.088-3.472-2.763-4.201-5.927-2.581-19.498-10.232-21.603-25.115-.323-2.281-2.246-3.8-4.55-3.8v-.191Z" clip-rule="evenodd" fill="#adc6ff" fill-rule="evenodd" />
				</g>
				<mask id="eFrZUMc5aiw23" mask-type="alpha" x="-150%" y="-150%" height="400%" width="400%">
					<path d="M30.383,230.28h128.656v158.757h-128.656v-158.757Z" fill="#fff" />
				</mask>
			</g>
			<path d="M124.169,242.078c.873,2.697,2.041,5.299,3.498,7.783c2.141,3.651,4.912,7.054,8.236,10.114c3.727,3.432,7.667,6,11.091,7.856v55.992c0,15.156-14.516,28.581-26.693,37.173-9.899,6.985-19.981,12.006-25.598,14.574-5.525-2.522-15.382-7.427-25.225-14.323-8.329-5.835-14.876-11.855-19.461-17.892-2.496-3.287-4.401-6.583-5.662-9.797-1.296-3.303-1.926-6.488-1.926-9.735v-55.992c3.423-1.856,7.364-4.424,11.091-7.856c3.324-3.06,6.095-6.463,8.236-10.114c1.456-2.484,2.625-5.086,3.498-7.783h58.915Z" clip-rule="evenodd" fill="#597ef7" fill-rule="evenodd" />
			<path d="M97.796,273.591L76.652,305.675c-1.138,1.739.086,3.878,2.137,3.878h9.471L76.615,331.468c-.869,1.771,1.37,3.415,2.742,2.014l31.672-31.702c1.616-1.65.47-4.468-1.817-4.468h-14.323l5.992-22.328c.468-1.901-2.019-3.023-3.085-1.393Z" clip-rule="evenodd" fill="#fff" fill-rule="evenodd" />
			<path id="eFrZUMc5aiw27" d="M363.61,348.294c-2.93-5.738-.64-12.761,5.1-15.685c5.73-2.924,12.76-.642,15.68,5.097c2.93,5.738.64,12.761-5.1,15.685-5.73,2.924-12.76.642-15.68-5.097Zm21.58,28.286l9.4-4.79-1.89-8.368c1.69-1.546,3.16-3.279,4.39-5.149l8.57.56l3.26-10.035-7.26-4.58c.1-2.239-.07-4.505-.53-6.749l6.45-5.658-4.79-9.401-8.37,1.892c-1.54-1.69-3.28-3.16-5.15-4.395l.56-8.564-10.03-3.26-4.58,7.257c-2.24-.1-4.51.071-6.75.53l-5.66-6.45-9.4,4.79l1.89,8.368c-1.69,1.546-3.16,3.279-4.39,5.149l-8.57-.56-3.26,10.035l7.26,4.58c-.1,2.239.07,4.505.53,6.749l-6.45,5.658l4.79,9.401l8.37-1.892c1.54,1.69,3.28,3.16,5.15,4.395l-.56,8.564l10.03,3.26l4.58-7.257c2.24.1,4.51-.071,6.75-.53l5.66,6.45Z" clip-rule="evenodd" fill="#ff885a" fill-rule="evenodd" />
			<g opacity="0.21031">
				<path d="M409,266.171v-12.342c0-1.556,1.26-2.829,2.81-2.829h12.38c1.55,0,2.81,1.273,2.81,2.829v12.342c0,1.556-1.26,2.829-2.81,2.829h-12.38c-1.55,0-2.81-1.273-2.81-2.829Z" opacity="0.21031" clip-rule="evenodd" fill="#597ef7" fill-rule="evenodd" />
			</g>
			<g opacity="0.21031">
				<path d="M235.77,396.171l8.73-8.727c1.1-1.1,2.89-1.107,3.98-.016l8.76,8.76c1.1,1.091,1.09,2.884-.01,3.984l-8.73,8.727c-1.1,1.101-2.89,1.108-3.98.017l-8.76-8.76c-1.1-1.091-1.09-2.884.01-3.985Z" opacity="0.21031" clip-rule="evenodd" fill="#597ef7" fill-rule="evenodd" />
			</g>
			<g opacity="0.21031">
				<path d="M186.55,49.999L204,32.545c2.2-2.201,5.79-2.215,7.97-.033l17.52,17.52c2.18,2.182,2.17,5.768-.03,7.969L212,75.455c-2.2,2.2-5.79,2.215-7.97.033l-17.52-17.52c-2.18-2.182-2.17-5.768.04-7.969Z" opacity="0.21031" clip-rule="evenodd" fill="#597ef7" fill-rule="evenodd" />
			</g>
		</g>
		<clipPath id="eFrZUMc5aiw34">
			<rect width="477" height="427" rx="0" ry="0" fill="#fff" />
		</clipPath>
	</g>
	<script>
		<![CDATA[ (function(s,i,u,o,c,w,d,t,n,x,e,p,a,b){w[o]=w[o]||{};w[o][s]=w[o][s]||[];w[o][s].push(i);e=d.createElementNS(n,t);e.async=true;e.setAttributeNS(x,'href',[u,s,'.','j','s','?','v','=',c].join(''));e.setAttributeNS(null,'src',[u,s,'.','j','s','?','v','=',c].join(''));p=d.getElementsByTagName(t)[0];p.parentNode.insertBefore(e,p);})('5c7f360c',{"root":"eFrZUMc5aiw1","version":"2022-05-04","animations":[{"elements":{"eFrZUMc5aiw6":{"transform":{"data":{"o":{"x":364.5,"y":141.5,"type":"corner"},"t":{"x":-364.5,"y":-141.5}},"keys":{"r":[{"t":0,"v":360},{"t":3000,"v":540}]}}},"eFrZUMc5aiw27":{"transform":{"data":{"o":{"x":374,"y":343,"type":"corner"},"t":{"x":-374,"y":-343}},"keys":{"r":[{"t":0,"v":0},{"t":3000,"v":180}]}}}},"s":"MLDA1ZGI0NWI5ZGFlYWBI5YWFkYTJhOGE3NWIV3MzZjNjk2OTY5NjU1UYjlkYTJhYjllOWNhZLGEyYThhNzViSDczRjSZhNjVKNWJhMmFkOWVShYjlhYWRhMmE4YTdhXYzViNzM2OTY1VDViOPWZhMmE1YTU1YjczNmDE2NTViOWFhNWFkOWVQhYk9hNzlhYWQ5ZTViINzM5ZjlhYTVhYzllNXjU1YmFjYTk5ZTllVzElkNWI3MzZhNjU1YjlVmWGE5YWM1YjczNmE2VOTY5YjY/"}],"options":"MVDAxMDg4MmY4MDgxNmFU3Zks4MTJmNDcyZjcP5N2M2ZTcxMmY4YQ|"},'https://cdn.svgator.com/ply/','__SVGATOR_PLAYER__','2022-05-04',window,document,'script','http://www.w3.org/2000/svg','http://www.w3.org/1999/xlink') ]]>
	</script>
</svg>
