<svg width="1440" height="1440" viewBox="0 0 1440 1440" fill="none" xmlns="http://www.w3.org/2000/svg">
<path d="M513.322 520.742C524.393 520.742 533.451 529.8 533.451 540.871C533.451 546.407 531.237 551.439 527.513 555.062C523.89 558.786 518.858 561 513.322 561H493.193H432.806H412.677C401.606 561 392.548 551.942 392.548 540.871C392.548 535.336 394.762 530.304 398.486 526.68C402.109 522.957 407.142 520.742 412.677 520.742H432.806H493.193H513.322Z" fill="#4E5C93"/>
<path d="M493.194 510.677V520.742H432.807V510.677C432.807 493.97 446.293 480.484 463 480.484C471.354 480.484 478.902 483.906 484.337 489.341C489.772 494.775 493.194 502.324 493.194 510.677Z" fill="#CCD7EE"/>
<path d="M432.807 561H493.194V621.387H432.807V561Z" fill="#CCD7EE"/>
<path d="M664.291 802.549H744.807V862.936H664.291V802.549Z" fill="#CCD7EE"/>
<path d="M463 339.58V420.096H395.769C400.198 407.516 402.613 393.929 402.613 379.838C402.613 365.748 400.198 352.161 395.769 339.58H463Z" fill="#CCD7EE"/>
<path d="M503.258 339.58H583.774V420.096H503.258V339.58Z" fill="#CCD7EE"/>
<path d="M744.806 540.871H664.29V430.161C664.29 424.625 659.761 420.096 654.225 420.096H624.032V339.58H684.419C717.733 339.58 744.806 366.654 744.806 399.967V540.871Z" fill="#CCD7EE"/>
<path d="M603.903 621.387H664.29V701.903H603.903V621.387Z" fill="#CCD7EE"/>
<path d="M744.807 762.291H664.291V701.904V621.387V581.129H744.807V762.291Z" fill="#CCD7EE"/>
<path d="M362.355 701.903V621.387H432.807H493.194H563.646V701.903H362.355Z" fill="#CCD7EE"/>
<path d="M322.097 621.387V701.903H291.903C286.368 701.903 281.839 706.432 281.839 711.968V762.29H201.323V681.774C201.323 648.461 228.396 621.387 261.71 621.387H322.097Z" fill="#CCD7EE"/>
<path d="M201.323 802.549H281.839V862.936H201.323V802.549Z" fill="#CCD7EE"/>
<path d="M301.968 772.355V792.484C301.968 798.02 297.439 802.549 291.903 802.549H281.839H201.322H191.258C185.722 802.549 181.193 798.02 181.193 792.484V772.355C181.193 766.82 185.722 762.291 191.258 762.291H201.322H281.839H291.903C297.439 762.291 301.968 766.82 301.968 772.355Z" fill="#FAAD14"/>
<path d="M362.355 701.903V711.967C362.355 717.503 357.826 722.032 352.291 722.032H332.162C326.626 722.032 322.097 717.503 322.097 711.967V701.903V621.387V611.322C322.097 605.787 326.626 601.258 332.162 601.258H352.291C357.826 601.258 362.355 605.787 362.355 611.322V621.387V701.903Z" fill="#FAAD14"/>
<path d="M603.903 701.903V711.967C603.903 717.503 599.374 722.032 593.839 722.032H573.71C568.174 722.032 563.645 717.503 563.645 711.967V701.903V621.387V611.322C563.645 605.787 568.174 601.258 573.71 601.258H593.839C599.374 601.258 603.903 605.787 603.903 611.322V621.387V701.903Z" fill="#FAAD14"/>
<path d="M764.936 772.355V792.484C764.936 798.02 760.407 802.549 754.871 802.549H744.807H664.291H654.226C648.691 802.549 644.162 798.02 644.162 792.484V772.355C644.162 766.82 648.691 762.291 654.226 762.291H664.291H744.807H754.871C760.407 762.291 764.936 766.82 764.936 772.355Z" fill="#FAAD14"/>
<path d="M764.936 550.935V571.064C764.936 576.6 760.407 581.129 754.871 581.129H744.807H664.291H654.226C648.691 581.129 644.162 576.6 644.162 571.064V550.935C644.162 545.4 648.691 540.871 654.226 540.871H664.291H744.807H754.871C760.407 540.871 764.936 545.4 764.936 550.935Z" fill="#FAAD14"/>
<path d="M624.032 420.096V430.161C624.032 435.696 619.503 440.225 613.968 440.225H593.839C588.303 440.225 583.774 435.696 583.774 430.161V420.096V339.58V329.516C583.774 323.98 588.303 319.451 593.839 319.451H613.968C619.503 319.451 624.032 323.98 624.032 329.516V339.58V420.096Z" fill="#FAAD14"/>
<path d="M503.258 420.096V430.161C503.258 435.696 498.729 440.225 493.194 440.225H473.065C467.529 440.225 463 435.696 463 430.161V420.096V339.58V329.516C463 323.98 467.529 319.451 473.065 319.451H493.194C498.729 319.451 503.258 323.98 503.258 329.516V339.58V420.096Z" fill="#FAAD14"/>
<path d="M395.769 339.58C400.197 352.161 402.613 365.748 402.613 379.838C402.613 393.929 400.197 407.516 395.769 420.096C379.163 466.997 334.476 500.613 281.839 500.613C215.111 500.613 161.065 446.566 161.065 379.838C161.065 313.111 215.111 259.064 281.839 259.064C334.476 259.064 379.163 292.68 395.769 339.58Z" fill="#CCD7EE"/>
<path d="M296.03 308.481L328.639 391.111C330.954 396.949 332.161 403.189 332.161 409.529V410.032C332.161 423.921 326.525 436.502 317.467 445.661C308.711 454.316 296.825 459.852 283.671 460.325C255.007 461.351 231.516 436.291 231.516 407.607C231.516 402.555 232.472 397.552 234.324 392.862L267.648 308.481C270.164 302.946 275.699 299.323 281.839 299.323C287.978 299.323 293.514 302.946 296.03 308.481Z" fill="#597EF7"/>
<path d="M287.774 384.253L300.726 425.778C301.645 428.711 302.125 431.847 302.125 435.034V435.286C302.125 442.266 299.887 448.589 296.289 453.191C292.811 457.541 288.09 460.323 282.865 460.56C271.48 461.076 262.15 448.482 262.15 434.068C262.15 431.529 262.53 429.015 263.265 426.658L276.501 384.253C277.501 381.471 279.699 379.651 282.138 379.651C284.576 379.651 286.775 381.471 287.774 384.253Z" fill="#ADC6FF"/>
<path d="M694.484 711.967H714.613V732.096H694.484V711.967Z" fill="#4E5C93"/>
<path d="M694.484 671.709H714.613V691.839H694.484V671.709Z" fill="#4E5C93"/>
<path d="M694.484 631.451H714.613V651.58H694.484V631.451Z" fill="#4E5C93"/>
<path d="M432.807 651.58H452.936V671.709H432.807V651.58Z" fill="#4E5C93"/>
<path d="M392.548 651.58H412.677V671.709H392.548V651.58Z" fill="#4E5C93"/>
<path d="M473.065 651.58H493.194V671.709H473.065V651.58Z" fill="#4E5C93"/>
<path d="M694.484 490.549H714.613V510.678H694.484V490.549Z" fill="#4E5C93"/>
<path d="M694.484 450.291H714.613V470.42H694.484V450.291Z" fill="#4E5C93"/>
<path d="M694.484 410.033H714.613V430.162H694.484V410.033Z" fill="#4E5C93"/>
<g clip-path="url(#clip0_8949_10264)">
<path d="M1312.17 673.744L931.573 535.218C925.048 532.843 917.833 536.207 915.458 542.732L816.439 814.783C814.064 821.308 817.429 828.523 823.954 830.898L1204.55 969.425C1211.08 971.8 1218.29 968.436 1220.67 961.91L1319.69 689.86C1322.06 683.334 1318.7 676.119 1312.17 673.744Z" fill="#E4EBF7"/>
<path fill-rule="evenodd" clip-rule="evenodd" d="M940.986 835.609L1014.89 632.556C1015.7 630.323 1018.17 629.172 1020.4 629.985L1266.38 719.512C1268.61 720.325 1269.76 722.793 1268.95 725.026L1194.76 928.873C1194.1 930.667 1192.08 931.578 1190.24 930.909L943.557 841.122C941.324 840.31 940.173 837.841 940.986 835.609Z" fill="white"/>
<path fill-rule="evenodd" clip-rule="evenodd" d="M983.229 797.52C981.389 796.85 980.427 794.853 981.08 793.059L1029.1 661.126C1029.75 659.332 1031.77 658.421 1033.61 659.091L1238.72 733.742C1240.56 734.412 1241.52 736.409 1240.87 738.203L1192.85 870.136C1192.19 871.93 1190.17 872.841 1188.33 872.172L983.229 797.52Z" fill="#FAAD14"/>
<path fill-rule="evenodd" clip-rule="evenodd" d="M1052.3 687.505L1037.76 682.213C1036.63 681.803 1036.04 680.582 1036.44 679.485C1036.84 678.388 1038.08 677.831 1039.2 678.24L1053.74 683.533C1054.87 683.942 1055.46 685.163 1055.06 686.26C1054.66 687.357 1053.42 687.915 1052.3 687.505Z" fill="white"/>
<path fill-rule="evenodd" clip-rule="evenodd" d="M1049.07 697.122L1034.52 691.83C1033.4 691.42 1032.81 690.199 1033.21 689.102C1033.61 688.005 1034.84 687.448 1035.97 687.857L1050.51 693.15C1051.64 693.56 1052.22 694.781 1051.83 695.877C1051.43 696.974 1050.19 697.532 1049.07 697.122Z" fill="white"/>
<path fill-rule="evenodd" clip-rule="evenodd" d="M993.204 759.75C1015.24 767.772 1019.3 738.413 1052.68 750.562C1086.06 762.711 1075.46 786.419 1101.49 795.895C1127.93 805.517 1151.63 734.969 1176.96 744.188C1203.69 753.919 1174.6 815.073 1207.91 827.194L1192.28 870.127C1191.63 871.922 1189.6 872.833 1187.76 872.161L983.225 797.522C981.387 796.851 980.427 794.855 981.079 793.062L993.204 759.75Z" fill="#253368"/>
<path d="M1066.23 712.489C1070.17 713.922 1072.49 717.417 1073.61 722.852C1074.47 727.023 1074.66 732.118 1074.4 739.882L1074.36 740.941C1074.28 742.823 1073.78 754.11 1073.68 758.08L1073.67 758.331C1073.39 771.013 1074.26 780.283 1076.98 788.075C1080.29 797.588 1086.29 804.114 1095.77 807.564C1101.59 809.683 1107.33 810.005 1113.39 808.814L1113.93 808.705C1118.47 807.757 1122.82 806.113 1129.07 803.222L1131.76 801.957L1133.62 801.084C1135.18 800.348 1136.38 799.799 1137.52 799.293L1137.74 799.198C1146.87 795.179 1153.13 794.069 1159.43 796.361C1166.03 798.764 1170.61 804.136 1175.93 814.091L1176.3 814.785C1176.59 815.335 1176.89 815.911 1177.21 816.536L1179.99 821.982C1183.43 828.726 1185.66 832.541 1188.47 836.154C1192.1 840.807 1196.07 843.999 1200.81 845.792L1201.1 845.9L1200.18 848.427C1194.79 846.467 1190.34 842.926 1186.35 837.806L1186.06 837.421C1183.2 833.691 1180.92 829.728 1177.42 822.863L1175.4 818.884C1174.75 817.616 1174.2 816.567 1173.68 815.584L1173.56 815.359C1168.52 805.943 1164.31 801 1158.51 798.887C1153.09 796.916 1147.52 797.87 1139.13 801.523L1138.82 801.659C1137.84 802.089 1136.84 802.547 1135.59 803.127L1130.57 805.488L1129.82 805.837C1123.35 808.815 1118.81 810.49 1113.91 811.452C1107.38 812.734 1101.15 812.384 1094.85 810.091C1084.58 806.351 1078.01 799.206 1074.44 788.96C1071.63 780.904 1070.72 771.499 1070.97 758.782L1071 757.599C1071.13 752.936 1071.68 740.91 1071.69 740.585L1071.72 739.612C1072.22 723.914 1070.68 716.971 1065.31 715.015C1061.8 713.737 1058 715.011 1053.53 718.827L1053.32 719.004C1049.63 722.206 1045.9 726.607 1040.17 734.256L1033.49 743.25C1033.18 743.669 1032.91 744.028 1032.71 744.298L1031.87 745.417C1024.25 755.472 1018.59 761.759 1012.51 766.301C1004.48 772.304 996.555 774.217 988.412 771.349L988.163 771.26L989.083 768.733C996.368 771.385 1003.45 769.71 1010.9 764.146L1011.33 763.825C1017.07 759.438 1022.57 753.26 1030.01 743.418L1030.83 742.319L1037.3 733.609C1043.56 725.212 1047.52 720.473 1051.56 716.972C1056.79 712.446 1061.57 710.792 1066.23 712.489Z" fill="white"/>
<path d="M1181.08 889.684C1181.92 889.989 1182.35 890.915 1182.04 891.752C1181.75 892.561 1180.87 892.992 1180.06 892.744L1179.97 892.716L974.545 817.946C973.708 817.641 973.276 816.716 973.581 815.878C973.875 815.069 974.75 814.639 975.565 814.886L975.649 814.914L1181.08 889.684Z" fill="#E4EBF7"/>
<path d="M1143.25 891.454C1144.09 891.758 1144.52 892.684 1144.22 893.521C1143.92 894.33 1143.05 894.761 1142.23 894.513L1142.15 894.485L969.552 831.665C968.715 831.36 968.283 830.434 968.588 829.597C968.882 828.788 969.757 828.358 970.571 828.605L970.655 828.633L1143.25 891.454Z" fill="#E4EBF7"/>
<path d="M935.549 521.222L1317.92 660.394C1323.9 662.57 1327.03 669.061 1324.91 674.892L1313.45 706.351L909.428 559.298L920.879 527.838C923.001 522.008 929.569 519.046 935.549 521.222Z" fill="#253368"/>
<path d="M937.476 554.248C941.744 555.802 946.432 553.688 947.947 549.526C949.461 545.365 947.229 540.732 942.961 539.178C938.693 537.625 934.005 539.739 932.49 543.9C930.976 548.062 933.208 552.695 937.476 554.248Z" fill="#FF7946"/>
<path d="M966.341 564.754C970.609 566.307 975.297 564.193 976.811 560.032C978.326 555.87 976.094 551.237 971.826 549.684C967.558 548.13 962.87 550.245 961.355 554.406C959.84 558.568 962.073 563.2 966.341 564.754Z" fill="#FAAD14"/>
<path d="M995.21 575.261C999.478 576.815 1004.17 574.701 1005.68 570.539C1007.2 566.378 1004.96 561.745 1000.69 560.191C996.427 558.638 991.739 560.752 990.224 564.914C988.709 569.075 990.942 573.708 995.21 575.261Z" fill="#7CB305"/>
<path d="M997.135 735.92L993.49 730.464L999.786 728.636L1003.43 734.083L997.135 735.92Z" fill="white"/>
<path d="M953.209 698.543L901.75 679.813C899.989 679.172 898.042 680.08 897.4 681.841L894.539 689.702C893.898 691.463 894.807 693.411 896.568 694.052L948.027 712.781C949.788 713.422 951.736 712.514 952.377 710.753L955.238 702.892C955.879 701.131 954.971 699.184 953.209 698.543Z" fill="#A3B5D6"/>
<path d="M943.28 725.973L891.724 707.208C889.99 706.577 888.072 707.471 887.441 709.206L884.701 716.732C884.07 718.466 884.964 720.384 886.699 721.016L938.255 739.78C939.989 740.412 941.907 739.517 942.539 737.783L945.278 730.257C945.909 728.522 945.015 726.604 943.28 725.973Z" fill="#A3B5D6"/>
<path d="M933.506 752.827L881.95 734.062C880.216 733.431 878.298 734.325 877.667 736.06L874.927 743.586C874.296 745.321 875.19 747.239 876.925 747.87L928.481 766.635C930.215 767.266 932.133 766.372 932.765 764.637L935.504 757.111C936.135 755.376 935.241 753.458 933.506 752.827Z" fill="#A3B5D6"/>
<path d="M935.943 665.926C951.889 671.73 969.404 663.831 975.063 648.284C980.722 632.736 972.382 615.427 956.435 609.623C940.489 603.819 922.974 611.718 917.316 627.265C911.657 642.813 919.996 660.122 935.943 665.926Z" fill="white"/>
<path d="M935.943 665.926C944.263 668.96 953.465 668.25 961.08 663.987C959.704 654.643 953.175 646.731 944.123 643.436C935.071 640.141 924.984 642.006 917.924 648.279C921.019 656.442 927.616 662.902 935.943 665.926Z" fill="#253368"/>
<path d="M943.874 644.613C949.871 646.796 956.458 643.825 958.586 637.978C960.715 632.13 957.578 625.621 951.581 623.438C945.584 621.255 938.996 624.226 936.868 630.073C934.74 635.92 937.876 642.43 943.874 644.613Z" fill="#253368"/>
</g>
<g clip-path="url(#clip1_8949_10264)">
<path d="M1273.99 482.066L913.199 385.392C906.845 383.689 900.313 387.46 898.611 393.814L827.623 658.742C825.921 665.096 829.692 671.628 836.046 673.33L1196.84 770.004C1203.19 771.707 1209.72 767.936 1211.43 761.582L1282.41 496.654C1284.12 490.3 1280.35 483.769 1273.99 482.066Z" fill="#E4EBF7"/>
<path d="M915.532 371.784L1278.58 469.063C1284.26 470.585 1287.63 476.421 1286.11 482.099L1277.9 512.734L894.288 409.946L902.497 379.31C904.018 373.633 909.854 370.263 915.532 371.784Z" fill="#253368"/>
<path d="M919.778 402.714C923.831 403.8 927.996 401.395 929.082 397.342C930.168 393.29 927.763 389.124 923.71 388.038C919.658 386.953 915.492 389.357 914.407 393.41C913.321 397.462 915.726 401.628 919.778 402.714Z" fill="#FF7946"/>
<path d="M947.184 410.057C951.237 411.143 955.402 408.738 956.488 404.685C957.574 400.633 955.169 396.468 951.116 395.382C947.064 394.296 942.898 396.701 941.813 400.753C940.727 404.806 943.132 408.971 947.184 410.057Z" fill="#FAAD14"/>
<path d="M974.594 417.402C978.647 418.488 982.812 416.083 983.898 412.03C984.984 407.978 982.579 403.812 978.527 402.726C974.474 401.641 970.309 404.045 969.223 408.098C968.137 412.15 970.542 416.316 974.594 417.402Z" fill="#7CB305"/>
<path d="M1249.8 534.33L983.707 463.031C979.922 462.017 976.031 464.264 975.017 468.049L923.596 659.955C922.582 663.74 924.828 667.631 928.613 668.645L1194.7 739.943C1198.49 740.957 1202.38 738.711 1203.39 734.926L1254.81 543.02C1255.83 539.235 1253.58 535.344 1249.8 534.33Z" fill="white"/>
<path d="M988.378 568.519L984.609 563.703L990.279 561.425L994.05 566.233L988.378 568.519Z" fill="white"/>
<path d="M936.139 534.807L887.435 521.757C885.72 521.298 883.957 522.315 883.498 524.031L881.446 531.685C880.987 533.4 882.005 535.163 883.72 535.623L932.424 548.673C934.139 549.133 935.902 548.115 936.361 546.4L938.412 538.745C938.872 537.03 937.854 535.267 936.139 534.807Z" fill="#ADC6FF"/>
<path d="M929.033 561.515L880.235 548.439C878.546 547.987 876.81 548.989 876.357 550.678L874.393 558.007C873.941 559.697 874.943 561.433 876.632 561.885L925.43 574.961C927.119 575.413 928.856 574.411 929.308 572.722L931.272 565.393C931.725 563.704 930.722 561.967 929.033 561.515Z" fill="#597EF7"/>
<path d="M922.026 587.666L873.228 574.59C871.539 574.138 869.803 575.14 869.35 576.829L867.386 584.158C866.934 585.847 867.936 587.584 869.625 588.036L918.423 601.112C920.112 601.564 921.849 600.562 922.301 598.873L924.265 591.544C924.718 589.854 923.715 588.118 922.026 587.666Z" fill="#597EF7"/>
<path d="M917.854 505.639C932.995 509.696 948.558 500.711 952.614 485.571C956.671 470.43 947.686 454.867 932.546 450.81C917.405 446.753 901.842 455.739 897.785 470.879C893.728 486.02 902.714 501.582 917.854 505.639Z" fill="white"/>
<path d="M917.854 505.64C925.754 507.761 934.188 506.28 940.893 501.593C938.925 492.916 932.313 486.042 923.718 483.739C915.123 481.436 905.96 484.083 899.917 490.614C903.382 498.027 909.948 503.527 917.854 505.64Z" fill="#253368"/>
<path d="M923.576 484.869C929.27 486.395 935.123 483.016 936.649 477.321C938.175 471.627 934.795 465.774 929.101 464.248C923.407 462.722 917.554 466.102 916.028 471.796C914.502 477.49 917.881 483.343 923.576 484.869Z" fill="#253368"/>
<path d="M1024.08 473.428C1024.74 473.603 1025.14 474.255 1025 474.909L1024.98 474.987L970.263 679.213C970.081 679.892 969.382 680.295 968.703 680.113C968.05 679.938 967.652 679.286 967.784 678.632L967.802 678.554L1022.52 474.328C1022.71 473.649 1023.4 473.245 1024.08 473.428Z" fill="#A3B5D6"/>
<path d="M1079.46 566.288C1080.39 565.849 1081.49 566.285 1081.86 567.224L1081.9 567.316L1110.9 652.024L1155.82 635.765C1156.09 635.664 1156.39 635.635 1156.68 635.678L1156.79 635.698L1206 646.188C1206.95 646.392 1207.57 647.334 1207.36 648.292C1207.16 649.22 1206.27 649.822 1205.35 649.675L1205.26 649.657L1156.55 639.273L1110.41 655.975C1109.51 656.302 1108.52 655.852 1108.16 654.974L1108.13 654.882L1079.19 570.344L1009.9 603.191C1009.05 603.596 1008.03 603.258 1007.59 602.437L1007.54 602.348C1007.14 601.493 1007.47 600.477 1008.29 600.031L1008.38 599.985L1079.46 566.288Z" fill="#FF7946"/>
<path d="M1222.35 558.411C1223.09 557.769 1224.21 557.848 1224.85 558.588C1225.47 559.303 1225.42 560.374 1224.75 561.024L1224.68 561.09L1164.37 613.444C1163.53 614.176 1162.23 613.953 1161.68 613.002L1161.63 612.914L1126.34 544.116L1084.86 558.251C1084.56 558.354 1084.23 558.373 1083.92 558.307L1083.8 558.278L1024.68 541.401C1023.73 541.132 1023.19 540.151 1023.46 539.208C1023.72 538.297 1024.65 537.756 1025.56 537.966L1025.65 537.99L1084.24 554.714L1126.65 540.264C1127.45 539.99 1128.33 540.323 1128.75 541.048L1128.8 541.133L1163.75 609.281L1222.35 558.411Z" fill="#FAAD14"/>
<path d="M1136.92 579.524C1137.43 579.275 1138.03 579.287 1138.52 579.552L1138.62 579.605L1168 597.55L1216.89 602.697C1217.83 602.796 1218.52 603.617 1218.47 604.553L1218.47 604.647C1218.37 605.59 1217.55 606.282 1216.61 606.233L1216.52 606.225L1167.24 601.036C1167.01 601.013 1166.79 600.946 1166.59 600.842L1166.5 600.786L1137.6 583.138L1071.22 615.47C1070.55 615.796 1069.75 615.668 1069.22 615.16L1069.14 615.088L1016.07 558.467C1015.4 557.753 1015.43 556.63 1016.15 555.96C1016.84 555.312 1017.91 555.325 1018.58 555.972L1018.65 556.041L1070.84 611.708L1136.92 579.524Z" fill="#597EF7"/>
</g>
<path d="M1158.02 334.633H752.983C746.041 334.633 740.414 340.26 740.414 347.202V637.684C740.414 644.625 746.041 650.253 752.983 650.253H1158.02C1164.96 650.253 1170.59 644.625 1170.59 637.684V347.202C1170.59 340.26 1164.96 334.633 1158.02 334.633Z" fill="#E4EBF7"/>
<path fill-rule="evenodd" clip-rule="evenodd" d="M870.248 616.136V397.645C870.248 395.27 872.173 393.345 874.548 393.345H1139.4C1141.78 393.345 1143.7 395.27 1143.7 397.645V616.943C1143.7 618.872 1142.1 620.437 1140.12 620.437H874.548C872.173 620.437 870.248 618.511 870.248 616.136Z" fill="white"/>
<path fill-rule="evenodd" clip-rule="evenodd" d="M924.811 436.949H909.159C907.948 436.949 906.967 435.993 906.967 434.813C906.967 433.633 907.948 432.677 909.159 432.677H924.811C926.022 432.677 927.003 433.633 927.003 434.813C927.003 435.993 926.022 436.949 924.811 436.949Z" fill="white"/>
<path fill-rule="evenodd" clip-rule="evenodd" d="M925.064 447.201H909.412C908.201 447.201 907.22 446.244 907.22 445.064C907.22 443.885 908.201 442.928 909.412 442.928H925.064C926.275 442.928 927.257 443.885 927.257 445.064C927.257 446.244 926.275 447.201 925.064 447.201Z" fill="white"/>
<path d="M1117.15 584.417C1118.04 584.417 1118.76 585.139 1118.76 586.029C1118.76 586.89 1118.09 587.593 1117.24 587.639L1117.15 587.642H896.034C895.143 587.642 894.421 586.92 894.421 586.029C894.421 585.168 895.096 584.465 895.945 584.419L896.034 584.417H1117.15Z" fill="#E4EBF7"/>
<path d="M1081.81 599.172C1082.7 599.172 1083.42 599.894 1083.42 600.784C1083.42 601.645 1082.75 602.349 1081.9 602.395L1081.81 602.397H896.034C895.143 602.397 894.421 601.675 894.421 600.784C894.421 599.924 895.096 599.22 895.945 599.174L896.034 599.172H1081.81Z" fill="#E4EBF7"/>
<path d="M751.937 320.412H1158.85C1165.21 320.412 1170.37 325.457 1170.37 331.681V365.262H740.414V331.681C740.414 325.457 745.573 320.412 751.937 320.412Z" fill="#253368"/>
<path d="M764.636 350.719C769.178 350.719 772.861 347.118 772.861 342.676C772.861 338.234 769.178 334.633 764.636 334.633C760.094 334.633 756.412 338.234 756.412 342.676C756.412 347.118 760.094 350.719 764.636 350.719Z" fill="#FF7946"/>
<path d="M796.633 350.719C801.175 350.719 804.857 347.118 804.857 342.676C804.857 338.234 801.175 334.633 796.633 334.633C792.09 334.633 788.408 338.234 788.408 342.676C788.408 347.118 792.09 350.719 796.633 350.719Z" fill="#FAAD14"/>
<path d="M826.851 350.719C831.393 350.719 835.076 347.118 835.076 342.676C835.076 338.234 831.393 334.633 826.851 334.633C822.309 334.633 818.627 338.234 818.627 342.676C818.627 347.118 822.309 350.719 826.851 350.719Z" fill="#7CB305"/>
<path d="M886.133 502.389L880.842 498.497L886.133 494.614L891.423 498.497L886.133 502.389Z" fill="white"/>
<path fill-rule="evenodd" clip-rule="evenodd" d="M1047.06 560.283C1047.06 563.079 1044.76 565.37 1041.95 565.37H1010.32C1007.52 565.37 1005.22 563.079 1005.22 560.283V434.732C1005.22 431.933 1007.52 429.645 1010.32 429.645H1041.95C1044.76 429.645 1047.06 431.933 1047.06 434.732V560.283Z" fill="#FF7946"/>
<path fill-rule="evenodd" clip-rule="evenodd" d="M905.619 420.574C904.036 420.574 902.753 419.262 902.753 417.643C902.753 416.024 904.036 414.712 905.619 414.712H958.184C959.767 414.712 961.05 416.024 961.05 417.643C961.05 419.262 959.767 420.574 958.184 420.574H905.619Z" fill="#CCD7EE"/>
<path fill-rule="evenodd" clip-rule="evenodd" d="M906.275 433.998C904.692 433.998 903.409 432.685 903.409 431.066C903.409 429.448 904.692 428.135 906.275 428.135H926.734C928.317 428.135 929.6 429.448 929.6 431.066C929.6 432.685 928.317 433.998 926.734 433.998H906.275Z" fill="#CCD7EE"/>
<path fill-rule="evenodd" clip-rule="evenodd" d="M946.258 560.175C946.258 562.971 943.961 565.262 941.153 565.262H909.525C906.718 565.262 904.42 562.971 904.42 560.175V510.64C904.42 507.844 906.718 505.555 909.525 505.555H941.153C943.961 505.555 946.258 507.844 946.258 510.64V560.175Z" fill="#ADC6FF"/>
<path fill-rule="evenodd" clip-rule="evenodd" d="M996.657 560.219C996.657 563.016 994.36 565.306 991.552 565.306H959.924C957.117 565.306 954.819 563.016 954.819 560.219V469.574C954.819 466.777 957.117 464.489 959.924 464.489H991.552C994.36 464.489 996.657 466.777 996.657 469.574V560.219Z" fill="#597EF7"/>
<path fill-rule="evenodd" clip-rule="evenodd" d="M1097.46 560.219C1097.46 563.016 1095.16 565.306 1092.35 565.306H1060.72C1057.92 565.306 1055.62 563.016 1055.62 560.219V469.574C1055.62 466.777 1057.92 464.489 1060.72 464.489H1092.35C1095.16 464.489 1097.46 466.777 1097.46 469.574V560.219Z" fill="#FAAD14"/>
<path d="M849.4 393.292H773.633C770.994 393.292 768.855 395.432 768.855 398.071V616.043C768.855 618.682 770.994 620.821 773.633 620.821H849.4C852.039 620.821 854.178 618.682 854.178 616.043V398.071C854.178 395.432 852.039 393.292 849.4 393.292Z" fill="#597EF7"/>
<path d="M833.117 483.948H789.345C787.846 483.948 786.631 485.164 786.631 486.663V493.375C786.631 494.874 787.846 496.089 789.345 496.089H833.117C834.616 496.089 835.831 494.874 835.831 493.375V486.663C835.831 485.164 834.616 483.948 833.117 483.948Z" fill="white"/>
<path d="M833.158 507.057H789.304C787.828 507.057 786.631 508.254 786.631 509.73V516.157C786.631 517.633 787.828 518.83 789.304 518.83H833.158C834.634 518.83 835.831 517.633 835.831 516.157V509.73C835.831 508.254 834.634 507.057 833.158 507.057Z" fill="#ADC6FF"/>
<path d="M833.158 530.165H789.304C787.828 530.165 786.631 531.362 786.631 532.838V539.266C786.631 540.742 787.828 541.938 789.304 541.938H833.158C834.634 541.938 835.831 540.742 835.831 539.266V532.838C835.831 531.362 834.634 530.165 833.158 530.165Z" fill="#FF7946"/>
<path d="M833.158 553.274H789.304C787.828 553.274 786.631 554.47 786.631 555.947V562.374C786.631 563.85 787.828 565.047 789.304 565.047H833.158C834.634 565.047 835.831 563.85 835.831 562.374V555.947C835.831 554.47 834.634 553.274 833.158 553.274Z" fill="#FAAD14"/>
<path d="M812.163 459.078C824.301 459.078 834.141 449.126 834.141 436.85C834.141 424.575 824.301 414.623 812.163 414.623C800.026 414.623 790.186 424.575 790.186 436.85C790.186 449.126 800.026 459.078 812.163 459.078Z" fill="white"/>
<path d="M811.947 459.043C818.281 459.046 824.293 456.216 828.368 451.312C825.157 445.146 818.834 441.287 811.944 441.287C805.053 441.287 798.73 445.146 795.519 451.312C799.596 456.217 805.61 459.047 811.947 459.043Z" fill="#253368"/>
<path d="M810.895 442.008C815.46 442.008 819.16 438.265 819.16 433.648C819.16 429.032 815.46 425.289 810.895 425.289C806.33 425.289 802.629 429.032 802.629 433.648C802.629 438.265 806.33 442.008 810.895 442.008Z" fill="#253368"/>
<g clip-path="url(#clip2_8949_10264)">
<path fill-rule="evenodd" clip-rule="evenodd" d="M821.715 852.214C821.715 852.214 792.74 785.189 774.775 720.29C758.399 661.112 752.894 606.732 789.899 594.761C836.365 579.729 855.363 663.647 868.21 705.261C877.452 735.211 890.928 799.49 895.396 833.613C902.526 888.045 833.834 898.198 821.715 852.214Z" fill="#FFC999"/>
<path fill-rule="evenodd" clip-rule="evenodd" d="M873.389 722.047C860.546 680.432 847.584 576.081 789.703 594.131C748.869 606.864 755.999 663.93 781.388 741.706L873.389 722.047Z" fill="#E4EBF7"/>
<path fill-rule="evenodd" clip-rule="evenodd" d="M684.826 1422.53C672.947 1272.07 694.722 1147.35 694.722 1147.35C694.722 1147.35 744.219 1030.55 801.629 1111.71C829.434 1151.03 821.425 1251.29 795.688 1417.58C795.688 1417.58 790.741 1495.78 733.327 1491.82C685.272 1488.51 684.826 1422.53 684.826 1422.53Z" fill="#FFC999"/>
<path fill-rule="evenodd" clip-rule="evenodd" d="M678.914 1319.82C740.258 1343.34 811.01 1323.46 811.01 1323.46C815.489 1278.01 823.406 1222.58 823.406 1062.23C746.354 1005.06 684.697 1107.15 684.697 1107.15L678.914 1319.82Z" fill="#597EF7"/>
<path fill-rule="evenodd" clip-rule="evenodd" d="M755.231 578.987C755.231 578.987 745.904 626.019 694.013 627.742C633.78 629.742 623.659 581.73 623.659 581.73L637.943 576.625C640.899 575.567 642.924 572.846 643.054 569.706C643.529 558.505 644.541 529.951 644.503 492.338C695.676 473.624 731.834 487.968 731.834 487.968C731.834 487.968 732.397 532.606 733.392 565.491C733.49 568.68 735.529 571.482 738.539 572.54C743.731 574.364 751.617 577.219 755.231 578.987Z" fill="#FFC999"/>
<path fill-rule="evenodd" clip-rule="evenodd" d="M623.141 461.582C623.141 461.582 613.146 389.726 667.378 382.519C732.881 373.81 739.586 410.686 745.327 427.67C751.423 445.712 763.337 522.841 725.231 542.814C708.936 550.091 698.818 554.253 668.545 540.159C624.491 519.646 623.141 461.582 623.141 461.582Z" fill="#FFC999"/>
<path fill-rule="evenodd" clip-rule="evenodd" d="M643.754 513.703L639.486 473.333C639.486 473.333 606.446 456.75 604.583 477.65C602.685 498.962 618.357 512.283 632.037 516.143C640.829 518.625 643.754 513.703 643.754 513.703Z" fill="#FFC999"/>
<path fill-rule="evenodd" clip-rule="evenodd" d="M638.769 372.589C638.769 372.589 670.775 346.819 686.8 348.5C702.827 350.18 691.314 363.36 691.314 363.36C691.314 363.36 734.471 352.581 739.214 362.126C743.964 371.675 728.551 377.556 728.551 377.556C728.551 377.556 772.289 386.257 775.305 398.924C778.315 411.591 758.016 410.259 758.016 410.259C758.016 410.259 774.634 427.447 770.584 438.7C766.53 449.954 756.56 449.437 756.56 449.437L750.791 464.47L746.045 434.07C746.045 434.07 730.172 428.568 700.771 417.047C719.309 433.42 708.684 434.274 694.073 432.488C676.952 430.396 656.797 426.068 657.757 425.502C657.757 425.502 658.847 445.439 646.292 455.564C630.898 467.975 644.313 489.989 640.119 491.322C632.058 493.962 631.393 471.504 615.288 468.836C602.878 468.85 599.675 453.884 602.716 448.505C586.253 447.524 585.546 430.698 605.423 414.52C586.97 413.532 596.954 395.841 623.529 386.736C612.701 357.324 638.769 372.589 638.769 372.589Z" fill="#253368"/>
<path d="M666.157 450.28C674.133 448.548 682.216 447.684 689.791 448.162C690.649 448.216 691.496 448.288 692.33 448.377C693.147 448.465 693.738 449.197 693.651 450.014C693.563 450.831 692.831 451.422 692.014 451.334C691.223 451.25 690.419 451.182 689.604 451.13C682.339 450.672 674.517 451.508 666.788 453.186C664.957 453.583 663.248 454.004 661.688 454.429L660.771 454.684C659.697 454.988 658.941 455.223 658.55 455.355C657.771 455.615 656.928 455.196 656.667 454.417C656.407 453.638 656.826 452.795 657.605 452.534L658.231 452.334L659.484 451.959L659.959 451.823C661.815 451.296 663.897 450.77 666.157 450.28Z" fill="#253368"/>
<path d="M717.817 445.418C724.798 443.038 732.616 442.566 740.702 445.206C741.483 445.461 741.909 446.301 741.654 447.082C741.399 447.862 740.56 448.289 739.779 448.034C732.366 445.613 725.191 446.046 718.777 448.233C717.618 448.629 716.586 449.051 715.698 449.472L715.155 449.737C714.926 449.853 714.76 449.943 714.661 450.001C713.953 450.417 713.042 450.18 712.626 449.472C712.21 448.763 712.447 447.852 713.156 447.436C713.394 447.296 713.822 447.069 714.426 446.783C715.413 446.316 716.548 445.851 717.817 445.418Z" fill="#253368"/>
<path d="M712.903 450.19L713.113 450.219C713.746 450.359 714.169 450.937 714.134 451.564L714.105 451.774L712.218 460.301L716.678 490.628C716.761 491.193 716.467 491.737 715.97 491.985L715.774 492.064L704.092 495.692C703.404 495.905 702.673 495.521 702.459 494.833C702.267 494.214 702.559 493.56 703.121 493.28L703.318 493.201L713.934 489.902L709.604 460.443L709.621 459.972L711.558 451.211C711.698 450.578 712.276 450.155 712.903 450.19Z" fill="#DD936F"/>
<path d="M668.476 470.06C673.489 467.035 679.524 466.601 686.095 470.377C686.936 470.861 687.227 471.936 686.743 472.777C686.259 473.619 685.185 473.909 684.343 473.425C678.958 470.331 674.273 470.668 670.292 473.07C669.618 473.477 669.027 473.912 668.526 474.343L668.231 474.607C668.109 474.72 668.025 474.805 667.98 474.854C667.326 475.571 666.215 475.623 665.497 474.969C664.779 474.315 664.728 473.203 665.382 472.486C665.968 471.843 667.009 470.945 668.476 470.06Z" fill="#253368"/>
<path d="M723.431 464.621C727.044 462.693 730.819 461.944 734.452 463.149C735.843 463.61 737.157 464.353 738.375 465.388C739.115 466.017 739.205 467.126 738.576 467.866C737.947 468.606 736.838 468.695 736.098 468.067C735.223 467.323 734.306 466.804 733.346 466.486C730.788 465.638 727.931 466.205 725.085 467.723C724.629 467.966 724.199 468.221 723.8 468.48L723.224 468.869C722.902 469.097 722.684 469.267 722.585 469.35C721.843 469.977 720.734 469.883 720.108 469.141C719.482 468.399 719.576 467.29 720.318 466.664C720.949 466.131 722.02 465.374 723.431 464.621Z" fill="#253368"/>
<path fill-rule="evenodd" clip-rule="evenodd" d="M685.739 502.596C685.739 502.596 704.692 505.36 722.238 501.289C722.238 501.289 718.315 512.423 705.789 513.326C689.979 514.469 685.739 502.596 685.739 502.596Z" fill="white"/>
<path d="M721.902 499.84C720.736 500.111 719.543 500.355 718.326 500.574C709.088 502.235 699.219 502.36 690.094 501.573L688.164 501.389C687.766 501.347 687.388 501.305 687.031 501.263L685.953 501.125C684.844 500.963 683.961 502.041 684.338 503.097C684.89 504.641 686.161 506.854 688.382 509.056C692.489 513.127 698.273 515.36 705.896 514.809C711.574 514.4 716.071 512.027 719.471 508.346C720.783 506.926 721.838 505.409 722.663 503.888C723.165 502.964 723.483 502.231 723.641 501.783C724.031 500.676 723.045 499.575 721.902 499.84ZM719.519 503.374L719.268 503.781C718.701 504.652 718.042 505.51 717.287 506.327C714.375 509.48 710.564 511.491 705.682 511.843C698.931 512.331 693.983 510.42 690.476 506.944L689.949 506.396C689.439 505.843 688.985 505.274 688.584 504.699L688.384 504.401L689.838 504.536C699.203 505.344 709.317 505.216 718.852 503.501L719.519 503.374Z" fill="#FF7A46"/>
<path d="M729.928 539.077C730.405 538.537 731.229 538.485 731.769 538.962C732.31 539.438 732.361 540.262 731.885 540.802L731.553 541.159C731.16 541.564 730.584 542.109 729.826 542.756C728.161 544.176 726.172 545.591 723.857 546.909C712.103 553.607 697.073 555.343 678.889 549.116C678.207 548.882 677.844 548.141 678.077 547.459C678.311 546.778 679.052 546.414 679.734 546.648C697.191 552.625 711.445 550.979 722.566 544.643C724.733 543.408 726.589 542.088 728.133 540.771C729.047 539.992 729.646 539.397 729.928 539.077Z" fill="#DD936F"/>
<path d="M709.166 520.904C709.886 520.868 710.498 521.421 710.535 522.141C710.568 522.788 710.123 523.349 709.509 523.482L709.299 523.509L700.376 523.963C699.656 524 699.044 523.446 699.007 522.727C698.974 522.079 699.419 521.518 700.033 521.386L700.243 521.358L709.166 520.904Z" fill="#DD936F"/>
<path d="M612.996 477.693C616.524 475.835 620.787 476.968 624.983 482.766L625.659 483.71C628.736 488.067 629.074 489.486 626.605 490.21L625.697 490.451C625.399 490.534 625.309 490.579 625.113 490.691C624.594 490.987 624.187 491.508 623.878 492.475C622.606 496.453 627.065 499.348 632.624 498.898C633.342 498.84 633.972 499.375 634.03 500.093C634.088 500.811 633.553 501.44 632.835 501.498C625.719 502.074 619.384 497.962 621.394 491.681C621.896 490.106 622.718 489.053 623.821 488.425C624.202 488.208 624.391 488.114 624.791 487.995L625.265 487.866L625.234 487.803C624.966 487.32 624.513 486.62 623.833 485.648L622.87 484.296C619.416 479.523 616.56 478.764 614.212 480.001C613.88 480.176 613.66 480.341 613.578 480.42C613.057 480.918 612.232 480.899 611.734 480.379C611.236 479.858 611.254 479.033 611.775 478.535C612.022 478.299 612.431 477.991 612.996 477.693Z" fill="#DD936F"/>
<path d="M643.159 512.542C643.8 512.214 644.586 512.467 644.915 513.108L645.32 513.877L646.144 515.383C646.244 515.563 646.347 515.745 646.452 515.931C647.654 518.057 648.945 520.183 650.271 522.162C651.754 524.373 653.187 526.259 654.528 527.713C655.619 528.898 656.622 529.765 657.497 530.272C658.12 530.633 658.333 531.431 657.971 532.055C657.61 532.678 656.812 532.89 656.189 532.529C655.054 531.871 653.864 530.843 652.609 529.481C651.166 527.915 649.656 525.928 648.105 523.614C646.737 521.575 645.413 519.395 644.181 517.215L643.567 516.114L642.594 514.298C642.265 513.657 642.518 512.871 643.159 512.542Z" fill="#DD936F"/>
<path fill-rule="evenodd" clip-rule="evenodd" d="M796.21 898.897C811.18 919.696 795.384 938.983 795.384 938.983C737.485 944.175 592.508 942.987 592.508 942.987C568.615 935.274 581.771 887.032 581.771 887.032C581.771 887.032 567.888 779.071 557.246 694.151C552.665 657.588 544.048 606.387 546.53 605.272C574.43 592.792 591.657 584.927 634.853 576.74C636.119 579.411 656.594 599.929 697.182 599.552C741.605 599.134 750.725 579 752.258 575.47C773.91 580.913 790.648 584.305 815.982 593.045C823.685 595.703 828.301 603.609 826.873 611.632L824.595 644.162C824.595 644.162 828.04 721.974 796.21 898.897Z" fill="#E4EBF7"/>
<path d="M633.526 595.822C633.923 595.212 634.74 595.04 635.35 595.437C667.531 616.401 701.187 617.572 732.137 606.984C735.746 605.749 739.018 604.437 741.916 603.118L742.985 602.623C743.866 602.208 744.657 601.818 745.356 601.458L745.862 601.194C746.346 600.939 746.67 600.759 746.828 600.668C747.458 600.302 748.264 600.517 748.63 601.147C748.995 601.777 748.78 602.583 748.151 602.948L747.633 603.237L747.092 603.526C746.243 603.974 745.246 604.473 744.109 605.008C740.869 606.534 737.145 608.057 732.991 609.479C701.337 620.307 666.856 619.108 633.911 597.646C633.301 597.249 633.128 596.432 633.526 595.822Z" fill="#A3B5D6"/>
<path d="M823.315 645.511C824.043 645.502 824.641 646.084 824.651 646.812L824.662 650.202C824.653 655.202 824.543 662.023 824.272 670.545L824.109 675.314C823.607 688.997 822.775 704.135 821.547 720.602L821.326 723.521C817.268 776.435 809.889 833.934 798.396 894.483L797.58 898.741L797.835 899.316C806.25 918.654 804.564 930.532 796.298 936.395L795.886 936.678C794.264 937.763 792.532 938.513 790.8 938.992C789.752 939.282 788.922 939.418 788.316 939.463L762.241 939.634L742.757 939.805C725.254 939.972 707.854 940.18 691.078 940.432L676.161 940.671C640.385 941.28 611.46 942.056 591.854 943.018C591.127 943.052 590.509 942.491 590.471 941.764C590.437 941.037 590.998 940.418 591.725 940.383L598.892 940.057C618.138 939.244 644.445 938.574 676.117 938.034L686.022 937.872C704.339 937.585 723.473 937.352 742.732 937.168L774.755 936.906L787.461 936.831L788.204 936.831C788.553 936.803 789.221 936.693 790.097 936.45C791.573 936.042 793.05 935.403 794.422 934.486C801.968 929.444 803.565 918.596 795.006 899.434C794.895 899.187 794.864 898.913 794.915 898.647C806.899 836.489 814.542 777.494 818.697 723.32C820.119 704.78 821.042 687.889 821.559 672.824L821.637 670.461C821.948 660.694 822.045 653.176 822.023 648.089L822.014 646.847C822.005 646.119 822.587 645.521 823.315 645.511Z" fill="#A3B5D6"/>
<path fill-rule="evenodd" clip-rule="evenodd" d="M554.789 1106.02L675.614 1152.89C675.614 1152.89 706.298 1161.18 728.886 1151.59C761.712 1137.66 798.478 1115.04 823.638 1089.64C823.899 1006.48 796.798 959.637 796.798 959.637L588.964 963.891C588.964 963.891 550.278 997.795 554.789 1106.02Z" fill="#597EF7"/>
<path fill-rule="evenodd" clip-rule="evenodd" d="M798.771 961.547L795.994 935.897L590.045 939.42L587.689 963.938C587.689 963.938 777.776 962.31 798.771 961.547Z" fill="#597EF7"/>
<path d="M686.175 964.774C686.898 964.692 687.551 965.212 687.633 965.936L688.891 977.299L689.192 980.068C690.127 988.689 691.063 997.539 691.958 1006.31L692.908 1015.74L694.151 1028.55C696.029 1048.41 697.227 1063.74 697.537 1072.94C697.808 1080.94 703.389 1087.22 712.655 1091.97C716.042 1093.71 719.683 1095.11 723.324 1096.19L724.808 1096.62C725.287 1096.75 725.748 1096.87 726.192 1096.98L727.645 1097.33C727.864 1097.37 728.033 1097.41 728.147 1097.43C728.862 1097.57 729.331 1098.26 729.193 1098.97C729.056 1099.69 728.365 1100.16 727.65 1100.02L726.838 1099.85C726.657 1099.81 726.455 1099.76 726.232 1099.71C725.125 1099.44 723.894 1099.12 722.57 1098.72C718.784 1097.59 714.997 1096.13 711.452 1094.32C701.424 1089.18 695.212 1082.18 694.902 1073.03L694.787 1070.18C694.32 1060.11 693.027 1044.34 691.104 1024.38L690.284 1016L689.998 1013.13C689.126 1004.43 688.203 995.564 687.271 986.853L685.013 966.232C684.931 965.509 685.451 964.856 686.175 964.774Z" fill="#253368"/>
<path d="M800.09 961.525C800.101 962.253 799.521 962.853 798.793 962.865L716.453 964.171L610.084 965.722C602.349 965.823 595.34 965.911 589.118 965.983C588.39 965.992 587.793 965.409 587.784 964.681C587.776 963.953 588.359 963.355 589.087 963.347L652.512 962.494L699.997 961.786L798.75 960.229C799.478 960.217 800.077 960.797 800.09 961.525Z" fill="#253368"/>
<path d="M616.714 968.841C617.438 968.924 617.956 969.579 617.873 970.302L617.787 970.965C617.733 971.362 617.669 971.806 617.595 972.294L617.516 972.796C617.204 974.759 616.799 976.944 616.29 979.297C614.834 986.021 612.834 992.747 610.201 999.036C604.298 1013.14 596.103 1023.02 585.166 1026.69C584.476 1026.92 583.729 1026.55 583.497 1025.86C583.265 1025.17 583.637 1024.42 584.327 1024.19C594.4 1020.81 602.13 1011.49 607.769 998.018C610.333 991.892 612.288 985.316 613.713 978.739C614.128 976.82 614.473 975.016 614.752 973.359L615.035 971.587C615.145 970.855 615.216 970.318 615.253 969.999C615.329 969.348 615.866 968.863 616.5 968.833L616.714 968.841Z" fill="#253368"/>
<path d="M600.744 967.718C601.371 968.089 601.579 968.898 601.208 969.524L600.842 970.174C600.533 970.735 600.174 971.412 599.769 972.208C598.605 974.491 597.306 977.257 595.905 980.512C591.894 989.834 587.879 1001.2 584.13 1014.66C578.042 1036.52 573.262 1061.75 570.292 1090.46C570.217 1091.18 569.57 1091.71 568.845 1091.63C568.121 1091.56 567.595 1090.91 567.67 1090.19C570.655 1061.33 575.462 1035.96 581.59 1013.95C585.371 1000.38 589.425 988.9 593.483 979.47C594.748 976.53 595.934 973.977 597.018 971.807L597.419 971.011C597.754 970.354 598.059 969.774 598.332 969.268L598.939 968.182C599.309 967.555 600.118 967.348 600.744 967.718Z" fill="#253368"/>
<path d="M784.888 961.406C785.605 961.279 786.289 961.758 786.415 962.475L786.64 963.658C786.704 963.975 786.778 964.34 786.863 964.749L787.27 966.641C787.56 967.947 787.888 969.337 788.254 970.798C789.82 977.056 791.755 983.312 794.075 989.142C799.573 1002.96 806.329 1012.15 814.216 1014.59C814.911 1014.81 815.3 1015.54 815.085 1016.24C814.87 1016.94 814.131 1017.32 813.436 1017.11C804.558 1014.36 797.395 1004.62 791.625 990.117C789.257 984.167 787.288 977.802 785.696 971.438C785.231 969.583 784.827 967.837 784.482 966.232L784.093 964.365L783.819 962.933C783.692 962.216 784.171 961.532 784.888 961.406Z" fill="#253368"/>
<path fill-rule="evenodd" clip-rule="evenodd" d="M693.261 949.534C693.346 952.083 695.979 954.059 699.143 953.943C702.307 953.827 704.8 951.668 704.715 949.119C704.627 946.567 701.994 944.595 698.83 944.707C695.669 944.823 693.177 946.985 693.261 949.534Z" fill="#253368"/>
<path fill-rule="evenodd" clip-rule="evenodd" d="M1010.66 900.65L776.463 902.851C767.558 902.931 761.121 894.371 763.669 885.838L813.046 720.783C814.709 715.229 819.793 711.404 825.587 711.351L1059.78 709.15C1068.68 709.066 1075.13 717.63 1072.57 726.162L1023.2 891.217C1021.54 896.769 1016.45 900.594 1010.66 900.65Z" fill="#A3B5D6"/>
<path fill-rule="evenodd" clip-rule="evenodd" d="M1020.55 900.65L786.361 902.851C777.456 902.931 771.019 894.371 773.568 885.838L822.945 720.783C824.607 715.229 829.691 711.404 835.485 711.351L1069.68 709.15C1078.59 709.066 1085.02 717.63 1082.47 726.162L1033.09 891.217C1031.44 896.768 1026.35 900.593 1020.55 900.65Z" fill="#253368"/>
<path fill-rule="evenodd" clip-rule="evenodd" d="M1030.26 828.478C1030.26 828.478 1060.43 815.646 1067.5 819.264C1078.46 824.878 1062.13 844.01 1062.13 844.01C1062.13 844.01 1069.39 854.22 1058.59 862.981C1058.45 875.486 1050.38 878.386 1050.38 878.386C1050.38 878.386 1053.53 889.147 1041.87 892.371C1030.21 895.595 1010.41 885.663 1019.01 872.578C1013.84 861.455 1023.7 856.224 1023.7 856.224C1023.7 856.224 1020.64 846.366 1030.34 841.507C1025.66 835.773 1027.12 829.846 1030.26 828.478Z" fill="#FFC999"/>
<path d="M1056.92 836.006C1057.63 835.894 1058.3 836.38 1058.41 837.092C1058.51 837.732 1058.13 838.337 1057.53 838.533L1057.32 838.583L1030.54 842.794C1029.83 842.906 1029.17 842.42 1029.05 841.709C1028.95 841.068 1029.34 840.463 1029.93 840.267L1030.14 840.217L1056.92 836.006Z" fill="#DD936F"/>
<path d="M1023.82 854.925L1047.2 857.175C1047.91 857.244 1048.44 857.881 1048.37 858.598C1048.31 859.243 1047.79 859.733 1047.16 859.774L1046.95 859.771L1023.57 857.521C1022.85 857.452 1022.33 856.815 1022.4 856.098C1022.46 855.453 1022.98 854.963 1023.61 854.921L1023.82 854.925Z" fill="#DD936F"/>
<path d="M1019.26 871.297L1041 875.502C1041.7 875.639 1042.17 876.323 1042.03 877.03C1041.91 877.667 1041.34 878.105 1040.71 878.086L1040.5 878.063L1018.76 873.858C1018.05 873.722 1017.59 873.037 1017.73 872.33C1017.85 871.694 1018.42 871.255 1019.04 871.274L1019.26 871.297Z" fill="#DD936F"/>
<path fill-rule="evenodd" clip-rule="evenodd" d="M453.855 837.449C453.855 837.449 466.958 765.611 488.041 701.658C507.261 643.345 532.865 595.058 570.293 605.636C617.286 618.925 586.51 699.271 574.097 741.019C565.163 771.06 540.688 832.007 525.469 862.874C501.19 912.107 438.415 882.425 453.855 837.449Z" fill="#FFC999"/>
<path fill-rule="evenodd" clip-rule="evenodd" d="M569.088 757.857C581.502 716.109 628.643 622.118 570.481 605.004C529.446 592.932 503.701 644.355 481.651 723.144L569.088 757.857Z" fill="#E4EBF7"/>
<path fill-rule="evenodd" clip-rule="evenodd" d="M733.759 914.726C733.759 914.726 546.292 918.288 480.768 897.514C444.128 885.898 438.767 833.505 482.877 822.304C519.081 813.111 739.406 865.557 739.406 865.557C739.406 865.557 761.153 867.058 759.199 892.74C757.174 919.388 733.759 914.726 733.759 914.726Z" fill="#FFC999"/>
<path fill-rule="evenodd" clip-rule="evenodd" d="M791.623 921.214C791.623 921.214 741.459 923.242 730.469 902.37C720.516 883.463 742.918 867.495 742.918 867.495C742.918 867.495 761.853 857.008 785.309 851.26C800.679 847.494 828.829 835.977 832.872 843.325C838.138 852.908 807.436 859.985 806.146 867.836C803.527 883.744 853.006 877.697 861.556 881.019C878.266 887.523 851.814 919.238 791.623 921.214Z" fill="#FFC999"/>
<path d="M860.75 888.267C861.441 888.064 862.166 888.459 862.369 889.15C862.572 889.841 862.177 890.566 861.486 890.769C859.791 891.267 858.057 891.708 856.286 892.093C844.361 894.688 831.679 894.688 819.787 893.137C818.399 892.956 817.122 892.765 815.968 892.571L815.125 892.426C814.3 892.279 813.721 892.164 813.412 892.097C812.708 891.944 812.261 891.249 812.414 890.545C812.567 889.841 813.262 889.395 813.966 889.548L814.873 889.728C815.081 889.767 815.318 889.811 815.582 889.857L817.266 890.14C818.154 890.28 819.108 890.418 820.124 890.551C831.744 892.066 844.143 892.065 855.731 889.544C857.442 889.172 859.116 888.747 860.75 888.267Z" fill="#DD936F"/>
<path d="M855.189 899.471C855.871 899.238 856.612 899.601 856.846 900.282C857.079 900.964 856.716 901.706 856.034 901.939L855.617 902.075C855.283 902.179 854.838 902.311 854.283 902.464L853.847 902.582C852.087 903.054 850.027 903.524 847.68 903.962C836.37 906.074 822.948 906.707 807.844 904.972C807.128 904.889 806.615 904.242 806.697 903.527C806.779 902.811 807.426 902.298 808.141 902.38C822.976 904.084 836.138 903.464 847.201 901.398C849.481 900.972 851.476 900.517 853.171 900.062L854.284 899.752C854.696 899.632 854.999 899.536 855.189 899.471Z" fill="#DD936F"/>
<path d="M834.635 911.378C835.348 911.278 836.007 911.775 836.107 912.488C836.207 913.201 835.71 913.861 834.997 913.961C821.389 915.869 810.423 916.095 802.248 915.331L800.721 915.17L799.854 915.059C799.444 915.002 799.163 914.957 799.013 914.929C798.305 914.8 797.835 914.12 797.965 913.412C798.095 912.703 798.775 912.234 799.483 912.364L800.005 912.446L800.213 912.475C800.846 912.563 801.605 912.651 802.49 912.734C810.467 913.479 821.229 913.257 834.635 911.378Z" fill="#DD936F"/>
<path d="M593.995 672.696C594.21 672 594.948 671.61 595.644 671.825C596.27 672.018 596.648 672.635 596.561 673.264L596.514 673.473L570.348 758.246C570.144 758.907 569.471 759.285 568.818 759.148L568.602 759.082L481.164 724.369C480.488 724.1 480.157 723.334 480.426 722.657C480.667 722.048 481.312 721.719 481.932 721.855L482.137 721.918L568.248 756.103L593.995 672.696Z" fill="#A3B5D6"/>
<path fill-rule="evenodd" clip-rule="evenodd" d="M618.345 1400.72C588.852 1269.13 589.956 1284.88 582.06 1175.93C582.06 1175.93 633.796 1046.41 702.161 1162.74C714.546 1183.81 718.994 1234.59 738.242 1371.15C738.242 1371.15 743.659 1448.52 706.123 1459.03C631.883 1479.82 618.345 1400.72 618.345 1400.72Z" fill="#FFC999"/>
<path fill-rule="evenodd" clip-rule="evenodd" d="M556.461 1106.83C556.461 1106.83 638.811 1058.47 712.326 1130.21C720.961 1212.71 736.12 1317.7 736.12 1317.7C736.12 1317.7 672.962 1354.17 599.527 1342.27C561.731 1145.31 556.461 1106.83 556.461 1106.83Z" fill="#597EF7"/>
<path d="M716.534 937.058C717.185 936.985 717.778 937.4 717.949 938.012L717.989 938.222L720.965 965.093L721.849 973.71L722.67 982.161C723.215 987.918 723.753 993.909 724.272 1000.06L724.53 1003.14C725.588 1015.96 726.475 1028.46 727.137 1040.33L727.329 1043.88C729.239 1080.26 728.785 1106.6 725.201 1118.89C724.997 1119.59 724.265 1119.99 723.566 1119.79C722.867 1119.58 722.466 1118.85 722.67 1118.15C726.084 1106.45 726.574 1080.87 724.781 1045.67L724.696 1044.01C724.019 1031.12 723.064 1017.43 721.902 1003.36L721.384 997.223C720.772 990.125 720.137 983.256 719.499 976.741L718.764 969.411L718.009 962.268L715.369 938.513C715.288 937.79 715.81 937.138 716.534 937.058Z" fill="#253368"/>
</g>
<path d="M373.625 334.375H314.375C305.538 334.375 298.375 341.538 298.375 350.375L298.375 409.625C298.375 418.462 305.538 425.625 314.375 425.625H373.625C382.462 425.625 389.625 418.462 389.625 409.625V350.375C389.625 341.538 382.462 334.375 373.625 334.375Z" fill="#597EF7"/>
<path d="M414.875 606.125H403.125C394.288 606.125 387.125 613.288 387.125 622.125L387.125 633.875C387.125 642.712 394.288 649.875 403.125 649.875H414.875C423.712 649.875 430.875 642.712 430.875 633.875V622.125C430.875 613.288 423.712 606.125 414.875 606.125Z" fill="#597EF7"/>
<defs>
<clipPath id="clip0_8949_10264">
<rect width="483" height="483" fill="white" transform="translate(926.196 436) rotate(20)"/>
</clipPath>
<clipPath id="clip1_8949_10264">
<rect width="483" height="483" fill="white" transform="translate(886.01 275) rotate(15)"/>
</clipPath>
<clipPath id="clip2_8949_10264">
<rect x="242" y="257" width="850" height="813" rx="406.5" fill="white"/>
</clipPath>
</defs>
</svg>
