<svg width="816" height="465" viewBox="0 0 816 465" fill="none" xmlns="http://www.w3.org/2000/svg">
<g clip-path="url(#clip0_1_609)">
<mask id="mask0_1_609" style="mask-type:luminance" maskUnits="userSpaceOnUse" x="0" y="0" width="816" height="465">
<path d="M816 0H0V465H816V0Z" fill="white"/>
</mask>
<g mask="url(#mask0_1_609)">
<path d="M247 417H70.9999C64.3729 417 58.9999 422.373 58.9999 429C58.9999 435.627 64.3729 441 70.9999 441H247C253.627 441 259 435.627 259 429C259 422.373 253.627 417 247 417Z" fill="#E4EBF7"/>
<path d="M754 417H578C571.373 417 566 422.373 566 429C566 435.627 571.373 441 578 441H754C760.63 441 766 435.627 766 429C766 422.373 760.63 417 754 417Z" fill="#E4EBF7"/>
<path d="M622.756 42.264H190.462C182.849 42.264 176.677 48.4359 176.677 56.0499V373.48C176.677 381.093 182.849 387.265 190.462 387.265H622.756C630.37 387.265 636.542 381.093 636.542 373.48V56.0499C636.542 48.4359 630.37 42.264 622.756 42.264Z" fill="#E4EBF7"/>
<path d="M188.995 26.354H623.993C630.796 26.354 636.311 31.8679 636.311 38.6709V75.3779H176.677V38.6709C176.677 31.8679 182.192 26.354 188.995 26.354Z" fill="#253368"/>
<path d="M203.006 59.6579C207.862 59.6579 211.798 55.7209 211.798 50.8659C211.798 46.0099 207.862 42.0739 203.006 42.0739C198.151 42.0739 194.214 46.0099 194.214 50.8659C194.214 55.7209 198.151 59.6579 203.006 59.6579Z" fill="#FF7946"/>
<path d="M235.843 59.6579C240.699 59.6579 244.635 55.7209 244.635 50.8659C244.635 46.0099 240.699 42.0739 235.843 42.0739C230.988 42.0739 227.052 46.0099 227.052 50.8659C227.052 55.7209 230.988 59.6579 235.843 59.6579Z" fill="#FAAD14"/>
<path d="M268.686 59.6579C273.541 59.6579 277.477 55.7209 277.477 50.8659C277.477 46.0099 273.541 42.0739 268.686 42.0739C263.83 42.0739 259.894 46.0099 259.894 50.8659C259.894 55.7209 263.83 59.6579 268.686 59.6579Z" fill="#7CB305"/>
<path d="M611.362 107.938H292.541C288.006 107.938 284.329 111.615 284.329 116.15V346.088C284.329 350.623 288.006 354.3 292.541 354.3H611.362C615.897 354.3 619.574 350.623 619.574 346.088V116.15C619.574 111.615 615.897 107.938 611.362 107.938Z" fill="white"/>
<path d="M329.361 224.465L323.705 220.21L329.361 215.966L335.017 220.21L329.361 224.465Z" fill="white"/>
<path d="M260.864 202.426H202.508C200.453 202.426 198.787 204.092 198.787 206.147V215.319C198.787 217.374 200.453 219.04 202.508 219.04H260.864C262.919 219.04 264.585 217.374 264.585 215.319V206.147C264.585 204.092 262.919 202.426 260.864 202.426Z" fill="#ADC6FF"/>
<path d="M260.92 234.412H202.452C200.428 234.412 198.787 236.052 198.787 238.076V246.858C198.787 248.882 200.428 250.522 202.452 250.522H260.92C262.944 250.522 264.585 248.882 264.585 246.858V238.076C264.585 236.052 262.944 234.412 260.92 234.412Z" fill="#597EF7"/>
<path d="M260.92 265.745H202.452C200.428 265.745 198.787 267.386 198.787 269.409V278.191C198.787 280.215 200.428 281.856 202.452 281.856H260.92C262.944 281.856 264.585 280.215 264.585 278.191V269.409C264.585 267.386 262.944 265.745 260.92 265.745Z" fill="#597EF7"/>
<path d="M231.686 175.296C249.827 175.296 264.534 160.59 264.534 142.449C264.534 124.308 249.827 109.601 231.686 109.601C213.545 109.601 198.839 124.308 198.839 142.449C198.839 160.59 213.545 175.296 231.686 175.296Z" fill="white"/>
<path d="M231.686 175.296C241.153 175.302 250.138 171.119 256.229 163.872C251.43 154.76 241.979 149.057 231.681 149.057C221.383 149.057 211.932 154.76 207.133 163.872C213.227 171.121 222.215 175.303 231.686 175.296Z" fill="#253368"/>
<path d="M231.861 150.363C238.683 150.363 244.214 144.832 244.214 138.009C244.214 131.186 238.683 125.656 231.861 125.656C225.038 125.656 219.507 131.186 219.507 138.009C219.507 144.832 225.038 150.363 231.861 150.363Z" fill="#253368"/>
<path d="M474.845 330.477C473.81 330.477 472.962 330.822 472.33 331.511C471.698 332.187 471.367 333.107 471.367 334.256H472.546C472.56 333.351 472.775 332.661 473.178 332.201C473.551 331.713 474.098 331.483 474.802 331.483C475.463 331.483 475.994 331.655 476.368 332C476.742 332.345 476.929 332.819 476.929 333.452C476.929 334.113 476.656 334.731 476.138 335.291C475.865 335.578 475.333 335.995 474.529 336.57C473.436 337.317 472.704 337.935 472.301 338.395C471.611 339.157 471.281 340.005 471.281 340.939H478.121V339.89H472.732C472.919 339.2 473.666 338.409 474.974 337.533C476.038 336.814 476.742 336.254 477.101 335.88C477.762 335.162 478.107 334.357 478.107 333.466C478.107 332.575 477.791 331.842 477.187 331.296C476.569 330.75 475.793 330.477 474.845 330.477ZM483.318 330.477C482.082 330.477 481.162 331.009 480.544 332.101C479.998 333.02 479.725 334.256 479.725 335.808C479.725 337.36 479.998 338.596 480.544 339.516C481.162 340.594 482.082 341.14 483.318 341.14C484.539 341.14 485.459 340.594 486.092 339.516C486.638 338.596 486.911 337.36 486.911 335.808C486.911 334.256 486.638 333.02 486.092 332.101C485.459 331.009 484.539 330.477 483.318 330.477ZM483.318 331.483C484.238 331.483 484.899 331.971 485.301 332.963C485.589 333.653 485.747 334.601 485.747 335.808C485.747 337.001 485.589 337.95 485.301 338.654C484.899 339.631 484.238 340.134 483.318 340.134C482.398 340.134 481.737 339.631 481.335 338.654C481.047 337.95 480.904 337.001 480.904 335.808C480.904 334.601 481.047 333.653 481.335 332.963C481.737 331.971 482.398 331.483 483.318 331.483ZM490.929 330.678C490.584 331.066 490.182 331.411 489.693 331.727C489.204 332.014 488.716 332.216 488.256 332.345V333.523C489.219 333.236 490.024 332.776 490.67 332.115V340.939H491.849V330.678H490.929ZM493.88 330.678V331.756H499.413L495.59 340.939H496.841L500.62 331.641V330.678H493.88Z" fill="#253368"/>
<path d="M369.302 330.477C368.267 330.477 367.419 330.822 366.787 331.511C366.154 332.187 365.824 333.107 365.824 334.256H367.002C367.017 333.351 367.232 332.661 367.635 332.201C368.008 331.713 368.554 331.483 369.259 331.483C369.92 331.483 370.451 331.655 370.825 332C371.199 332.345 371.385 332.819 371.385 333.452C371.385 334.113 371.112 334.731 370.595 335.291C370.322 335.578 369.79 335.995 368.985 336.57C367.893 337.317 367.16 337.935 366.758 338.395C366.068 339.157 365.738 340.005 365.738 340.939H372.578V339.89H367.189C367.376 339.2 368.123 338.409 369.431 337.533C370.494 336.814 371.199 336.254 371.558 335.88C372.219 335.162 372.564 334.357 372.564 333.466C372.564 332.575 372.248 331.842 371.644 331.296C371.026 330.75 370.25 330.477 369.302 330.477ZM377.775 330.477C376.539 330.477 375.619 331.009 375.001 332.101C374.455 333.02 374.182 334.256 374.182 335.808C374.182 337.36 374.455 338.596 375.001 339.516C375.619 340.594 376.539 341.14 377.775 341.14C378.996 341.14 379.916 340.594 380.548 339.516C381.094 338.596 381.367 337.36 381.367 335.808C381.367 334.256 381.094 333.02 380.548 332.101C379.916 331.009 378.996 330.477 377.775 330.477ZM377.775 331.483C378.694 331.483 379.356 331.971 379.758 332.963C380.045 333.653 380.203 334.601 380.203 335.808C380.203 337.001 380.045 337.95 379.758 338.654C379.356 339.631 378.694 340.134 377.775 340.134C376.855 340.134 376.194 339.631 375.792 338.654C375.504 337.95 375.36 337.001 375.36 335.808C375.36 334.601 375.504 333.653 375.792 332.963C376.194 331.971 376.855 331.483 377.775 331.483ZM385.386 330.678C385.041 331.066 384.638 331.411 384.15 331.727C383.661 332.014 383.173 332.216 382.713 332.345V333.523C383.676 333.236 384.48 332.776 385.127 332.115V340.939H386.305V330.678H385.386ZM389.357 330.678L388.811 336.34H389.932C390.133 335.938 390.449 335.622 390.852 335.42C391.24 335.205 391.671 335.104 392.16 335.104C392.907 335.104 393.496 335.32 393.913 335.78C394.344 336.225 394.574 336.857 394.574 337.677C394.574 338.395 394.33 338.984 393.87 339.444C393.395 339.904 392.806 340.134 392.088 340.134C391.455 340.134 390.924 339.976 390.521 339.674C390.061 339.329 389.803 338.826 389.745 338.18H388.581C388.653 339.114 389.041 339.861 389.76 340.407C390.392 340.896 391.168 341.14 392.073 341.14C393.079 341.14 393.942 340.824 394.631 340.206C395.364 339.545 395.738 338.697 395.738 337.662C395.738 336.556 395.422 335.693 394.818 335.061C394.215 334.443 393.424 334.141 392.447 334.141C391.973 334.141 391.542 334.213 391.139 334.386C390.694 334.558 390.32 334.817 390.033 335.162H389.975L390.32 331.727H395.321V330.678H389.357Z" fill="#253368"/>
<path d="M421.904 330.477C420.869 330.477 420.021 330.822 419.389 331.511C418.757 332.187 418.426 333.107 418.426 334.256H419.605C419.619 333.351 419.835 332.661 420.237 332.201C420.611 331.713 421.157 331.483 421.861 331.483C422.522 331.483 423.054 331.655 423.427 332C423.801 332.345 423.988 332.819 423.988 333.452C423.988 334.113 423.715 334.731 423.197 335.291C422.924 335.578 422.393 335.995 421.588 336.57C420.496 337.317 419.763 337.935 419.36 338.395C418.67 339.157 418.34 340.005 418.34 340.939H425.18V339.89H419.791C419.978 339.2 420.726 338.409 422.033 337.533C423.097 336.814 423.801 336.254 424.16 335.88C424.821 335.162 425.166 334.357 425.166 333.466C425.166 332.575 424.85 331.842 424.246 331.296C423.628 330.75 422.852 330.477 421.904 330.477ZM430.377 330.477C429.141 330.477 428.221 331.009 427.604 332.101C427.057 333.02 426.784 334.256 426.784 335.808C426.784 337.36 427.057 338.596 427.604 339.516C428.221 340.594 429.141 341.14 430.377 341.14C431.599 341.14 432.518 340.594 433.151 339.516C433.697 338.596 433.97 337.36 433.97 335.808C433.97 334.256 433.697 333.02 433.151 332.101C432.518 331.009 431.599 330.477 430.377 330.477ZM430.377 331.483C431.297 331.483 431.958 331.971 432.36 332.963C432.648 333.653 432.806 334.601 432.806 335.808C432.806 337.001 432.648 337.95 432.36 338.654C431.958 339.631 431.297 340.134 430.377 340.134C429.457 340.134 428.796 339.631 428.394 338.654C428.106 337.95 427.963 337.001 427.963 335.808C427.963 334.601 428.106 333.653 428.394 332.963C428.796 331.971 429.457 331.483 430.377 331.483ZM437.988 330.678C437.643 331.066 437.241 331.411 436.752 331.727C436.263 332.014 435.775 332.216 435.315 332.345V333.523C436.278 333.236 437.083 332.776 437.729 332.115V340.939H438.908V330.678H437.988ZM444.906 330.477C443.742 330.477 442.822 331.009 442.146 332.086C441.5 333.107 441.184 334.443 441.184 336.081C441.184 337.648 441.471 338.869 442.075 339.746C442.707 340.666 443.641 341.14 444.891 341.14C445.897 341.14 446.716 340.795 447.377 340.134C448.024 339.473 448.355 338.625 448.355 337.619C448.355 336.613 448.053 335.808 447.464 335.176C446.86 334.544 446.07 334.228 445.092 334.228C444.489 334.228 443.957 334.371 443.497 334.673C443.009 334.96 442.649 335.377 442.391 335.909H442.333C442.319 335.722 442.319 335.593 442.319 335.535C442.319 334.371 442.534 333.408 442.994 332.661C443.454 331.856 444.086 331.468 444.891 331.468C446.084 331.468 446.788 332.043 447.018 333.222H448.182C447.895 331.382 446.803 330.477 444.906 330.477ZM444.862 335.205C445.567 335.205 446.127 335.42 446.558 335.88C446.975 336.311 447.191 336.886 447.191 337.619C447.191 338.352 446.975 338.956 446.544 339.444C446.113 339.904 445.552 340.148 444.862 340.148C444.144 340.148 443.583 339.904 443.152 339.415C442.721 338.956 442.52 338.366 442.52 337.648C442.52 336.929 442.736 336.354 443.181 335.895C443.627 335.435 444.187 335.205 444.862 335.205Z" fill="#253368"/>
<path d="M309.581 129.789C308.503 129.789 307.669 130.062 307.066 130.623C306.505 131.126 306.232 131.758 306.232 132.505C306.232 133.051 306.362 133.511 306.62 133.885C306.893 134.287 307.296 134.589 307.842 134.776V134.804C307.296 134.934 306.85 135.236 306.477 135.695C306.074 136.184 305.873 136.759 305.873 137.42C305.873 138.325 306.189 139.058 306.822 139.604C307.468 140.165 308.388 140.452 309.581 140.452C310.759 140.452 311.679 140.165 312.34 139.604C312.972 139.058 313.288 138.325 313.288 137.42C313.288 136.759 313.087 136.184 312.685 135.695C312.311 135.236 311.851 134.934 311.32 134.804V134.776C311.851 134.589 312.254 134.287 312.541 133.885C312.8 133.511 312.929 133.051 312.929 132.505C312.929 131.758 312.642 131.126 312.096 130.623C311.492 130.062 310.644 129.789 309.581 129.789ZM309.581 130.752C310.299 130.752 310.874 130.939 311.291 131.312C311.636 131.629 311.823 132.045 311.823 132.548C311.823 133.066 311.665 133.497 311.348 133.813C310.96 134.187 310.371 134.388 309.581 134.388C308.776 134.388 308.187 134.187 307.813 133.813C307.497 133.497 307.339 133.066 307.339 132.548C307.339 132.045 307.511 131.629 307.871 131.312C308.273 130.939 308.848 130.752 309.581 130.752ZM309.581 135.307C310.4 135.307 311.047 135.509 311.506 135.925C311.909 136.299 312.124 136.802 312.124 137.42C312.124 138.024 311.909 138.512 311.506 138.886C311.047 139.288 310.414 139.489 309.581 139.489C308.747 139.489 308.101 139.288 307.669 138.9C307.238 138.526 307.037 138.024 307.037 137.42C307.037 136.802 307.238 136.299 307.669 135.925C308.115 135.509 308.747 135.307 309.581 135.307ZM318.198 129.789C316.962 129.789 316.042 130.321 315.424 131.413C314.878 132.333 314.605 133.569 314.605 135.121C314.605 136.673 314.878 137.909 315.424 138.828C316.042 139.906 316.962 140.452 318.198 140.452C319.419 140.452 320.339 139.906 320.971 138.828C321.517 137.909 321.79 136.673 321.79 135.121C321.79 133.569 321.517 132.333 320.971 131.413C320.339 130.321 319.419 129.789 318.198 129.789ZM318.198 130.795C319.117 130.795 319.778 131.284 320.181 132.275C320.468 132.965 320.626 133.913 320.626 135.121C320.626 136.313 320.468 137.262 320.181 137.966C319.778 138.943 319.117 139.446 318.198 139.446C317.278 139.446 316.617 138.943 316.214 137.966C315.927 137.262 315.783 136.313 315.783 135.121C315.783 133.913 315.927 132.965 316.214 132.275C316.617 131.284 317.278 130.795 318.198 130.795Z" fill="#253368"/>
<path d="M309.724 170.977C308.56 170.977 307.641 171.508 306.965 172.586C306.319 173.606 306.002 174.943 306.002 176.581C306.002 178.148 306.29 179.369 306.893 180.246C307.526 181.165 308.46 181.64 309.71 181.64C310.716 181.64 311.535 181.295 312.196 180.634C312.843 179.973 313.173 179.125 313.173 178.119C313.173 177.113 312.872 176.308 312.282 175.676C311.679 175.043 310.889 174.727 309.911 174.727C309.308 174.727 308.776 174.871 308.316 175.173C307.828 175.46 307.468 175.877 307.21 176.409H307.152C307.138 176.222 307.138 176.093 307.138 176.035C307.138 174.871 307.353 173.908 307.813 173.161C308.273 172.356 308.905 171.968 309.71 171.968C310.903 171.968 311.607 172.543 311.837 173.721H313.001C312.714 171.882 311.621 170.977 309.724 170.977ZM309.681 175.705C310.386 175.705 310.946 175.92 311.377 176.38C311.794 176.811 312.009 177.386 312.009 178.119C312.009 178.852 311.794 179.455 311.363 179.944C310.932 180.404 310.371 180.648 309.681 180.648C308.963 180.648 308.402 180.404 307.971 179.915C307.54 179.455 307.339 178.866 307.339 178.148C307.339 177.429 307.554 176.854 308 176.394C308.445 175.934 309.006 175.705 309.681 175.705ZM318.198 170.977C316.962 170.977 316.042 171.508 315.424 172.6C314.878 173.52 314.605 174.756 314.605 176.308C314.605 177.86 314.878 179.096 315.424 180.016C316.042 181.094 316.962 181.64 318.198 181.64C319.419 181.64 320.339 181.094 320.971 180.016C321.517 179.096 321.79 177.86 321.79 176.308C321.79 174.756 321.517 173.52 320.971 172.6C320.339 171.508 319.419 170.977 318.198 170.977ZM318.198 171.983C319.117 171.983 319.778 172.471 320.181 173.463C320.468 174.152 320.626 175.101 320.626 176.308C320.626 177.501 320.468 178.449 320.181 179.154C319.778 180.131 319.117 180.634 318.198 180.634C317.278 180.634 316.617 180.131 316.214 179.154C315.927 178.449 315.783 177.501 315.783 176.308C315.783 175.101 315.927 174.152 316.214 173.463C316.617 172.471 317.278 171.983 318.198 171.983Z" fill="#253368"/>
<path d="M309.724 253.357C308.69 253.357 307.842 253.702 307.21 254.392C306.577 255.067 306.247 255.987 306.247 257.137H307.425C307.44 256.231 307.655 255.542 308.057 255.082C308.431 254.593 308.977 254.363 309.681 254.363C310.342 254.363 310.874 254.536 311.248 254.88C311.621 255.225 311.808 255.7 311.808 256.332C311.808 256.993 311.535 257.611 311.018 258.171C310.745 258.459 310.213 258.876 309.408 259.45C308.316 260.198 307.583 260.816 307.181 261.275C306.491 262.037 306.161 262.885 306.161 263.819H313.001V262.77H307.612C307.799 262.08 308.546 261.29 309.854 260.413C310.917 259.695 311.621 259.134 311.981 258.761C312.642 258.042 312.987 257.237 312.987 256.346C312.987 255.455 312.67 254.722 312.067 254.176C311.449 253.63 310.673 253.357 309.724 253.357ZM318.198 253.357C316.962 253.357 316.042 253.889 315.424 254.981C314.878 255.901 314.605 257.137 314.605 258.689C314.605 260.241 314.878 261.477 315.424 262.396C316.042 263.474 316.962 264.02 318.198 264.02C319.419 264.02 320.339 263.474 320.971 262.396C321.517 261.477 321.79 260.241 321.79 258.689C321.79 257.137 321.517 255.901 320.971 254.981C320.339 253.889 319.419 253.357 318.198 253.357ZM318.198 254.363C319.117 254.363 319.778 254.852 320.181 255.843C320.468 256.533 320.626 257.482 320.626 258.689C320.626 259.881 320.468 260.83 320.181 261.534C319.778 262.511 319.117 263.014 318.198 263.014C317.278 263.014 316.617 262.511 316.214 261.534C315.927 260.83 315.783 259.881 315.783 258.689C315.783 257.482 315.927 256.533 316.214 255.843C316.617 254.852 317.278 254.363 318.198 254.363Z" fill="#253368"/>
<path d="M309.581 294.55C308.345 294.55 307.425 295.082 306.807 296.174C306.261 297.093 305.988 298.329 305.988 299.881C305.988 301.433 306.261 302.669 306.807 303.589C307.425 304.667 308.345 305.213 309.581 305.213C310.802 305.213 311.722 304.667 312.354 303.589C312.9 302.669 313.173 301.433 313.173 299.881C313.173 298.329 312.9 297.093 312.354 296.174C311.722 295.082 310.802 294.55 309.581 294.55ZM309.581 295.556C310.5 295.556 311.162 296.044 311.564 297.036C311.851 297.726 312.009 298.674 312.009 299.881C312.009 301.074 311.851 302.023 311.564 302.727C311.162 303.704 310.5 304.207 309.581 304.207C308.661 304.207 308 303.704 307.598 302.727C307.31 302.023 307.166 301.074 307.166 299.881C307.166 298.674 307.31 297.726 307.598 297.036C308 296.044 308.661 295.556 309.581 295.556Z" fill="#253368"/>
<path d="M310.788 212.371L305.614 219.182V220.303H310.774V222.631H311.894V220.303H313.561V219.34H311.894V212.371H310.788ZM310.73 213.908H310.774V219.34H306.606L310.73 213.908ZM318.198 212.169C316.962 212.169 316.042 212.701 315.424 213.793C314.878 214.713 314.605 215.949 314.605 217.501C314.605 219.053 314.878 220.289 315.424 221.209C316.042 222.286 316.962 222.833 318.198 222.833C319.419 222.833 320.339 222.286 320.971 221.209C321.517 220.289 321.79 219.053 321.79 217.501C321.79 215.949 321.517 214.713 320.971 213.793C320.339 212.701 319.419 212.169 318.198 212.169ZM318.198 213.175C319.117 213.175 319.778 213.664 320.181 214.656C320.468 215.345 320.626 216.294 320.626 217.501C320.626 218.694 320.468 219.642 320.181 220.346C319.778 221.324 319.117 221.827 318.198 221.827C317.278 221.827 316.617 221.324 316.214 220.346C315.927 219.642 315.783 218.694 315.783 217.501C315.783 216.294 315.927 215.345 316.214 214.656C316.617 213.664 317.278 213.175 318.198 213.175Z" fill="#253368"/>
<path d="M527.108 330.477C526.074 330.477 525.226 330.822 524.593 331.511C523.961 332.187 523.631 333.107 523.631 334.256H524.809C524.823 333.351 525.039 332.661 525.441 332.201C525.815 331.713 526.361 331.483 527.065 331.483C527.726 331.483 528.258 331.655 528.632 332C529.005 332.345 529.192 332.819 529.192 333.452C529.192 334.113 528.919 334.731 528.402 335.291C528.129 335.578 527.597 335.995 526.792 336.57C525.7 337.317 524.967 337.935 524.565 338.395C523.875 339.157 523.544 340.005 523.544 340.939H530.385V339.89H524.996C525.183 339.2 525.93 338.409 527.238 337.533C528.301 336.814 529.005 336.254 529.364 335.88C530.026 335.162 530.37 334.357 530.37 333.466C530.37 332.575 530.054 331.842 529.451 331.296C528.833 330.75 528.057 330.477 527.108 330.477ZM535.581 330.477C534.346 330.477 533.426 331.009 532.808 332.101C532.262 333.02 531.989 334.256 531.989 335.808C531.989 337.36 532.262 338.596 532.808 339.516C533.426 340.594 534.346 341.14 535.581 341.14C536.803 341.14 537.723 340.594 538.355 339.516C538.901 338.596 539.174 337.36 539.174 335.808C539.174 334.256 538.901 333.02 538.355 332.101C537.723 331.009 536.803 330.477 535.581 330.477ZM535.581 331.483C536.501 331.483 537.162 331.971 537.565 332.963C537.852 333.653 538.01 334.601 538.01 335.808C538.01 337.001 537.852 337.95 537.565 338.654C537.162 339.631 536.501 340.134 535.581 340.134C534.662 340.134 534.001 339.631 533.598 338.654C533.311 337.95 533.167 337.001 533.167 335.808C533.167 334.601 533.311 333.653 533.598 332.963C534.001 331.971 534.662 331.483 535.581 331.483ZM543.192 330.678C542.847 331.066 542.445 331.411 541.956 331.727C541.468 332.014 540.979 332.216 540.519 332.345V333.523C541.482 333.236 542.287 332.776 542.934 332.115V340.939H544.112V330.678H543.192ZM549.966 330.477C548.888 330.477 548.055 330.75 547.451 331.31C546.891 331.813 546.618 332.446 546.618 333.193C546.618 333.739 546.747 334.199 547.006 334.572C547.279 334.975 547.681 335.277 548.227 335.463V335.492C547.681 335.622 547.236 335.923 546.862 336.383C546.46 336.872 546.259 337.447 546.259 338.108C546.259 339.013 546.575 339.746 547.207 340.292C547.854 340.852 548.773 341.14 549.966 341.14C551.145 341.14 552.064 340.852 552.725 340.292C553.358 339.746 553.674 339.013 553.674 338.108C553.674 337.447 553.473 336.872 553.07 336.383C552.697 335.923 552.237 335.622 551.705 335.492V335.463C552.237 335.277 552.639 334.975 552.927 334.572C553.185 334.199 553.315 333.739 553.315 333.193C553.315 332.446 553.027 331.813 552.481 331.31C551.878 330.75 551.03 330.477 549.966 330.477ZM549.966 331.44C550.685 331.44 551.26 331.626 551.676 332C552.021 332.316 552.208 332.733 552.208 333.236C552.208 333.753 552.05 334.184 551.734 334.501C551.346 334.874 550.757 335.075 549.966 335.075C549.161 335.075 548.572 334.874 548.199 334.501C547.882 334.184 547.724 333.753 547.724 333.236C547.724 332.733 547.897 332.316 548.256 332C548.658 331.626 549.233 331.44 549.966 331.44ZM549.966 335.995C550.785 335.995 551.432 336.196 551.892 336.613C552.294 336.987 552.51 337.49 552.51 338.108C552.51 338.711 552.294 339.2 551.892 339.573C551.432 339.976 550.8 340.177 549.966 340.177C549.133 340.177 548.486 339.976 548.055 339.588C547.624 339.214 547.423 338.711 547.423 338.108C547.423 337.49 547.624 336.987 548.055 336.613C548.5 336.196 549.133 335.995 549.966 335.995Z" fill="#253368"/>
<path d="M579.71 330.477C578.676 330.477 577.828 330.822 577.195 331.511C576.563 332.187 576.233 333.107 576.233 334.256H577.411C577.425 333.351 577.641 332.661 578.043 332.201C578.417 331.713 578.963 331.483 579.667 331.483C580.328 331.483 580.86 331.655 581.234 332C581.607 332.345 581.794 332.819 581.794 333.452C581.794 334.113 581.521 334.731 581.004 335.291C580.731 335.578 580.199 335.995 579.394 336.57C578.302 337.317 577.569 337.935 577.167 338.395C576.477 339.157 576.146 340.005 576.146 340.939H582.987V339.89H577.598C577.785 339.2 578.532 338.409 579.84 337.533C580.903 336.814 581.607 336.254 581.967 335.88C582.628 335.162 582.972 334.357 582.972 333.466C582.972 332.575 582.656 331.842 582.053 331.296C581.435 330.75 580.659 330.477 579.71 330.477ZM588.183 330.477C586.948 330.477 586.028 331.009 585.41 332.101C584.864 333.02 584.591 334.256 584.591 335.808C584.591 337.36 584.864 338.596 585.41 339.516C586.028 340.594 586.948 341.14 588.183 341.14C589.405 341.14 590.325 340.594 590.957 339.516C591.503 338.596 591.776 337.36 591.776 335.808C591.776 334.256 591.503 333.02 590.957 332.101C590.325 331.009 589.405 330.477 588.183 330.477ZM588.183 331.483C589.103 331.483 589.764 331.971 590.167 332.963C590.454 333.653 590.612 334.601 590.612 335.808C590.612 337.001 590.454 337.95 590.167 338.654C589.764 339.631 589.103 340.134 588.183 340.134C587.264 340.134 586.603 339.631 586.2 338.654C585.913 337.95 585.769 337.001 585.769 335.808C585.769 334.601 585.913 333.653 586.2 332.963C586.603 331.971 587.264 331.483 588.183 331.483ZM595.794 330.678C595.449 331.066 595.047 331.411 594.558 331.727C594.07 332.014 593.581 332.216 593.121 332.345V333.523C594.084 333.236 594.889 332.776 595.536 332.115V340.939H596.714V330.678H595.794ZM602.453 330.477C601.447 330.477 600.614 330.807 599.967 331.483C599.306 332.144 598.99 332.977 598.99 333.998C598.99 334.989 599.277 335.794 599.867 336.412C600.47 337.059 601.261 337.389 602.252 337.389C602.856 337.389 603.387 337.231 603.847 336.944C604.322 336.642 604.695 336.225 604.954 335.708H605.011C605.011 335.88 605.026 336.01 605.026 336.081C605.026 337.231 604.796 338.194 604.35 338.956C603.876 339.746 603.244 340.148 602.453 340.148C601.246 340.148 600.542 339.559 600.326 338.395H599.162C599.435 340.22 600.528 341.14 602.439 341.14C603.589 341.14 604.508 340.594 605.198 339.53C605.83 338.496 606.161 337.174 606.161 335.535C606.161 333.955 605.859 332.719 605.256 331.856C604.623 330.937 603.689 330.477 602.453 330.477ZM602.482 331.468C603.186 331.468 603.761 331.713 604.192 332.201C604.609 332.661 604.824 333.25 604.824 333.969C604.824 334.673 604.595 335.262 604.163 335.722C603.704 336.182 603.143 336.412 602.482 336.412C601.764 336.412 601.203 336.182 600.786 335.736C600.355 335.305 600.154 334.716 600.154 333.998C600.154 333.25 600.355 332.647 600.786 332.173C601.217 331.698 601.778 331.468 602.482 331.468Z" fill="#253368"/>
<path d="M340.793 107.465C341.576 107.465 342.216 108.075 342.264 108.846L342.267 108.939V353.638C342.267 354.452 341.607 355.112 340.793 355.112C340.011 355.112 339.37 354.501 339.322 353.731L339.319 353.638V108.939C339.319 108.125 339.979 107.465 340.793 107.465Z" fill="#A3B5D6"/>
<path d="M430.516 194.688C431.42 193.919 432.778 194.079 433.483 195.014L433.549 195.107L491.344 281.116L536.686 249.485C536.966 249.29 537.289 249.168 537.627 249.129L537.754 249.119L595.905 246.106C597.037 246.047 598.002 246.918 598.061 248.05C598.118 249.146 597.304 250.085 596.226 250.198L596.117 250.206L538.552 253.189L491.981 285.68C491.071 286.315 489.829 286.109 489.169 285.234L489.102 285.141L431.423 199.305L363.81 256.778C362.976 257.487 361.739 257.413 360.994 256.63L360.916 256.543C360.207 255.709 360.281 254.472 361.064 253.727L361.151 253.649L430.516 194.688Z" fill="#FF7946"/>
<path d="M587.894 143.081C588.529 142.141 589.805 141.894 590.745 142.528C591.653 143.142 591.914 144.355 591.357 145.284L591.297 145.379L539.562 221.97C538.838 223.041 537.325 223.179 536.419 222.283L536.339 222.199L476.284 155.858L434.148 184.085C433.839 184.292 433.48 184.41 433.111 184.429L432.972 184.432L361.816 183.277C360.682 183.258 359.778 182.325 359.796 181.191C359.814 180.094 360.69 179.212 361.774 179.173L361.883 179.171L432.395 180.316L475.473 151.46C476.288 150.914 477.37 151.023 478.06 151.706L478.137 151.787L537.625 217.501L587.894 143.081Z" fill="#FAAD14"/>
<path d="M498.709 192.274C499.207 191.842 499.879 191.677 500.516 191.824L500.635 191.855L538.864 203.113L595.054 194.224C596.138 194.053 597.157 194.763 597.382 195.824L597.402 195.931C597.574 197.015 596.864 198.035 595.803 198.26L595.695 198.28L539.049 207.241C538.791 207.282 538.528 207.273 538.274 207.215L538.148 207.183L500.553 196.111L436.03 252.139C435.379 252.704 434.45 252.8 433.701 252.392L433.6 252.333L357.302 204.935C356.339 204.337 356.043 203.071 356.641 202.108C357.22 201.177 358.422 200.869 359.371 201.39L359.468 201.447L434.481 248.046L498.709 192.274Z" fill="#597EF7"/>
<path fill-rule="evenodd" clip-rule="evenodd" d="M208.646 203.166L212.799 187.408C212.799 187.408 219.835 174.556 222.473 175.29C224.929 176.313 219.486 180.054 218.458 183.668C220.775 183.46 219.784 186.929 219.784 186.929C219.784 186.929 221.63 186.828 221.184 189.649C222.916 190.633 221.601 193.884 221.601 193.884C221.601 193.884 218.309 202.446 214.595 208.183C214.595 208.183 208.352 213.187 208.646 203.166Z" fill="#997C79"/>
<path fill-rule="evenodd" clip-rule="evenodd" d="M209.536 197.851C209.536 197.851 210.101 192.462 210.546 189.714C210.992 186.966 209.746 182.04 211.766 183.315C213.125 184.172 212.945 187.119 212.936 189.289C212.927 191.461 216.524 196.541 213.977 200.148C212.256 202.585 209.478 202.952 209.536 197.851Z" fill="#997C79"/>
<path d="M218.61 183.503C218.701 183.586 218.707 183.728 218.624 183.819L218.498 183.96L218.338 184.143C218.282 184.209 218.224 184.278 218.163 184.35C217.816 184.764 217.469 185.206 217.145 185.659C216.826 186.105 216.547 186.538 216.32 186.946C215.521 188.385 215.462 189.316 216.272 189.637C216.387 189.683 216.444 189.813 216.398 189.928C216.353 190.043 216.222 190.1 216.107 190.054C214.936 189.59 215.013 188.376 215.928 186.728C216.164 186.304 216.452 185.858 216.781 185.398C217.112 184.936 217.465 184.484 217.819 184.062C217.912 183.951 218 183.848 218.082 183.754L218.293 183.516C218.377 183.425 218.519 183.419 218.61 183.503Z" fill="#604346"/>
<path d="M219.427 186.862C219.524 186.785 219.665 186.801 219.742 186.898C219.819 186.995 219.803 187.136 219.706 187.213L219.573 187.322L219.403 187.464C219.343 187.515 219.281 187.568 219.217 187.625C218.848 187.947 218.48 188.291 218.137 188.645C217.778 189.014 217.468 189.371 217.222 189.707C216.525 190.656 216.415 191.296 216.947 191.609C217.148 191.727 217.369 191.757 217.618 191.705C218.02 191.623 218.47 191.335 218.929 190.906C219.129 190.719 219.317 190.519 219.487 190.318L219.601 190.18C219.644 190.126 219.677 190.083 219.698 190.054C219.771 189.954 219.912 189.932 220.011 190.006C220.111 190.079 220.133 190.219 220.06 190.319L219.985 190.417C219.943 190.47 219.891 190.534 219.829 190.607C219.649 190.821 219.449 191.034 219.235 191.234C218.721 191.714 218.208 192.042 217.709 192.145C217.355 192.217 217.021 192.172 216.719 191.995C215.87 191.495 216.027 190.577 216.86 189.442C217.12 189.087 217.444 188.715 217.815 188.332C218.168 187.969 218.545 187.617 218.922 187.287L219.112 187.123L219.385 186.895C219.402 186.881 219.416 186.87 219.427 186.862Z" fill="#604346"/>
<path d="M220.53 189.645C220.652 189.623 220.768 189.704 220.79 189.826C220.811 189.948 220.73 190.065 220.608 190.086C220.222 190.154 219.744 190.505 219.181 191.193L219.021 191.392C217.972 192.728 217.772 193.595 218.155 193.81C218.556 194.035 219.448 193.608 220.008 192.776C220.163 192.545 220.517 192.748 220.395 192.999C219.668 194.501 218.796 195.51 217.673 196.3C217.447 196.459 217.213 196.608 216.95 196.763L216.71 196.902L215.942 197.325L215.706 197.458C214.096 198.382 213.448 199.181 213.108 201.052C213.086 201.174 212.969 201.255 212.847 201.233C212.725 201.21 212.645 201.094 212.667 200.972C213.043 198.907 213.8 198.015 215.601 197.002L216.41 196.557C216.463 196.527 216.514 196.498 216.565 196.469C216.885 196.285 217.156 196.115 217.415 195.933C218.072 195.471 218.638 194.93 219.137 194.246L219.265 194.066L219.188 194.106C218.756 194.323 218.324 194.381 217.996 194.231L217.936 194.201C217.178 193.776 217.49 192.549 218.834 190.909C219.459 190.146 220.019 189.735 220.53 189.645Z" fill="#604346"/>
<path d="M212.924 186.353C213.035 186.342 213.135 186.413 213.163 186.518L213.17 186.553L213.582 190.627L213.695 190.819C213.722 190.867 213.751 190.917 213.78 190.971C213.948 191.277 214.116 191.617 214.273 191.984C214.724 193.041 214.995 194.1 214.993 195.098C214.992 195.836 214.838 196.513 214.512 197.11C214.452 197.218 214.316 197.258 214.208 197.199C214.099 197.139 214.059 197.003 214.118 196.894C214.407 196.367 214.544 195.764 214.545 195.097C214.547 194.169 214.29 193.166 213.86 192.16C213.71 191.808 213.548 191.48 213.387 191.187L213.289 191.012C213.24 190.927 213.201 190.863 213.176 190.823C213.163 190.803 213.153 190.782 213.147 190.759L213.141 190.725L212.724 186.598C212.712 186.475 212.801 186.365 212.924 186.353Z" fill="#604346"/>
<path fill-rule="evenodd" clip-rule="evenodd" d="M100.721 251.625C97.078 249.271 95.958 244.452 98.19 240.733L116.979 209.409C119.672 204.921 125.547 203.555 129.944 206.395C134.34 209.236 135.509 215.152 132.525 219.452L111.691 249.457C109.218 253.019 104.365 253.979 100.721 251.625Z" fill="#ADC6FF"/>
<path fill-rule="evenodd" clip-rule="evenodd" d="M143.108 276.233L134.372 284.418L99.744 250.445C96.483 247.246 96.544 241.974 99.877 238.851C103.21 235.728 108.475 236.01 111.455 239.471L143.108 276.233Z" fill="#ADC6FF"/>
<path d="M141.764 278.544C141.884 278.431 142.074 278.437 142.186 278.558C142.289 278.667 142.293 278.833 142.203 278.947L142.173 278.98L133.685 286.934C133.564 287.046 133.375 287.04 133.262 286.92C133.16 286.81 133.156 286.644 133.246 286.53L133.276 286.498L141.764 278.544Z" fill="#597EF7"/>
<path d="M136.923 274.471C137.043 274.359 137.232 274.365 137.345 274.485C137.448 274.595 137.452 274.761 137.361 274.875L137.331 274.908L129.718 282.041C129.598 282.154 129.409 282.148 129.296 282.027C129.193 281.918 129.189 281.752 129.28 281.638L129.31 281.605L136.923 274.471Z" fill="#597EF7"/>
<path fill-rule="evenodd" clip-rule="evenodd" d="M132.494 283.056C132.845 283.43 133.434 283.45 133.809 283.099C134.184 282.747 134.203 282.158 133.852 281.783C133.501 281.408 132.912 281.389 132.536 281.74C132.162 282.092 132.143 282.68 132.494 283.056Z" fill="white"/>
<path fill-rule="evenodd" clip-rule="evenodd" d="M154.577 199.526L154.173 189.935L139.791 185.807L138.822 199.352C138.593 202.559 140.957 205.644 143.927 206.876C144.235 207.004 144.554 207.12 144.885 207.219C149.86 208.71 154.796 204.716 154.577 199.526Z" fill="#997C79"/>
<path fill-rule="evenodd" clip-rule="evenodd" d="M135.415 179.478C137.126 189.826 144.4 194.381 151.298 194.612C159.522 194.887 161.243 187.791 160.615 177.56C159.977 167.171 155.455 163.699 147.726 163.585C139.668 163.466 133.681 168.996 135.415 179.478Z" fill="#997C79"/>
<path fill-rule="evenodd" clip-rule="evenodd" d="M141.117 180.911C140.863 180.105 140.611 178.751 139.305 178.23C137.505 177.513 135.957 179.559 136.242 181.728C136.588 184.356 138.937 185.917 140.252 185.908C140.157 188.49 139.379 189.866 139.379 189.866C139.379 189.866 137.037 187.044 135.363 182.615C132.753 175.706 134.185 165.963 141.958 163.628C154.109 160.352 158.767 169.409 158.767 169.409L143.654 169.402L144.108 174.447C144.108 174.447 141.416 174.633 142.044 180.603L141.117 180.911Z" fill="#604346"/>
<path d="M152.098 175.274C152.263 175.269 152.401 175.398 152.407 175.563C152.412 175.714 152.304 175.843 152.159 175.867L152.119 175.872L147.463 176.035L146.003 176.508C145.859 176.555 145.705 176.486 145.641 176.354L145.626 176.316C145.58 176.172 145.648 176.018 145.781 175.955L145.818 175.94L147.319 175.454L147.401 175.439L152.098 175.274Z" fill="#604346"/>
<path fill-rule="evenodd" clip-rule="evenodd" d="M145.264 188.849C146.962 186.376 146.779 184.19 153.931 184.227C157.411 184.246 158.65 185.375 159.931 188.143C159.033 192.44 155.566 195.187 150.916 194.888C141.148 194.261 140.579 184.504 140.579 184.504C140.579 184.504 141.959 184.838 142.412 185.565C143.666 187.572 144.473 188.069 145.264 188.849Z" fill="#7C5B4D"/>
<path fill-rule="evenodd" clip-rule="evenodd" d="M156.384 186.222C156.384 186.222 153.861 186.407 149.989 186.096C149.989 186.096 150.577 187.69 153.365 187.672C155.552 187.658 156.384 186.222 156.384 186.222Z" fill="white"/>
<path d="M150.013 185.798C149.796 185.78 149.633 185.994 149.709 186.199C149.799 186.443 150.023 186.784 150.435 187.116C151.11 187.66 152.074 187.979 153.367 187.971C154.385 187.964 155.215 187.672 155.866 187.187C156.266 186.889 156.519 186.586 156.643 186.372C156.756 186.177 156.62 185.937 156.404 185.924L156.347 185.925L156.05 185.942L155.839 185.951C154.288 186.011 152.308 185.982 150.013 185.798ZM150.582 186.44L150.857 186.459C152.601 186.573 154.143 186.597 155.43 186.562L155.698 186.554L155.621 186.62C155.585 186.65 155.547 186.679 155.509 186.708C154.958 187.118 154.25 187.367 153.363 187.373C152.204 187.381 151.375 187.106 150.811 186.651C150.748 186.6 150.69 186.549 150.636 186.496L150.582 186.44Z" fill="#604346"/>
<path d="M155.489 175.411C155.53 175.252 155.694 175.156 155.853 175.197C156 175.235 156.092 175.375 156.075 175.522L156.067 175.562L155.647 177.179L156.91 183.234C157.034 183.827 156.61 184.389 156.015 184.441L155.95 184.445L152.171 184.538C152.006 184.542 151.869 184.411 151.865 184.246C151.862 184.095 151.971 183.967 152.116 183.944L152.157 183.94L155.936 183.847C156.175 183.841 156.354 183.634 156.332 183.402L156.325 183.356L155.047 177.233C155.041 177.203 155.04 177.173 155.043 177.142L155.051 177.097L155.489 175.411Z" fill="#604346"/>
<path d="M154.132 189.251C154.297 189.246 154.435 189.376 154.44 189.541C154.444 189.692 154.335 189.82 154.19 189.844L154.15 189.848L152.342 189.901C152.177 189.906 152.039 189.776 152.034 189.611C152.03 189.46 152.139 189.331 152.284 189.307L152.324 189.303L154.132 189.251Z" fill="#604346"/>
<path d="M159.976 175.025C160.141 175.018 160.28 175.147 160.287 175.312C160.293 175.463 160.186 175.592 160.041 175.618L160.001 175.622L156.014 175.784C155.849 175.79 155.71 175.662 155.704 175.497C155.697 175.346 155.805 175.217 155.95 175.191L155.99 175.187L159.976 175.025Z" fill="#604346"/>
<path d="M145.266 193.283C145.325 193.174 145.462 193.135 145.57 193.195C148.306 194.706 151.06 194.976 153.454 194.532C153.625 194.501 153.779 194.467 153.916 194.434L154.016 194.409C154.111 194.384 154.175 194.365 154.206 194.355C154.324 194.316 154.45 194.381 154.489 194.498C154.527 194.616 154.463 194.742 154.346 194.781L154.282 194.8C154.256 194.808 154.224 194.817 154.188 194.827L154.129 194.843C153.958 194.887 153.759 194.932 153.536 194.973C151.047 195.434 148.19 195.154 145.353 193.587C145.245 193.527 145.206 193.391 145.266 193.283Z" fill="#604346"/>
<path d="M138.243 179.346C138.564 179.297 138.921 179.33 139.263 179.507C139.867 179.82 140.254 180.508 140.336 181.63C140.345 181.746 140.263 181.85 140.148 181.868C139.568 181.961 139.293 182.194 139.261 182.504C139.231 182.788 139.408 183.139 139.706 183.384C139.802 183.463 139.816 183.604 139.737 183.7C139.659 183.795 139.517 183.809 139.422 183.731C139.015 183.397 138.768 182.906 138.815 182.458C138.864 181.99 139.209 181.644 139.806 181.483L139.87 181.467L139.866 181.428C139.77 180.635 139.499 180.164 139.113 179.936L139.057 179.905C138.811 179.777 138.546 179.753 138.31 179.789L138.249 179.8C138.13 179.832 138.007 179.761 137.975 179.641C137.943 179.521 138.015 179.399 138.134 179.367L138.179 179.357C138.197 179.353 138.219 179.349 138.243 179.346Z" fill="#604346"/>
<path d="M150 178.417C150.165 178.415 150.3 178.548 150.301 178.713C150.306 179.606 149.747 180.362 149.003 180.367C148.258 180.371 147.689 179.623 147.684 178.73C147.683 178.565 147.815 178.431 147.981 178.43C148.146 178.429 148.28 178.562 148.281 178.727C148.285 179.321 148.628 179.771 148.999 179.769C149.37 179.767 149.707 179.311 149.703 178.717C149.702 178.552 149.835 178.418 150 178.417Z" fill="#604346"/>
<path d="M158.749 178.191C158.914 178.19 159.048 178.323 159.05 178.488C159.055 179.381 158.496 180.137 157.752 180.142C157.007 180.146 156.438 179.398 156.432 178.505C156.431 178.34 156.564 178.206 156.729 178.205C156.894 178.204 157.029 178.336 157.03 178.501C157.034 179.095 157.377 179.546 157.748 179.544C158.119 179.542 158.456 179.086 158.452 178.492C158.451 178.327 158.584 178.192 158.749 178.191Z" fill="#604346"/>
<path fill-rule="evenodd" clip-rule="evenodd" d="M179.6 411.647C179.6 411.647 184.508 421.482 194.529 423.218C201.09 424.355 194.693 430.595 183.178 428.634C176.614 427.516 177.951 424.141 174.32 424.225C172.215 424.273 167.956 423.291 167.709 421.704C167.28 418.93 167.164 418.153 166.874 414.905C165.159 395.663 172.682 394.805 179.6 411.647Z" fill="#253368"/>
<path fill-rule="evenodd" clip-rule="evenodd" d="M130.176 265.683C130.176 265.683 159.445 266.062 163.445 266.038C165.529 266.025 168.859 279.735 169.925 288.31C168.51 290.944 154.628 295.349 148.646 297.866C146.384 298.817 144.358 298.191 144.358 298.191C141.403 298.868 123.986 288.609 123.986 288.609C123.986 288.609 125.289 273.343 130.176 265.683Z" fill="#4E5C93"/>
<path fill-rule="evenodd" clip-rule="evenodd" d="M164.151 262.387L164.177 266.425C164.177 266.425 161.214 268.51 149.942 268.92C139.096 269.314 129.73 266.134 129.73 266.134L130.598 261.641C130.598 261.641 144.152 266.555 164.151 262.387Z" fill="black"/>
<path fill-rule="evenodd" clip-rule="evenodd" d="M154.496 267.767L154.565 264.833C154.584 264.007 153.93 263.338 153.14 263.383C151.246 263.487 147.899 263.616 145.474 263.392C144.681 263.319 144.004 263.981 144.009 264.812L144.029 267.81C144.034 268.511 144.526 269.1 145.19 269.204C146.767 269.452 149.808 269.744 153.351 269.135C153.997 269.023 154.481 268.45 154.496 267.767Z" fill="#E4EBF7"/>
<path fill-rule="evenodd" clip-rule="evenodd" d="M153.28 267.373L153.334 265.298C153.349 264.713 152.845 264.241 152.235 264.272C150.774 264.348 148.192 264.44 146.32 264.282C145.709 264.23 145.187 264.7 145.191 265.288L145.204 267.408C145.207 267.904 145.588 268.32 146.099 268.394C147.316 268.568 149.662 268.774 152.396 268.341C152.894 268.262 153.267 267.856 153.28 267.373Z" fill="black"/>
<path fill-rule="evenodd" clip-rule="evenodd" d="M195.039 246.901C191.845 249.835 186.899 249.707 183.861 246.611L158.272 220.545C154.605 216.81 154.761 210.78 158.616 207.24C162.471 203.7 168.492 204.057 171.902 208.027L195.7 235.738C198.527 239.028 198.234 243.967 195.039 246.901Z" fill="#ADC6FF"/>
<path fill-rule="evenodd" clip-rule="evenodd" d="M207.981 200.302L217.685 206.047L197.169 245.431C194.944 249.4 189.866 250.726 185.984 248.352C182.074 245.961 180.958 240.786 183.535 236.996L207.981 200.302Z" fill="#ADC6FF"/>
<path d="M207.8 200.194C207.879 200.065 208.04 200.018 208.175 200.077L208.211 200.096L217.168 205.629C217.309 205.716 217.352 205.9 217.266 206.04C217.186 206.169 217.025 206.216 216.89 206.156L216.854 206.137L207.897 200.605C207.756 200.518 207.713 200.334 207.8 200.194Z" fill="#597EF7"/>
<path d="M205.78 205.278C205.859 205.149 206.02 205.101 206.155 205.16L206.191 205.179L215.092 210.623C215.232 210.709 215.277 210.893 215.191 211.033C215.112 211.163 214.95 211.211 214.816 211.151L214.78 211.133L205.879 205.689C205.738 205.603 205.694 205.419 205.78 205.278Z" fill="#597EF7"/>
<path fill-rule="evenodd" clip-rule="evenodd" d="M213.531 206.257C213.799 205.818 214.372 205.68 214.81 205.948C215.248 206.217 215.386 206.789 215.118 207.228C214.85 207.666 214.277 207.804 213.839 207.536C213.4 207.268 213.262 206.696 213.531 206.257Z" fill="white"/>
<path fill-rule="evenodd" clip-rule="evenodd" d="M165.617 351.307C170.748 350.704 174.489 346.159 174.094 341.008L170.111 288.984C169.601 282.328 163.656 277.434 157.026 278.213C150.396 278.992 145.747 285.132 146.795 291.725L154.983 343.254C155.793 348.357 160.486 351.91 165.617 351.307Z" fill="#4E5C93"/>
<path fill-rule="evenodd" clip-rule="evenodd" d="M165.812 411.818L155.253 345.293C154.438 339.94 158.239 334.983 163.621 334.382C168.943 333.789 173.71 337.693 174.176 343.028L179.436 410.26C179.436 410.26 174.326 414.03 165.812 411.818Z" fill="#4E5C93"/>
<path fill-rule="evenodd" clip-rule="evenodd" d="M107.221 412.763C107.221 412.763 103.032 422.925 93.1609 425.376C86.6979 426.981 93.5269 432.746 104.871 429.963C111.339 428.377 109.763 425.106 113.39 424.929C115.494 424.826 119.672 423.541 119.803 421.94C120.032 419.143 120.092 418.359 120.148 415.099C120.478 395.784 112.912 395.467 107.221 412.763Z" fill="#253368"/>
<path fill-rule="evenodd" clip-rule="evenodd" d="M125.324 350.216C120.228 349.367 116.711 344.646 117.353 339.52L123.843 287.749C124.674 281.126 130.85 276.524 137.434 277.623C144.018 278.721 148.365 285.078 147.001 291.612L136.334 342.687C135.278 347.744 130.419 351.066 125.324 350.216Z" fill="#4E5C93"/>
<path fill-rule="evenodd" clip-rule="evenodd" d="M122.032 412.274L135.945 345.014C137.009 339.704 133.441 334.576 128.093 333.727C122.804 332.886 117.861 336.565 117.147 341.873L107.907 409.931C107.907 409.931 113.425 414.089 122.032 412.274Z" fill="#4E5C93"/>
<path d="M189.147 228.222C189.238 228.084 189.423 228.046 189.561 228.136C189.686 228.219 189.729 228.379 189.668 228.511L189.646 228.55L186.314 233.62C186.223 233.758 186.038 233.796 185.9 233.706C185.775 233.623 185.732 233.463 185.793 233.33L185.815 233.292L189.147 228.222Z" fill="#597EF7"/>
<path d="M154.949 295.521C155.109 295.482 155.271 295.581 155.31 295.741C155.345 295.888 155.266 296.036 155.129 296.09L155.09 296.102L145.826 298.35C145.666 298.388 145.504 298.29 145.465 298.13C145.43 297.983 145.509 297.835 145.646 297.781L145.685 297.769L154.949 295.521Z" fill="black"/>
<path fill-rule="evenodd" clip-rule="evenodd" d="M165.916 255.195C165.916 255.195 173.342 222.611 169.727 206.191C166.38 205.269 162.644 203.881 155.279 201.693C153.727 201.232 149.911 204.385 147.999 204.306C145.171 204.19 142.695 201.195 140.007 201.463C126.961 202.767 120.798 206.148 120.798 206.148L123.971 231.057L129.31 253.763C129.31 253.763 125.137 261.046 135.097 263.407C144.311 265.59 158.943 265.488 164.448 262.273C166.846 260.872 167.111 258.303 165.916 255.195Z" fill="#ADC6FF"/>
<path fill-rule="evenodd" clip-rule="evenodd" d="M154.501 199.511L157.236 202.947L153.316 210.381L147.134 204.28L154.501 199.511Z" fill="#ADC6FF"/>
<path fill-rule="evenodd" clip-rule="evenodd" d="M147.134 204.279L138.742 199.414L135.941 202.757L141.558 209.974L147.134 204.279Z" fill="#ADC6FF"/>
<path fill-rule="evenodd" clip-rule="evenodd" d="M151.85 209.066L147.132 204.328L142.478 209.211L145.228 213.873L150.511 213.778L151.85 209.066Z" fill="#253368"/>
<path fill-rule="evenodd" clip-rule="evenodd" d="M150.482 213.738L145.258 213.674L142.769 245.422C142.714 246.11 142.906 246.794 143.309 247.354L148.462 254.515C149.32 255.707 151.117 255.635 151.877 254.378L156.244 247.151C156.619 246.531 156.749 245.794 156.61 245.082L150.482 213.738Z" fill="#253368"/>
<path d="M135.757 202.52C135.876 202.428 136.042 202.439 136.147 202.54L136.177 202.573L141.584 209.522L146.92 204.118C147.024 204.013 147.187 204.001 147.305 204.084L147.339 204.111L153.261 209.747L156.972 202.806C157.044 202.672 157.202 202.615 157.34 202.667L157.377 202.683C157.51 202.755 157.568 202.913 157.516 203.051L157.5 203.088L153.603 210.375C153.516 210.537 153.309 210.581 153.165 210.478L153.133 210.451L147.139 204.746L141.771 210.185C141.655 210.302 141.468 210.302 141.352 210.191L141.322 210.158L135.705 202.94C135.604 202.809 135.627 202.622 135.757 202.52Z" fill="#597EF7"/>
<path d="M150.091 213.64C150.202 213.64 150.291 213.728 150.292 213.838C150.293 213.936 150.223 214.018 150.13 214.035L150.094 214.039L145.542 214.068C145.432 214.069 145.343 213.98 145.342 213.87C145.341 213.772 145.411 213.691 145.504 213.673L145.54 213.67L150.091 213.64Z" fill="#597EF7"/>
<path d="M170.306 215.312C170.471 215.307 170.609 215.436 170.614 215.601C170.698 218.252 170.655 221.076 170.496 224.052C170.168 230.207 169.361 236.785 168.221 243.455C167.689 246.571 167.118 249.503 166.548 252.164L166.372 252.974C166.258 253.497 166.149 253.981 166.047 254.426L165.898 255.065L165.814 255.417L165.874 255.529L165.906 255.594C166.018 255.815 166.13 256.065 166.234 256.336C166.642 257.397 166.824 258.483 166.648 259.51C166.41 260.906 165.528 262.033 163.9 262.773C163.75 262.842 163.573 262.775 163.505 262.625C163.436 262.475 163.503 262.297 163.653 262.229C165.102 261.57 165.855 260.609 166.059 259.41C166.214 258.505 166.049 257.52 165.677 256.55C165.58 256.298 165.476 256.068 165.373 255.863L165.293 255.71C165.27 255.668 165.252 255.637 165.24 255.616C165.199 255.548 165.187 255.467 165.206 255.391L165.347 254.797L165.516 254.068C165.654 253.459 165.804 252.781 165.964 252.038C166.532 249.386 167.101 246.462 167.632 243.354C168.768 236.705 169.572 230.15 169.899 224.02C170.057 221.061 170.1 218.253 170.017 215.62C170.012 215.455 170.141 215.317 170.306 215.312Z" fill="#597EF7"/>
<path d="M128.054 224.302C128.144 224.164 128.33 224.126 128.468 224.217C128.593 224.299 128.636 224.46 128.575 224.592L128.553 224.63L124.221 231.221C124.13 231.359 123.945 231.398 123.807 231.307C123.681 231.225 123.638 231.064 123.7 230.932L123.721 230.893L128.054 224.302Z" fill="#597EF7"/>
<path d="M121.645 205.533C121.936 205.558 122.426 205.668 123.047 205.924C124.071 206.346 125.091 207.036 126.041 208.051C127.6 209.718 128.811 212.099 129.545 215.306C129.582 215.467 129.481 215.627 129.321 215.664C129.16 215.701 128.999 215.6 128.963 215.44C128.251 212.332 127.088 210.046 125.604 208.459C124.715 207.508 123.766 206.867 122.819 206.476C122.49 206.341 122.186 206.246 121.915 206.185L121.791 206.159C121.698 206.141 121.632 206.132 121.594 206.128C121.43 206.115 121.308 205.97 121.322 205.806C121.334 205.655 121.457 205.54 121.604 205.532L121.645 205.533Z" fill="#597EF7"/>
<path fill-rule="evenodd" clip-rule="evenodd" d="M651.119 207.052L651.723 191.676L665.563 192.104L666.66 206.774C667 211.205 663.56 215.016 659.118 215.14C654.613 215.267 650.942 211.554 651.119 207.052Z" fill="#FFC999"/>
<path fill-rule="evenodd" clip-rule="evenodd" d="M648.097 190.149C648.097 190.149 645.915 188.028 645.072 189.529C644.229 191.028 645.953 196.241 648.247 196.306C651.311 196.391 648.097 190.149 648.097 190.149Z" fill="#FFC999"/>
<path fill-rule="evenodd" clip-rule="evenodd" d="M661.847 203.209C661.847 203.209 657.47 207.029 651.404 203.568C647.037 201.077 646.212 191.589 646.82 184.588C647.164 180.626 648.918 178.446 652.73 177.158C656.543 175.87 666.98 175.508 667.4 187.121C667.88 200.056 661.847 203.209 661.847 203.209Z" fill="#FFC999"/>
<path d="M653.555 186.216C653.655 186.188 653.759 186.236 653.803 186.326L653.817 186.362L654.515 188.798C654.52 188.818 654.523 188.839 654.523 188.86L654.52 188.891L653.452 195.301L655.98 195.244C656.085 195.242 656.174 195.317 656.193 195.417L656.196 195.451C656.199 195.557 656.124 195.646 656.024 195.664L655.989 195.668L653.205 195.73C653.085 195.733 652.989 195.635 652.989 195.519L652.992 195.483L654.094 188.869L653.409 186.478C653.381 186.378 653.429 186.274 653.519 186.23L653.555 186.216Z" fill="#DD936F"/>
<path d="M656.781 184.969L656.835 184.971L658.934 185.145L659.422 185.181C660.832 185.28 661.739 185.288 662.181 185.186C662.485 185.116 662.788 185.305 662.859 185.609C662.929 185.913 662.739 186.217 662.435 186.287C661.826 186.427 660.821 186.416 659.202 186.298L658.353 186.231L656.826 186.103C656.8 186.101 656.773 186.099 656.747 186.097C656.436 186.073 656.204 185.801 656.228 185.49C656.251 185.197 656.493 184.974 656.781 184.969Z" fill="#253368"/>
<path d="M657.971 197.02C658.128 196.975 658.292 197.065 658.338 197.222C658.383 197.379 658.293 197.543 658.136 197.589L657.993 197.626C657.961 197.634 657.925 197.643 657.885 197.652C657.686 197.697 657.454 197.743 657.191 197.785C656.035 197.97 654.686 198.038 653.185 197.918C653.023 197.905 652.901 197.762 652.914 197.599C652.927 197.436 653.07 197.315 653.233 197.328C654.683 197.444 655.986 197.379 657.097 197.201C657.297 197.169 657.477 197.135 657.637 197.101L657.85 197.052C657.907 197.038 657.947 197.027 657.971 197.02Z" fill="#FF7946"/>
<path fill-rule="evenodd" clip-rule="evenodd" d="M666.24 192.141L668.36 187.595C668.36 187.595 669.59 181.097 668.01 178.37C665.549 174.138 660.248 174.424 657.063 173.377C653.878 172.329 653.873 171.268 652.602 171.485C651.33 171.703 646.496 175.311 646.057 178.934C645.671 182.121 646.737 190.172 646.737 190.172C646.737 190.172 647.399 182.99 648.027 181.08C650.489 179.957 659.554 179.614 663.375 180.659C663.375 180.659 663.781 183.083 664.026 184.792C666.1 186.177 666.24 192.141 666.24 192.141Z" fill="#253368"/>
<path d="M665.542 197.719C665.6 197.617 665.729 197.582 665.831 197.64C665.932 197.698 665.968 197.827 665.91 197.929C664.925 199.655 663.873 201.052 662.76 202.14C659.392 205.438 655.788 205.747 652.48 204.291C652.082 204.116 651.726 203.928 651.417 203.741C651.335 203.691 651.261 203.644 651.194 203.6L651.044 203.497C651.038 203.492 651.032 203.488 651.027 203.485C650.933 203.415 650.914 203.282 650.984 203.188C651.054 203.094 651.187 203.075 651.281 203.145L651.337 203.186C651.404 203.233 651.505 203.298 651.636 203.378C651.931 203.557 652.271 203.736 652.65 203.903C655.813 205.295 659.232 205.002 662.464 201.838C663.547 200.778 664.576 199.412 665.542 197.719Z" fill="#DD936F"/>
<path d="M653.825 188.465L655.874 188.483C656.108 188.486 656.296 188.677 656.294 188.911C656.292 189.129 656.125 189.308 655.913 189.329L655.867 189.331L653.817 189.313C653.583 189.31 653.395 189.119 653.397 188.885C653.399 188.667 653.566 188.488 653.779 188.467L653.825 188.465Z" fill="#253368"/>
<path d="M654.503 189.575C654.907 189.539 655.321 189.626 655.725 189.79C655.927 189.872 656.084 189.955 656.18 190.015C656.379 190.138 656.439 190.4 656.315 190.598C656.192 190.797 655.93 190.858 655.732 190.734L655.669 190.698C655.605 190.663 655.515 190.619 655.406 190.575C655.116 190.457 654.828 190.396 654.578 190.419C654.386 190.436 654.225 190.501 654.087 190.625L654.037 190.675C653.876 190.844 653.608 190.852 653.438 190.691C653.268 190.53 653.26 190.262 653.421 190.092C653.717 189.779 654.089 189.612 654.503 189.575Z" fill="#253368"/>
<path d="M649.523 184.643C650.435 184.575 651.391 184.748 652.333 185.075C652.811 185.241 653.181 185.409 653.4 185.525C653.675 185.672 653.78 186.014 653.633 186.29C653.486 186.565 653.144 186.669 652.869 186.523L652.78 186.478C652.741 186.459 652.691 186.435 652.632 186.409C652.432 186.318 652.206 186.227 651.962 186.142C651.154 185.861 650.343 185.715 649.607 185.769C649.041 185.812 648.547 185.972 648.131 186.265C647.876 186.445 647.524 186.384 647.344 186.129C647.164 185.874 647.225 185.522 647.48 185.342C648.073 184.924 648.764 184.699 649.523 184.643Z" fill="#253368"/>
<path d="M656.159 199.387C656.276 199.387 656.371 199.481 656.372 199.598C656.372 199.704 656.296 199.791 656.195 199.808L656.161 199.811L654.491 199.817C654.374 199.818 654.278 199.723 654.278 199.606C654.277 199.501 654.354 199.413 654.455 199.397L654.489 199.394L656.159 199.387Z" fill="#DD936F"/>
<path d="M666.82 188.405C667.05 188.403 667.25 188.591 667.25 188.825C667.25 189.043 667.09 189.225 666.87 189.25L666.83 189.253L663.468 189.285C663.234 189.287 663.042 189.099 663.04 188.865C663.038 188.647 663.201 188.465 663.413 188.44L663.46 188.437L666.82 188.405Z" fill="#253368"/>
<path fill-rule="evenodd" clip-rule="evenodd" d="M663.209 188.198L656.793 188.224C656.345 188.225 655.983 188.589 655.988 189.037C655.998 189.872 656.05 191.212 656.272 192.359C656.533 193.711 657.753 194.534 659.129 194.593C660.848 194.665 662.391 194.661 663.167 193.766C664.35 192.402 664.05 190.167 664.019 188.982C664.009 188.547 663.644 188.196 663.209 188.198Z" fill="white"/>
<path d="M663.209 188.057L656.793 188.082C656.266 188.084 655.842 188.512 655.847 189.038C655.861 190.243 655.945 191.411 656.133 192.385C656.398 193.752 657.621 194.669 659.123 194.733L659.437 194.745C661.577 194.816 662.601 194.633 663.273 193.858C663.782 193.272 664.059 192.506 664.165 191.567C664.227 191.021 664.23 190.525 664.195 189.758L664.162 189.024C664.161 189.01 664.161 188.995 664.161 188.978C664.148 188.467 663.721 188.055 663.209 188.057ZM656.794 188.365L663.21 188.339C663.569 188.338 663.87 188.628 663.878 188.985L663.892 189.34L663.905 189.603C663.947 190.454 663.948 190.97 663.884 191.536C663.784 192.422 663.526 193.136 663.06 193.673C662.437 194.392 661.399 194.546 659.135 194.451C657.756 194.393 656.648 193.562 656.41 192.332C656.226 191.377 656.143 190.225 656.129 189.035C656.125 188.666 656.423 188.366 656.794 188.365Z" fill="#253368"/>
<path fill-rule="evenodd" clip-rule="evenodd" d="M653.202 188.167L645.938 188.196C645.673 189.258 645.949 193.362 647.199 194.237C648.872 195.105 652.244 194.713 652.764 193.82C653.555 192.464 653.839 189.884 653.82 188.774C653.815 188.436 653.54 188.166 653.202 188.167Z" fill="white"/>
<path d="M653.201 188.025L645.937 188.054C645.873 188.055 645.817 188.099 645.801 188.161C645.416 189.705 646.001 193.571 647.118 194.352C648.795 195.224 652.294 194.907 652.886 193.89C653.571 192.717 653.987 190.345 653.961 188.771C653.955 188.356 653.617 188.024 653.201 188.025ZM646.051 188.336L653.202 188.308C653.463 188.307 653.675 188.515 653.679 188.776C653.704 190.303 653.296 192.627 652.642 193.748C652.14 194.61 648.807 194.912 647.263 194.111L647.208 194.069C646.298 193.313 645.764 189.921 646.038 188.403L646.051 188.336Z" fill="#253368"/>
<path d="M663.893 187.816C664.127 187.809 664.322 187.993 664.329 188.227C664.336 188.445 664.176 188.63 663.965 188.659L663.919 188.663L655.966 188.903C655.732 188.91 655.537 188.726 655.53 188.492C655.523 188.274 655.683 188.089 655.894 188.06L655.94 188.056L663.893 187.816Z" fill="#253368"/>
<path d="M645.883 187.932L653.678 188.011C653.912 188.013 654.099 188.205 654.097 188.439C654.095 188.657 653.928 188.835 653.715 188.856L653.669 188.858L645.875 188.78C645.641 188.777 645.453 188.586 645.455 188.352C645.457 188.133 645.624 187.955 645.837 187.934L645.883 187.932Z" fill="#253368"/>
<path fill-rule="evenodd" clip-rule="evenodd" d="M667.14 188.493C667.92 187.614 669.18 187.324 670.13 188.259C671.64 189.764 670.56 195.654 666.66 196.069C665.166 195.929 665.92 189.866 667.14 188.493Z" fill="#FFC999"/>
<path d="M668.81 188.955C668.92 188.909 669.04 188.959 669.09 189.066C669.13 189.174 669.08 189.298 668.98 189.344L668.92 189.37C668.89 189.387 668.84 189.41 668.79 189.44C668.65 189.522 668.51 189.622 668.37 189.738C667.9 190.149 667.68 190.647 667.83 191.249C667.87 191.41 667.94 191.485 668.1 191.575L668.19 191.629C668.52 191.801 668.67 191.954 668.72 192.305C668.79 192.838 668.54 193.249 668.12 193.539C667.9 193.686 667.68 193.773 667.53 193.813C667.42 193.843 667.3 193.776 667.27 193.663C667.24 193.549 667.31 193.433 667.42 193.403L667.49 193.382C667.51 193.374 667.53 193.366 667.56 193.355C667.67 193.312 667.78 193.256 667.88 193.188C668.18 192.98 668.34 192.713 668.3 192.36C668.27 192.191 668.23 192.129 668.05 192.032L667.95 191.981C667.66 191.825 667.5 191.67 667.42 191.354C667.23 190.576 667.51 189.925 668.09 189.418C668.25 189.283 668.42 189.168 668.58 189.072C668.68 189.015 668.76 188.976 668.81 188.955Z" fill="#DD936F"/>
<path fill-rule="evenodd" clip-rule="evenodd" d="M651.192 190.115C651.217 190.758 650.84 191.296 650.35 191.315C649.86 191.334 649.441 190.828 649.416 190.184C649.391 189.541 649.768 189.003 650.258 188.984C650.748 188.965 651.167 189.471 651.192 190.115Z" fill="#253368"/>
<path fill-rule="evenodd" clip-rule="evenodd" d="M660.424 190.251C660.45 190.895 660.073 191.432 659.582 191.451C659.092 191.47 658.674 190.964 658.648 190.321C658.624 189.677 659 189.139 659.491 189.12C659.981 189.101 660.399 189.607 660.424 190.251Z" fill="#253368"/>
<path fill-rule="evenodd" clip-rule="evenodd" d="M622.861 262.725C619.179 261.118 617.392 256.916 618.789 253.15L631.443 219.032C633.304 214.014 639 211.592 643.906 213.733C648.752 215.849 650.869 221.571 648.564 226.331L632.708 259.084C630.936 262.745 626.588 264.353 622.861 262.725Z" fill="#FFC999"/>
<path fill-rule="evenodd" clip-rule="evenodd" d="M638.513 247.532L622.225 240.422L631.352 218.453C633.35 213.645 638.903 211.409 643.675 213.492C648.447 215.575 650.584 221.167 648.416 225.902L638.513 247.532Z" fill="#597EF7"/>
<path d="M622.852 241.018C622.905 240.883 623.05 240.811 623.187 240.845L623.224 240.857L639.485 247.272C639.632 247.33 639.705 247.497 639.646 247.644C639.593 247.779 639.449 247.851 639.312 247.817L639.274 247.805L623.013 241.39C622.866 241.332 622.794 241.165 622.852 241.018Z" fill="#253368"/>
<path fill-rule="evenodd" clip-rule="evenodd" d="M626.194 425.518C618.539 428.543 614.752 423.853 614.752 423.853C614.752 423.853 614.573 422.238 615.94 420.467C617.652 418.251 621.368 417.533 625.849 413.321C629.292 410.085 631.63 404.981 631.63 404.981C634.144 401.446 641.658 404.721 641.658 404.721C641.658 404.721 641.769 413.318 641.516 417.559C641.516 417.559 641.183 419.889 635.346 420.594C630.978 421.12 630.778 423.706 626.194 425.518Z" fill="#4E5C93"/>
<path fill-rule="evenodd" clip-rule="evenodd" d="M642.889 406.873L652.477 342.598C653.205 337.039 649.213 331.972 643.639 331.376C638.064 330.781 633.093 334.892 632.63 340.478L627.275 405.072C627.275 405.072 634.97 409.193 642.889 406.873Z" fill="#ADC6FF"/>
<path fill-rule="evenodd" clip-rule="evenodd" d="M641.532 350.294C636.137 349.718 632.2 344.921 632.688 339.517L637.321 288.181C637.862 282.18 643.216 277.787 649.207 278.427C655.197 279.067 659.502 284.491 658.764 290.47L652.453 341.627C651.788 347.013 646.928 350.87 641.532 350.294Z" fill="#ADC6FF"/>
<path fill-rule="evenodd" clip-rule="evenodd" d="M681.49 425.612C689.15 428.608 692.92 423.904 692.92 423.904C692.92 423.904 693.09 422.288 691.72 420.523C690 418.313 686.28 417.609 681.78 413.413C678.33 410.19 675.97 405.096 675.97 405.096C673.44 401.57 665.801 406.048 665.801 406.048C665.801 406.048 665.865 413.47 666.13 417.71C666.13 417.71 666.48 420.04 672.31 420.722C676.68 421.233 676.89 423.818 681.49 425.612Z" fill="#4E5C93"/>
<path fill-rule="evenodd" clip-rule="evenodd" d="M661.932 406.129L658.693 341.395C658.413 335.796 662.797 331.063 668.4 330.916C674.01 330.769 678.63 335.263 678.65 340.869L677.64 405.691C677.64 405.691 669.64 409.075 661.932 406.129Z" fill="#ADC6FF"/>
<path fill-rule="evenodd" clip-rule="evenodd" d="M668.92 350.529C674.34 350.386 678.65 345.919 678.6 340.494L678.08 288.951C678.02 282.927 673.04 278.119 667.01 278.278C660.992 278.437 656.267 283.499 656.525 289.519L658.725 341.017C658.957 346.438 663.493 350.671 668.92 350.529Z" fill="#ADC6FF"/>
<path fill-rule="evenodd" clip-rule="evenodd" d="M675.53 259.167C675.53 259.167 677.96 242.74 679.25 236.19C680.55 229.64 682.92 213.95 680.19 212.893C677.46 211.835 670.33 209.681 670.33 209.681C670.33 209.681 664.621 209.9 658.918 211.352C654.403 212.501 654.921 209.616 649.437 210.745C647.114 211.224 636.87 211.705 636.567 213.945C633.56 236.181 639.71 262.78 639.71 262.78C639.71 262.78 637.614 265.11 640.377 267.917C641.288 268.824 647.406 268.543 654.678 268.274C662.957 267.968 673.25 267.471 674.48 266.978C678.45 265.389 675.53 259.167 675.53 259.167Z" fill="#597EF7"/>
<path fill-rule="evenodd" clip-rule="evenodd" d="M651.935 207.235L657.395 211.518L651.694 217.885L648.423 210.678L651.935 207.235Z" fill="#597EF7"/>
<path fill-rule="evenodd" clip-rule="evenodd" d="M657.263 211.668L662.773 218.776L670.09 209.455L666.7 205.71L657.263 211.668Z" fill="#597EF7"/>
<path d="M656.785 212.772C656.835 212.616 657.002 212.531 657.157 212.582C657.313 212.632 657.398 212.799 657.348 212.954L657.321 213.044C657.306 213.096 657.286 213.166 657.264 213.254L657.246 213.323C657.162 213.652 657.068 214.067 656.967 214.575L656.9 214.92C656.632 216.33 656.365 218.129 656.114 220.359L656.053 220.907C655.486 226.164 655.09 232.966 654.938 241.507L654.922 242.413C654.778 251.687 655.209 259.62 655.886 265.528C655.904 265.69 655.788 265.837 655.626 265.855C655.463 265.874 655.316 265.757 655.298 265.595L655.23 264.985C654.601 259.225 654.205 251.66 654.324 242.875L654.346 241.496C654.504 232.638 654.924 225.642 655.526 220.293L655.589 219.741C655.834 217.658 656.093 215.967 656.352 214.632L656.386 214.459C656.478 213.999 656.564 213.611 656.643 213.293L656.709 213.036C656.743 212.909 656.768 212.822 656.785 212.772Z" fill="#253368"/>
<path d="M663.747 225.766L663.477 225.854C663.354 225.895 663.272 226.012 663.275 226.141L663.292 226.816C663.343 228.699 663.42 230.324 663.515 231.708L663.56 232.329C663.606 232.924 663.654 233.44 663.702 233.881L663.718 234.026C663.738 234.198 663.756 234.348 663.773 234.477L663.804 234.699C663.807 234.72 663.81 234.737 663.812 234.749C663.826 234.833 663.875 234.907 663.947 234.952L668.47 237.787C668.57 237.847 668.69 237.847 668.79 237.788L674.37 234.371C674.45 234.319 674.5 234.229 674.51 234.13L674.84 225.343C674.85 225.196 674.75 225.067 674.6 225.041L674.44 225.013L674.32 224.994C674.09 224.96 673.82 224.926 673.53 224.895C670.43 224.564 666.99 224.732 663.747 225.766ZM673.46 225.483L673.63 225.502L673.89 225.533C673.97 225.543 674.05 225.553 674.12 225.564L674.24 225.582L673.92 233.949L668.63 237.188L664.376 234.522L664.334 234.196L664.306 233.959C664.248 233.447 664.191 232.824 664.135 232.083L664.089 231.422L664.057 230.916C663.99 229.798 663.934 228.538 663.893 227.128L663.872 226.347L663.927 226.33C667.08 225.325 670.44 225.161 673.46 225.483Z" fill="#253368"/>
<path fill-rule="evenodd" clip-rule="evenodd" d="M657.17 217.316C657.182 217.843 657.548 218.262 657.987 218.252C658.426 218.241 658.773 217.806 658.76 217.279C658.748 216.752 658.382 216.333 657.943 216.343C657.504 216.354 657.158 216.789 657.17 217.316Z" fill="white"/>
<path fill-rule="evenodd" clip-rule="evenodd" d="M656.284 227.042C656.296 227.569 656.662 227.988 657.101 227.978C657.54 227.968 657.886 227.532 657.874 227.005C657.861 226.478 657.496 226.059 657.056 226.069C656.617 226.08 656.271 226.515 656.284 227.042Z" fill="white"/>
<path fill-rule="evenodd" clip-rule="evenodd" d="M655.892 237.552C655.905 238.079 656.271 238.498 656.71 238.488C657.149 238.477 657.495 238.042 657.483 237.515C657.47 236.988 657.104 236.569 656.665 236.579C656.226 236.59 655.88 237.025 655.892 237.552Z" fill="white"/>
<path fill-rule="evenodd" clip-rule="evenodd" d="M656.199 248.178C656.211 248.705 656.577 249.124 657.016 249.114C657.455 249.103 657.801 248.668 657.789 248.141C657.776 247.614 657.411 247.195 656.971 247.205C656.532 247.216 656.186 247.651 656.199 248.178Z" fill="white"/>
<path fill-rule="evenodd" clip-rule="evenodd" d="M656.427 260.451C656.44 260.978 656.805 261.397 657.244 261.387C657.683 261.376 658.03 260.941 658.017 260.414C658.005 259.887 657.639 259.468 657.2 259.478C656.761 259.489 656.415 259.924 656.427 260.451Z" fill="white"/>
<path d="M669.77 209.552C669.87 209.423 670.06 209.4 670.19 209.501C670.3 209.593 670.33 209.755 670.26 209.88L670.24 209.916L663.165 218.954C663.056 219.094 662.854 219.105 662.729 218.988L662.7 218.956L657.118 211.932C657.016 211.804 657.037 211.617 657.165 211.516C657.282 211.423 657.446 211.433 657.551 211.531L657.581 211.563L662.93 218.294L669.77 209.552Z" fill="#253368"/>
<path d="M648.343 211.167C648.474 211.113 648.623 211.165 648.693 211.284L648.712 211.321L651.612 218.38L657.045 211.574C657.134 211.463 657.289 211.437 657.408 211.506L657.442 211.53C657.553 211.618 657.58 211.773 657.511 211.892L657.487 211.927L651.754 219.108C651.628 219.266 651.388 219.243 651.29 219.077L651.271 219.039L648.189 211.536C648.13 211.392 648.199 211.227 648.343 211.167Z" fill="#253368"/>
<path d="M635.764 224.513C635.907 224.509 636.029 224.612 636.051 224.749L636.057 224.855L636.084 225.628C636.096 225.967 636.111 226.343 636.128 226.754L636.175 227.866C636.226 229.005 636.285 230.225 636.355 231.511L636.379 231.942C636.676 237.309 637.083 242.675 637.615 247.683L637.702 248.485C638.329 254.195 639.087 259.027 639.984 262.713C640.004 262.792 639.988 262.875 639.942 262.942C638.777 264.609 638.909 265.957 639.82 267.039C639.977 267.225 640.145 267.386 640.313 267.521L640.403 267.592L640.477 267.645L640.597 267.66C643.835 268.048 648.579 268.124 654.442 267.945L655.13 267.923C658.536 267.809 662.168 267.616 665.881 267.366L666.88 267.298C668.53 267.183 670.12 267.063 671.6 266.942L673.41 266.789L674.45 266.696C674.61 266.682 674.75 266.796 674.76 266.951C674.78 267.107 674.66 267.244 674.51 267.259L673.46 267.352C673.11 267.382 672.74 267.415 672.33 267.448L670.74 267.578C669.22 267.698 667.6 267.817 665.919 267.93C662.2 268.18 658.562 268.373 655.149 268.488L654.464 268.51C648.459 268.694 643.62 268.611 640.342 268.198C640.302 268.193 640.263 268.179 640.229 268.158C640.012 268.025 639.7 267.773 639.388 267.403C638.362 266.186 638.174 264.638 639.324 262.848L639.406 262.724L639.372 262.586C638.475 258.82 637.72 253.919 637.097 248.147L637.053 247.743C636.551 243.019 636.161 237.98 635.868 232.922L635.815 231.973C635.734 230.526 635.667 229.158 635.611 227.891L635.532 226.001L635.49 224.805C635.486 224.649 635.608 224.518 635.764 224.513Z" fill="#253368"/>
<path fill-rule="evenodd" clip-rule="evenodd" d="M677.9 288.941L660.713 297.106C660.713 297.106 656.959 298.1 653.96 297.122C649.143 295.55 640.985 293.113 637.61 288.313C637.039 281.241 639.98 271.662 639.98 271.662L640.322 267.386C640.322 267.386 655.712 268.613 674.22 266.383C674.41 268.487 674.98 271.046 674.98 271.046C674.98 271.046 679.2 281.719 677.9 288.941Z" fill="#ADC6FF"/>
<path d="M673.74 270.794C673.76 270.91 673.68 271.019 673.57 271.038L673.09 271.113L672.46 271.207C672.24 271.24 672 271.274 671.74 271.31C670.29 271.514 668.66 271.718 666.89 271.908C660.657 272.577 654.348 272.911 648.46 272.73C645.627 272.642 642.968 272.435 640.513 272.097C640.397 272.081 640.316 271.974 640.332 271.858C640.348 271.742 640.455 271.661 640.571 271.677C643.01 272.013 645.654 272.219 648.473 272.306C654.339 272.487 660.63 272.154 666.84 271.487L667.65 271.398C668.97 271.249 670.21 271.094 671.35 270.937L672.23 270.813L673.22 270.665L673.5 270.62C673.61 270.601 673.72 270.679 673.74 270.794Z" fill="#597EF7"/>
<path d="M674.35 266.529C674.36 266.645 674.28 266.75 674.16 266.763L673.33 266.851C673.1 266.874 672.86 266.897 672.6 266.922L672.21 266.961C670.75 267.098 669.13 267.236 667.38 267.365L666.98 267.395C660.219 267.884 653.373 268.127 646.983 267.989C644.646 267.938 642.417 267.837 640.31 267.68C640.193 267.671 640.106 267.57 640.114 267.453C640.123 267.336 640.225 267.249 640.341 267.257C642.44 267.413 644.662 267.515 646.992 267.565C653.367 267.703 660.201 267.461 666.95 266.972C668.85 266.834 670.6 266.687 672.17 266.539L673.11 266.446L674.12 266.342C674.23 266.329 674.34 266.413 674.35 266.529Z" fill="#597EF7"/>
<path d="M656.072 267.811C656.189 267.816 656.28 267.914 656.276 268.031L656.237 269.29C656.221 269.829 656.206 270.421 656.192 271.061C656.088 275.677 656.07 280.518 656.189 285.045L656.208 285.738C656.344 290.316 656.62 294.125 657.058 296.916C657.077 297.031 656.998 297.14 656.882 297.158C656.766 297.176 656.658 297.097 656.64 296.982L656.575 296.552C656.149 293.64 655.888 289.727 655.765 285.056C655.654 280.845 655.663 276.365 655.747 272.045L655.787 270.254C655.8 269.741 655.813 269.264 655.826 268.828L655.853 268.016C655.857 267.899 655.955 267.807 656.072 267.811Z" fill="#597EF7"/>
<path fill-rule="evenodd" clip-rule="evenodd" d="M652.647 270.322C652.659 270.849 653.001 271.268 653.411 271.259C653.821 271.249 654.143 270.814 654.131 270.288C654.119 269.76 653.777 269.341 653.366 269.351C652.956 269.36 652.634 269.795 652.647 270.322Z" fill="white"/>
<path d="M651.761 272.567C651.878 272.574 651.967 272.673 651.961 272.79L651.935 273.365C651.915 273.827 651.895 274.351 651.876 274.927C651.787 277.665 651.759 280.497 651.829 283.141C651.859 284.263 651.906 285.318 651.972 286.296C652.171 289.257 653.091 290.466 656.299 290.757C656.416 290.767 656.501 290.87 656.491 290.987C656.48 291.104 656.377 291.189 656.261 291.179L655.972 291.15C652.76 290.786 651.755 289.385 651.549 286.324C651.483 285.341 651.436 284.28 651.406 283.152C651.342 280.74 651.359 278.173 651.43 275.664L651.452 274.914C651.463 274.584 651.474 274.271 651.486 273.976L651.526 273.014L651.538 272.768C651.544 272.651 651.644 272.561 651.761 272.567Z" fill="#597EF7"/>
<path fill-rule="evenodd" clip-rule="evenodd" d="M684.93 265.64C680.97 266.211 677.26 263.592 676.46 259.671L669.16 223.604C668.14 218.526 671.52 213.608 676.63 212.758C681.81 211.897 686.64 215.551 687.23 220.763L691.35 257.33C691.81 261.378 688.97 265.058 684.93 265.64Z" fill="#FFC999"/>
<path fill-rule="evenodd" clip-rule="evenodd" d="M690.2 244.096L672.61 246.635L668.79 223.153C667.96 218.013 671.5 213.188 676.65 212.444C681.81 211.701 686.57 215.328 687.22 220.494L690.2 244.096Z" fill="#597EF7"/>
<path d="M690.15 243.803C690.32 243.78 690.47 243.892 690.49 244.054C690.51 244.202 690.42 244.341 690.28 244.381L690.24 244.389L672.65 246.927C672.49 246.951 672.34 246.838 672.31 246.677C672.29 246.528 672.39 246.39 672.53 246.35L672.56 246.342L690.15 243.803Z" fill="#253368"/>
<path fill-rule="evenodd" clip-rule="evenodd" d="M657.192 212.236C655.145 213.413 654.366 215.98 655.414 218.096L676.99 261.643C678.95 265.594 683.82 267.091 687.66 264.924C691.56 262.72 692.76 257.658 690.26 253.939L663.129 213.616C661.818 211.669 659.227 211.067 657.192 212.236Z" fill="#FFC999"/>
<path fill-rule="evenodd" clip-rule="evenodd" d="M677.84 259.717C677.77 262.21 675.77 264.221 673.28 264.317L625.849 266.132C621.398 266.302 617.728 262.677 617.843 258.225C617.957 253.78 621.796 250.352 626.225 250.739L673.51 254.867C676.01 255.085 677.91 257.212 677.84 259.717Z" fill="#FFC999"/>
<path fill-rule="evenodd" clip-rule="evenodd" d="M651.572 213.634C651.572 213.634 656.523 221.067 660.696 220.493C664.476 219.973 664.448 215.097 664.448 215.097C664.448 215.097 664.849 210.814 662.37 207.315C660.669 204.915 660.034 199.468 658.547 199.646C656.607 199.877 658.792 205.03 657.788 206.027C655.757 208.048 651.462 200.298 650.086 199.41C647.396 197.675 645.566 204.762 651.572 213.634Z" fill="#FFC999"/>
<path d="M648.829 200.152C648.939 200.113 649.06 200.17 649.1 200.28C649.562 201.582 650.268 202.867 651.153 204.107C651.735 204.923 652.359 205.671 652.983 206.335C653.158 206.52 653.322 206.688 653.474 206.838L653.739 207.093C653.769 207.121 653.793 207.143 653.81 207.158C653.898 207.236 653.905 207.37 653.827 207.457C653.749 207.545 653.615 207.552 653.528 207.474L653.418 207.372C653.381 207.338 653.339 207.298 653.291 207.251C653.105 207.072 652.898 206.862 652.675 206.625C652.038 205.948 651.402 205.186 650.808 204.353C649.902 203.083 649.177 201.765 648.7 200.422C648.661 200.312 648.719 200.191 648.829 200.152Z" fill="#DD936F"/>
<path d="M647.793 202.097C647.905 202.063 648.023 202.126 648.057 202.238L648.091 202.34L648.161 202.533C648.191 202.614 648.226 202.703 648.265 202.798C648.45 203.255 648.69 203.772 648.99 204.338C649.851 205.959 651.025 207.649 652.559 209.322C652.638 209.408 652.632 209.542 652.546 209.621C652.46 209.7 652.326 209.694 652.247 209.608C650.688 207.908 649.493 206.189 648.616 204.537C648.308 203.957 648.062 203.427 647.872 202.957L647.797 202.768C647.774 202.708 647.753 202.652 647.733 202.598L647.667 202.408C647.661 202.389 647.656 202.374 647.652 202.362C647.618 202.25 647.681 202.132 647.793 202.097Z" fill="#DD936F"/>
<path d="M648.196 206.343C648.299 206.289 648.427 206.328 648.482 206.431C649.33 208.027 650.178 209.341 650.983 210.39C651.229 210.711 651.456 210.986 651.659 211.216L651.745 211.313C651.878 211.461 651.971 211.556 652.018 211.601C652.103 211.682 652.106 211.816 652.025 211.901C651.944 211.985 651.81 211.988 651.726 211.908L651.646 211.828L651.546 211.722C651.51 211.684 651.471 211.642 651.43 211.596C651.198 211.339 650.935 211.023 650.647 210.648C649.827 209.581 648.967 208.247 648.108 206.63C648.053 206.527 648.092 206.398 648.196 206.343Z" fill="#DD936F"/>
<path d="M648.598 198.877C649.158 198.567 649.736 198.781 650.273 199.296C650.395 199.412 650.506 199.536 650.604 199.661L650.693 199.778C650.709 199.801 650.722 199.82 650.733 199.837L650.869 200.052L651.078 200.374C651.169 200.514 651.268 200.662 651.372 200.817C651.869 201.554 652.4 202.29 652.944 202.977C653.484 203.66 654.008 204.256 654.502 204.74C655.35 205.57 656.077 206.032 656.619 206.056C657.337 206.088 657.687 205.853 657.826 205.344C657.933 204.955 657.925 204.541 657.82 203.617L657.746 202.986C657.707 202.631 657.688 202.401 657.681 202.156L657.657 201.456C657.611 199.899 657.71 199.682 658.514 199.437L658.546 199.433C658.794 199.412 659.093 199.488 659.376 199.738C659.588 199.927 659.763 200.196 659.891 200.555L659.965 200.783C660.019 200.956 660.118 201.272 660.165 201.419C660.283 201.79 660.397 202.14 660.519 202.498C660.842 203.45 661.179 204.349 661.54 205.195C662.114 206.54 662.708 207.654 663.319 208.471C663.811 209.131 664.148 210.272 664.366 211.77C664.484 212.584 664.56 213.454 664.602 214.326L664.618 214.706C664.631 215.063 664.636 215.352 664.636 215.549C664.635 215.669 664.54 215.763 664.423 215.763C664.318 215.763 664.23 215.686 664.214 215.585L664.212 215.551L664.209 215.24C664.205 215.001 664.195 214.698 664.179 214.347C664.138 213.487 664.063 212.63 663.947 211.831C663.738 210.399 663.418 209.312 662.979 208.724C662.345 207.876 661.736 206.734 661.15 205.361C660.785 204.505 660.444 203.596 660.118 202.635C660.036 202.394 659.957 202.157 659.879 201.915L659.524 200.792C659.415 200.448 659.268 200.209 659.095 200.056C658.927 199.907 658.76 199.854 658.625 199.854L658.588 199.855L658.499 199.884C658.084 200.028 658.04 200.199 658.081 201.448L658.109 202.27C658.116 202.418 658.129 202.572 658.149 202.766L658.256 203.705C658.353 204.595 658.355 205.017 658.235 205.456C658.041 206.162 657.51 206.52 656.6 206.479C655.924 206.449 655.123 205.94 654.206 205.042C653.697 204.545 653.162 203.936 652.612 203.24C652.061 202.544 651.523 201.799 651.021 201.054L650.818 200.751C650.753 200.653 650.691 200.558 650.632 200.467L650.376 200.065L650.326 199.994C650.31 199.973 650.292 199.949 650.272 199.923C650.185 199.814 650.087 199.704 649.98 199.602C649.561 199.201 649.158 199.052 648.803 199.248C648.667 199.324 648.532 199.451 648.4 199.637C648.332 199.732 648.2 199.755 648.105 199.687C648.009 199.619 647.987 199.487 648.054 199.392C648.221 199.157 648.402 198.986 648.598 198.877Z" fill="#DD936F"/>
<path d="M627.74 250.845L670.05 254.514C670.15 254.523 670.23 254.618 670.22 254.726C670.22 254.821 670.14 254.895 670.05 254.904H670.01L627.707 251.235C627.599 251.226 627.519 251.131 627.528 251.023C627.537 250.927 627.613 250.854 627.705 250.845H627.74Z" fill="#DD936F"/>
<path fill-rule="evenodd" clip-rule="evenodd" d="M677.13 266.78C677.13 266.78 670.16 264.565 668.04 261.015C665.011 255.937 672.66 254.46 672.66 254.46C672.66 254.46 674.88 253.837 679.86 254.195C682.63 254.394 689.77 255.137 688.92 256.518C687.92 258.153 683.08 256.835 682.87 258.214C682.67 259.63 683.62 260.761 686.2 262.252C687.81 263.183 690.23 263.375 691.45 264.426C693.83 266.48 687.18 269.986 677.13 266.78Z" fill="#FFC999"/>
<path d="M682.91 262.698C682.98 262.621 683.11 262.62 683.18 262.696L683.24 262.753C683.26 262.77 683.28 262.79 683.31 262.812C683.42 262.909 683.55 263.016 683.71 263.132C684.15 263.465 684.68 263.799 685.3 264.111C686.81 264.872 688.56 265.378 690.56 265.508C690.67 265.515 690.75 265.608 690.74 265.716C690.74 265.824 690.64 265.905 690.53 265.898C688.48 265.765 686.67 265.245 685.12 264.46C684.49 264.138 683.94 263.792 683.47 263.446C683.31 263.324 683.17 263.21 683.05 263.108L682.95 263.015C682.93 262.999 682.92 262.985 682.91 262.975C682.83 262.899 682.83 262.775 682.91 262.698Z" fill="#DD936F"/>
<path d="M681.3 264.726C681.36 264.636 681.48 264.61 681.57 264.669C681.88 264.868 682.19 265.052 682.52 265.223C683.72 265.844 685 266.262 686.28 266.514C686.66 266.589 687.02 266.645 687.35 266.683L687.52 266.701C687.61 266.711 687.7 266.719 687.78 266.726L687.96 266.737C687.97 266.737 687.97 266.737 687.98 266.738C688.09 266.741 688.17 266.832 688.17 266.94C688.16 267.048 688.07 267.133 687.97 267.129L687.83 267.122L687.67 267.109C687.61 267.104 687.54 267.098 687.48 267.091C687.09 267.051 686.66 266.988 686.2 266.898C684.89 266.64 683.57 266.211 682.34 265.571C682 265.394 681.67 265.203 681.36 264.997C681.27 264.938 681.24 264.817 681.3 264.726Z" fill="#DD936F"/>
<path d="M678.93 265.692C678.99 265.608 679.12 265.595 679.2 265.663L679.24 265.692C679.27 265.711 679.3 265.735 679.34 265.766C679.47 265.852 679.63 265.949 679.81 266.053C680.34 266.353 681 266.655 681.8 266.937C682.64 267.237 683.6 267.497 684.66 267.705C684.77 267.726 684.84 267.829 684.82 267.935C684.8 268.041 684.7 268.11 684.59 268.089C683.51 267.878 682.53 267.613 681.67 267.306C680.85 267.016 680.17 266.706 679.62 266.394C679.46 266.306 679.33 266.223 679.21 266.146L679.12 266.089C679.04 266.033 678.99 265.991 678.96 265.968C678.87 265.9 678.86 265.776 678.93 265.692Z" fill="#DD936F"/>
<path d="M672.95 254.362C675.08 253.985 677.43 253.824 679.88 253.999C681.82 254.139 684.06 254.395 685.78 254.721L686.16 254.796C687.09 254.986 687.83 255.194 688.33 255.422C689.06 255.747 689.38 256.154 689.09 256.62C688.67 257.309 687.79 257.58 686.12 257.737L685.11 257.822C683.6 257.954 683.05 258.115 682.99 258.496C682.82 259.663 683.83 260.645 686.73 262.315C687.14 262.556 687.6 262.741 688.19 262.924L688.7 263.074L689.09 263.181C690.4 263.543 691 263.783 691.58 264.277C692.94 265.457 691.73 267.002 689 267.764C686 268.605 681.81 268.435 677.32 267.047L676.99 266.943L676.65 266.823C676.31 266.706 675.94 266.567 675.54 266.407C674.4 265.951 673.26 265.421 672.19 264.821C672.07 264.756 671.96 264.69 671.84 264.623C671.75 264.568 671.72 264.448 671.77 264.355C671.83 264.262 671.95 264.23 672.04 264.285C672.15 264.35 672.27 264.415 672.38 264.48C673.43 265.07 674.56 265.593 675.69 266.043C676.02 266.175 676.33 266.292 676.61 266.394L677.08 266.559L677.19 266.594C681.7 268.032 685.91 268.222 688.9 267.387C691.38 266.693 692.35 265.461 691.32 264.574C690.83 264.148 690.29 263.923 689.13 263.599L688.24 263.349C687.54 263.141 687.02 262.935 686.53 262.655L686.22 262.476C683.42 260.827 682.41 259.792 682.61 258.439C682.71 257.752 683.33 257.575 685.21 257.42L685.93 257.361L686.22 257.334C687.67 257.187 688.44 256.939 688.76 256.416C688.87 256.227 688.71 256.021 688.17 255.779C687.63 255.536 686.79 255.31 685.71 255.106C684.01 254.783 681.78 254.529 679.85 254.39C677.44 254.217 675.12 254.376 673.02 254.748L672.63 254.819C672.32 254.879 672.03 254.941 671.76 255.003L671.6 255.04C671.46 255.075 671.33 255.107 671.23 255.136L671.1 255.172C671 255.203 670.89 255.144 670.86 255.04C670.83 254.936 670.89 254.827 670.99 254.796L671.13 254.758L671.3 254.711C671.37 254.694 671.44 254.677 671.51 254.659L671.84 254.583C672.17 254.508 672.54 254.433 672.95 254.362Z" fill="#DD936F"/>
<path d="M649.067 292.15C649.136 292.055 649.269 292.034 649.363 292.103L649.711 292.352L650.159 292.666C650.317 292.776 650.484 292.891 650.658 293.01C651.657 293.69 652.708 294.371 653.762 295.006C654.447 295.419 655.111 295.799 655.747 296.139C656.188 296.375 656.613 296.59 657.019 296.782C657.087 296.815 657.133 296.882 657.139 296.958L657.184 297.581C657.199 297.791 657.213 298.005 657.227 298.222C657.329 299.825 657.402 301.529 657.451 303.244L657.469 303.888C657.479 304.274 657.487 304.644 657.493 304.996L657.508 305.87L657.514 306.463C657.515 306.58 657.421 306.676 657.304 306.676C657.187 306.677 657.091 306.583 657.09 306.466L657.082 305.76L657.064 304.737C657.059 304.467 657.052 304.187 657.045 303.898C656.997 301.972 656.918 300.046 656.804 298.249L656.762 297.61L656.725 297.111L656.587 297.045C656.336 296.922 656.077 296.792 655.813 296.653L655.547 296.512C654.905 296.169 654.234 295.785 653.543 295.369C652.482 294.73 651.425 294.045 650.42 293.36L649.917 293.014L649.264 292.554L649.114 292.446C649.019 292.377 648.998 292.244 649.067 292.15Z" fill="#597EF7"/>
<path d="M46.8369 108.853H94.262C112.031 108.853 126.437 123.258 126.437 141.028C126.437 158.797 112.031 173.203 94.262 173.203H46.8369C29.0669 173.203 14.6619 158.797 14.6619 141.028C14.6619 123.258 29.0669 108.853 46.8369 108.853Z" fill="#4E5C93"/>
<path fill-rule="evenodd" clip-rule="evenodd" d="M110.936 163.843V180.687C110.936 181.427 110.335 182.027 109.595 182.027C109.248 182.027 108.914 181.893 108.664 181.651L96.286 169.708L110.936 163.843Z" fill="#4E5C93"/>
<path d="M92.0829 145.049C89.2139 145.049 86.8879 142.723 86.8879 139.854C86.8879 136.985 89.2139 134.659 92.0829 134.659C94.952 134.659 97.278 136.985 97.278 139.854C97.278 142.723 94.952 145.049 92.0829 145.049Z" fill="white"/>
<path d="M70.7999 145.049C67.9309 145.049 65.6059 142.723 65.6059 139.854C65.6059 136.985 67.9309 134.659 70.7999 134.659C73.6699 134.659 75.9949 136.985 75.9949 139.854C75.9949 142.723 73.6699 145.049 70.7999 145.049Z" fill="white"/>
<path d="M49.0149 145.049C46.1459 145.049 43.8199 142.723 43.8199 139.854C43.8199 136.985 46.1459 134.659 49.0149 134.659C51.8839 134.659 54.2099 136.985 54.2099 139.854C54.2099 142.723 51.8839 145.049 49.0149 145.049Z" fill="white"/>
<path fill-rule="evenodd" clip-rule="evenodd" d="M738.26 371.108H718.66V303.941C718.66 298.595 723.02 294.261 728.41 294.261H728.51C733.9 294.261 738.26 298.595 738.26 303.941V371.108Z" fill="#7CB305"/>
<path fill-rule="evenodd" clip-rule="evenodd" d="M748.01 387.549H728.35V352.476C728.35 347.271 732.62 343.051 737.89 343.051H738.48C743.74 343.051 748.01 347.271 748.01 352.476V387.549Z" fill="#5B8C00"/>
<path fill-rule="evenodd" clip-rule="evenodd" d="M721.53 371.073H701.74V332.94C701.74 327.705 706.02 323.462 711.3 323.462H711.97C717.25 323.462 721.53 327.705 721.53 332.94V371.073Z" fill="#7CB305"/>
<path fill-rule="evenodd" clip-rule="evenodd" d="M749.18 426.782H697.69C695.66 426.782 694.01 425.149 694.01 423.135V372.485C694.01 370.471 695.66 368.839 697.69 368.839H749.18C751.22 368.839 752.87 370.471 752.87 372.485V423.135C752.87 425.149 751.22 426.782 749.18 426.782Z" fill="#6377C4"/>
</g>
</g>
<defs>
<clipPath id="clip0_1_609">
<rect width="816" height="465" fill="white"/>
</clipPath>
</defs>
</svg>
