<svg width="1059" height="916" viewBox="0 0 1320 916" fill="none" xmlns="http://www.w3.org/2000/svg">
<g clip-path="url(#clip0_8047_9371)" filter="url(#filter0_d_8047_9371)">
<path d="M159.853 305.079H104.453C102.556 305.079 101.018 306.617 101.018 308.514V317.01C101.018 318.907 102.556 320.445 104.453 320.445H159.853C161.75 320.445 163.288 318.907 163.288 317.01V308.514C163.288 306.617 161.75 305.079 159.853 305.079Z" fill="#597EF7"/>
<path d="M159.905 334.327H104.401C102.532 334.327 101.018 335.841 101.018 337.71V345.845C101.018 347.713 102.532 349.228 104.401 349.228H159.905C161.773 349.228 163.288 347.713 163.288 345.845V337.71C163.288 335.841 161.773 334.327 159.905 334.327Z" fill="#ADC6FF"/>
<path d="M159.905 363.574H104.401C102.532 363.574 101.018 365.089 101.018 366.957V375.092C101.018 376.96 102.532 378.475 104.401 378.475H159.905C161.773 378.475 163.288 376.96 163.288 375.092V366.957C163.288 365.089 161.773 363.574 159.905 363.574Z" fill="#FF7946"/>
<path d="M159.905 392.821H104.401C102.532 392.821 101.018 394.336 101.018 396.204V404.339C101.018 406.208 102.532 407.722 104.401 407.722H159.905C161.773 407.722 163.288 406.208 163.288 404.339V396.204C163.288 394.336 161.773 392.821 159.905 392.821Z" fill="#ADC6FF"/>
<path d="M538.076 109.347H50.924C42.5566 109.347 35.7734 116.13 35.7734 124.498V474.334C35.7734 482.702 42.5566 489.485 50.924 489.485H538.076C546.443 489.485 553.227 482.702 553.227 474.334V124.498C553.227 116.13 546.443 109.347 538.076 109.347Z" fill="#E4EBF7"/>
<path d="M504.721 176.841H210.268C207.087 176.841 204.508 179.42 204.508 182.6V450.056C204.508 453.237 207.087 455.816 210.268 455.816H504.721C507.902 455.816 510.481 453.237 510.481 450.056V182.6C510.481 179.42 507.902 176.841 504.721 176.841Z" fill="#597EF7"/>
<path d="M49.6338 91.3486H539.106C546.761 91.3486 552.967 97.4252 552.967 104.921V145.366H35.7734V104.921C35.7734 97.4252 41.9789 91.3486 49.6338 91.3486Z" fill="#253368"/>
<path d="M65.9144 128.722C71.3781 128.722 75.8073 124.384 75.8073 119.034C75.8073 113.684 71.3781 109.347 65.9144 109.347C60.4508 109.347 56.0216 113.684 56.0216 119.034C56.0216 124.384 60.4508 128.722 65.9144 128.722Z" fill="#FF7946"/>
<path d="M104.161 128.722C109.625 128.722 114.054 124.384 114.054 119.034C114.054 113.684 109.625 109.347 104.161 109.347C98.6973 109.347 94.2681 113.684 94.2681 119.034C94.2681 124.384 98.6973 128.722 104.161 128.722Z" fill="#FAAD14"/>
<path d="M140.158 128.722C145.621 128.722 150.051 124.384 150.051 119.034C150.051 113.684 145.621 109.347 140.158 109.347C134.694 109.347 130.265 113.684 130.265 119.034C130.265 124.384 134.694 128.722 140.158 128.722Z" fill="#7CB305"/>
<path d="M182.712 172.341H82.3172C78.9772 172.341 76.2697 175.049 76.2697 178.389V449.768C76.2697 453.108 78.9772 455.816 82.3172 455.816H182.712C186.052 455.816 188.76 453.108 188.76 449.768V178.389C188.76 175.049 186.052 172.341 182.712 172.341Z" fill="white"/>
<path d="M159.853 305.079H104.453C102.556 305.079 101.018 306.617 101.018 308.514V317.01C101.018 318.907 102.556 320.445 104.453 320.445H159.853C161.75 320.445 163.288 318.907 163.288 317.01V308.514C163.288 306.617 161.75 305.079 159.853 305.079Z" fill="#597EF7"/>
<path d="M159.905 334.327H104.401C102.532 334.327 101.018 335.841 101.018 337.71V345.845C101.018 347.713 102.532 349.228 104.401 349.228H159.905C161.773 349.228 163.288 347.713 163.288 345.845V337.71C163.288 335.841 161.773 334.327 159.905 334.327Z" fill="#ADC6FF"/>
<path d="M159.905 363.574H104.401C102.532 363.574 101.018 365.089 101.018 366.957V375.092C101.018 376.96 102.532 378.475 104.401 378.475H159.905C161.773 378.475 163.288 376.96 163.288 375.092V366.957C163.288 365.089 161.773 363.574 159.905 363.574Z" fill="#FF7946"/>
<path d="M159.905 392.821H104.401C102.532 392.821 101.018 394.336 101.018 396.204V404.339C101.018 406.208 102.532 407.722 104.401 407.722H159.905C161.773 407.722 163.288 406.208 163.288 404.339V396.204C163.288 394.336 161.773 392.821 159.905 392.821Z" fill="#ADC6FF"/>
<path d="M131.378 264.704C146.74 264.704 159.194 252.108 159.194 236.571C159.194 221.035 146.74 208.439 131.378 208.439C116.015 208.439 103.562 221.035 103.562 236.571C103.562 252.108 116.015 264.704 131.378 264.704Z" fill="#FAAD14"/>
<path d="M131.378 264.704C139.395 264.708 147.003 261.126 152.161 254.919C148.097 247.116 140.094 242.231 131.373 242.231C122.653 242.231 114.649 247.116 110.585 254.919C115.746 261.127 123.358 264.709 131.378 264.704Z" fill="#253368"/>
<path d="M131.526 243.35C137.303 243.35 141.987 238.613 141.987 232.769C141.987 226.926 137.303 222.189 131.526 222.189C125.748 222.189 121.064 226.926 121.064 232.769C121.064 238.613 125.748 243.35 131.526 243.35Z" fill="#253368"/>
<path d="M667.979 209.466C667.979 171.439 637.143 140.289 599.105 140.289C561.067 140.289 530.229 171.439 530.229 209.466C530.229 224.516 538.22 243.957 551.053 258.29C563.778 272.492 567.402 296.402 567.402 315.468V322.943H630.808V315.53C630.808 296.464 634.432 272.6 647.092 258.352C659.967 243.872 667.979 222.704 667.979 209.466Z" fill="#FFE58F"/>
<path d="M656.643 209.279C656.643 177.516 630.89 151.491 599.105 151.491C567.32 151.491 541.572 177.514 541.572 209.279C541.572 221.862 548.245 238.095 558.968 250.068C569.597 261.934 577.489 281.907 577.489 297.834V304.073H620.723V297.888C620.723 281.958 628.616 262.022 639.194 250.119C649.95 238.024 656.643 220.342 656.643 209.282V209.279Z" fill="#FAAD14"/>
<path d="M616.585 357.825H581.624C580.402 357.825 579.287 357.031 578.624 355.727L573.868 343.422H624.347L619.592 355.727C618.925 357.031 617.813 357.825 616.591 357.825H616.585Z" fill="#253368"/>
<path d="M625.076 294.505H573.133C569.274 294.505 566.145 297.633 566.145 301.492V341.731C566.145 345.591 569.274 348.719 573.133 348.719H625.076C628.935 348.719 632.064 345.591 632.064 341.731V301.492C632.064 297.633 628.935 294.505 625.076 294.505Z" fill="#597EF7"/>
<path d="M603.367 309.032C604.01 309.032 604.531 309.553 604.531 310.196C604.531 310.822 604.037 311.332 603.418 311.359L603.367 311.36H566.231C565.588 311.36 565.067 310.839 565.067 310.196C565.067 309.57 565.561 309.059 566.18 309.033L566.231 309.032H603.367Z" fill="white"/>
<path d="M603.367 333.134C604.01 333.134 604.531 333.655 604.531 334.298C604.531 334.924 604.037 335.435 603.418 335.461L603.367 335.463H566.231C565.588 335.463 565.067 334.941 565.067 334.298C565.067 333.672 565.561 333.162 566.18 333.135L566.231 333.134H603.367Z" fill="white"/>
<path d="M631.851 321.081C632.494 321.081 633.015 321.603 633.015 322.246C633.015 322.872 632.521 323.382 631.902 323.409L631.851 323.41H594.715C594.072 323.41 593.55 322.889 593.55 322.246C593.55 321.62 594.045 321.109 594.664 321.083L594.715 321.081H631.851Z" fill="white"/>
<path d="M603.803 181.663L577.84 221.211C576.443 223.355 577.945 225.991 580.462 225.991H592.092L577.793 253.002C576.727 255.186 579.476 257.212 581.162 255.485L620.051 216.416C622.034 214.383 620.626 210.91 617.818 210.91H600.232L607.589 183.388C608.164 181.039 605.11 179.661 603.803 181.663Z" fill="white"/>
<path fill-rule="evenodd" clip-rule="evenodd" d="M408.671 688.024L361.914 834.909H390.182L436.94 688.024H408.671Z" fill="#597EF7"/>
<path fill-rule="evenodd" clip-rule="evenodd" d="M341.997 704.723H311.988H293.07C291.595 704.723 290.399 705.919 290.399 707.395V726.312V796.62V815.538C290.399 817.013 291.595 818.209 293.07 818.209H311.988H341.997C343.472 818.209 344.669 817.013 344.669 815.538V799.292C344.669 797.816 343.472 796.62 341.997 796.62H311.988V726.312H341.997C343.472 726.312 344.669 725.116 344.669 723.64V707.395C344.669 705.919 343.472 704.723 341.997 704.723Z" fill="#CCD7EE"/>
<path fill-rule="evenodd" clip-rule="evenodd" d="M505.783 704.723H486.866H456.857C455.381 704.723 454.185 705.919 454.185 707.395V723.64C454.185 725.116 455.381 726.312 456.857 726.312H486.866V796.62H456.857C455.381 796.62 454.185 797.816 454.185 799.292V815.538C454.185 817.013 455.381 818.209 456.857 818.209H486.866H505.783C507.259 818.209 508.455 817.013 508.455 815.538V799.292V723.64V707.395C508.455 705.919 507.259 704.723 505.783 704.723Z" fill="#CCD7EE"/>
<path d="M440.206 216H240V257.371H440.206V216Z" fill="white"/>
<path d="M440.206 297.315H240V338.685H440.206V297.315Z" fill="white"/>
<path d="M440.206 378.629H240V420H440.206V378.629Z" fill="white"/>
<path d="M455.231 216H386.269C372.037 216 360.5 229.112 360.5 245.288V390.712C360.5 406.888 372.037 420 386.269 420H455.231C469.463 420 481 406.888 481 390.712V245.288C481 229.112 469.463 216 455.231 216Z" fill="white"/>
<g clip-path="url(#clip1_8047_9371)">
<path fill-rule="evenodd" clip-rule="evenodd" d="M474.179 638.381C488.503 658.211 515.818 663.407 536.419 650.222L723.063 530.805C750.519 513.241 757.56 476.215 738.479 449.798C719.618 423.694 682.837 418.505 657.49 438.371L483.113 575.078C463.621 590.357 459.679 618.306 474.179 638.381Z" fill="#FFC999"/>
<path fill-rule="evenodd" clip-rule="evenodd" d="M612.433 610.163L730.988 534.965C756.022 515.506 756.036 465.593 736.134 440.909C716.232 416.229 679.959 412.665 655.635 433.003L544.503 525.92C544.503 525.92 577.76 593.086 612.433 610.163Z" fill="#597EF7"/>
<path fill-rule="evenodd" clip-rule="evenodd" d="M395.498 372.556C383.513 378.754 378.047 392.927 382.764 405.572L465.695 627.804C475.223 653.324 504.685 665.057 529.146 653.072C553.051 641.357 562.085 611.876 548.846 588.778L430.889 382.985C423.786 370.592 408.186 365.994 395.498 372.556Z" fill="#FFC999"/>
<path fill-rule="evenodd" clip-rule="evenodd" d="M801.742 423.31L771.721 390.547L781.184 282.722L865.135 290.542L864.714 397.242L801.742 423.31Z" fill="#FFC999"/>
<path fill-rule="evenodd" clip-rule="evenodd" d="M759.726 272.074C759.726 272.074 747.265 258.366 741.575 267.162C735.889 275.962 744.397 308.293 758.314 309.547C776.904 311.223 759.726 272.074 759.726 272.074Z" fill="#FFC999"/>
<path fill-rule="evenodd" clip-rule="evenodd" d="M838.366 356.628C838.366 356.628 810.32 378.199 774.761 354.877C749.161 338.088 747.724 280.118 754.059 237.798C757.644 213.849 769.125 201.262 792.778 194.873C816.435 188.484 879.983 190.21 878.2 260.951C876.211 339.745 838.366 356.628 838.366 356.628Z" fill="#FFC999"/>
<path d="M794.606 250.202L794.375 250.232C793.757 250.368 793.341 250.927 793.364 251.539L793.393 251.769L796.653 266.558L787.461 306.342C787.296 307.059 787.76 307.751 788.453 307.896L788.667 307.922L805.607 308.592C806.319 308.62 806.919 308.066 806.947 307.354C806.973 306.713 806.526 306.163 805.918 306.039L805.709 306.014L790.328 305.404L799.232 266.852C799.261 266.727 799.271 266.6 799.262 266.473L799.235 266.284L795.913 251.214C795.776 250.595 795.217 250.179 794.606 250.202Z" fill="#DD936F"/>
<path d="M810.896 246.828C810.632 248.709 811.942 250.448 813.823 250.713L825.13 252.363L826.583 252.569C837.609 254.119 844.308 254.675 848.318 254.008C850.192 253.696 851.458 251.924 851.147 250.05C850.853 248.286 849.266 247.061 847.518 247.183L846.54 247.308C843.644 247.612 838.357 247.203 830.486 246.16L825.349 245.444L814.781 243.901C812.9 243.636 811.16 244.947 810.896 246.828Z" fill="#253368"/>
<path d="M819.293 318.921C819.075 317.95 818.111 317.34 817.14 317.559L816.498 317.685L816.244 317.731C815.469 317.867 814.555 318.004 813.508 318.132C806.462 318.995 797.896 319.019 788.227 317.641C787.241 317.5 786.329 318.185 786.189 319.17C786.048 320.155 786.733 321.068 787.718 321.208C797.718 322.633 806.599 322.609 813.946 321.709L815.213 321.541C815.614 321.484 815.993 321.426 816.35 321.368L817.62 321.14C817.749 321.114 817.853 321.092 817.931 321.074C818.902 320.856 819.512 319.892 819.293 318.921Z" fill="#FF7946"/>
<path fill-rule="evenodd" clip-rule="evenodd" d="M869.231 291.024L883.832 264.189C883.832 264.189 893.742 225.166 885.155 207.996C871.825 181.351 839.502 181.092 820.536 173.524C801.571 165.953 801.946 159.507 794.137 160.35C786.325 161.189 755.587 181.293 751.551 203.152C748.001 222.37 751.45 271.706 751.45 271.706C751.45 271.706 758.178 228.309 762.718 216.929C778.101 211.037 833.322 212.37 856.154 220.161C856.154 220.161 857.71 235.051 858.55 245.53C870.625 254.722 869.231 291.024 869.231 291.024Z" fill="#253368"/>
<path d="M774.318 352.404C773.854 351.863 773.039 351.802 772.499 352.266C771.959 352.73 771.897 353.545 772.361 354.085C772.714 354.496 773.39 355.177 774.396 356.036C776.049 357.449 778.047 358.856 780.397 360.166C793.041 367.217 809.939 368.709 831.249 361.244C831.922 361.008 832.276 360.272 832.04 359.6C831.805 358.927 831.069 358.573 830.396 358.809C809.785 366.029 793.655 364.605 781.654 357.913C779.457 356.688 777.599 355.379 776.072 354.075L775.455 353.533C774.898 353.028 774.52 352.639 774.318 352.404Z" fill="#DD936F"/>
<path d="M795.167 264.002C793.745 263.901 792.511 264.972 792.411 266.393C792.316 267.72 793.243 268.883 794.522 269.114L794.802 269.149L807.252 270.032C808.673 270.133 809.907 269.062 810.008 267.641C810.102 266.314 809.176 265.151 807.896 264.92L807.617 264.885L795.167 264.002Z" fill="#253368"/>
<path d="M805.972 272.652C803.364 271.44 800.69 270.792 798.06 271.051C795.839 271.271 793.809 272.145 792.104 273.735C791.062 274.708 791.006 276.34 791.978 277.382C792.95 278.424 794.583 278.481 795.624 277.508C796.476 276.714 797.442 276.298 798.567 276.187C800.13 276.032 801.951 276.474 803.796 277.331C804.778 277.788 805.525 278.24 805.902 278.509C807.062 279.336 808.673 279.065 809.5 277.905C810.327 276.744 810.057 275.133 808.896 274.306C808.28 273.867 807.272 273.257 805.972 272.652Z" fill="#253368"/>
<path d="M786.699 242.557C780.752 240.158 774.726 238.842 768.959 239.208C764.895 239.466 761.132 240.569 757.784 242.632C756.167 243.629 755.664 245.748 756.66 247.365C757.657 248.982 759.776 249.485 761.393 248.489C763.732 247.047 766.407 246.263 769.395 246.073C773.981 245.782 779.051 246.89 784.125 248.936C785.407 249.453 786.611 250 787.716 250.551L788.526 250.965C789.301 251.371 789.836 251.677 790.092 251.834C791.711 252.829 793.829 252.324 794.824 250.706C795.819 249.088 795.314 246.97 793.696 245.975L792.964 245.541C791.496 244.7 789.349 243.626 786.699 242.557Z" fill="#253368"/>
<path d="M795.085 330.668C794.373 330.627 793.763 331.17 793.722 331.881C793.685 332.521 794.121 333.08 794.727 333.215L794.935 333.244L805.086 333.835C805.797 333.876 806.407 333.333 806.449 332.622C806.486 331.982 806.05 331.424 805.444 331.288L805.236 331.259L795.085 330.668Z" fill="#DD936F"/>
<path d="M853.734 267.463C852.311 267.388 851.097 268.481 851.022 269.904C850.953 271.232 851.9 272.379 853.184 272.586L853.463 272.616L873.895 273.69C875.318 273.765 876.533 272.672 876.607 271.249C876.677 269.921 875.73 268.775 874.446 268.567L874.166 268.537L853.734 267.463Z" fill="#253368"/>
<path fill-rule="evenodd" clip-rule="evenodd" d="M852.302 265.916L813.298 263.653C810.577 263.495 808.242 265.567 808.101 268.287C807.846 273.372 807.658 281.534 808.573 288.586C809.654 296.899 816.757 302.366 825.099 303.238C835.517 304.33 844.89 304.881 849.945 299.735C857.646 291.894 856.67 278.193 856.933 270.983C857.03 268.338 854.947 266.068 852.302 265.916Z" fill="white"/>
<path d="M813.347 262.795L852.352 265.058C855.465 265.236 857.906 267.904 857.791 271.014L857.749 272.714L857.705 275.793C857.624 280.369 857.457 282.925 856.954 286.072C855.997 292.054 854.005 296.828 850.558 300.337C845.97 305.008 839.262 305.586 825.009 304.093C815.904 303.141 808.814 297.104 807.721 288.697C806.943 282.706 806.872 275.606 807.243 268.243C807.408 265.049 810.148 262.609 813.347 262.795ZM813.248 264.511C811.116 264.387 809.279 265.917 808.993 267.983L808.96 268.331C808.594 275.598 808.664 282.608 809.426 288.475C810.409 296.041 816.832 301.51 825.188 302.383L827.053 302.57C839.477 303.76 845.458 303.076 849.332 299.133C852.493 295.914 854.351 291.461 855.257 285.8L855.425 284.677C855.784 282.095 855.917 279.688 855.987 275.745L856.065 271.209C856.067 271.123 856.07 271.037 856.074 270.951C856.154 268.778 854.435 266.899 852.253 266.774L813.248 264.511Z" fill="#253368"/>
<path d="M825.053 273.978C824.104 273.923 823.291 274.648 823.236 275.597C822.925 280.987 826.555 285.668 831.481 285.958C836.406 286.243 840.554 282.011 840.866 276.62C840.921 275.672 840.196 274.858 839.247 274.803C838.299 274.748 837.485 275.473 837.43 276.422C837.223 280.011 834.596 282.691 831.682 282.522C828.765 282.35 826.464 279.385 826.672 275.795C826.726 274.846 826.002 274.033 825.053 273.978Z" fill="#253368"/>
<path fill-rule="evenodd" clip-rule="evenodd" d="M791.494 261.952L747.337 259.39C745.326 265.747 745.456 290.791 752.724 296.578C762.569 302.484 783.206 301.375 786.705 296.142C792.017 288.204 794.72 272.629 795.026 265.876C795.12 263.819 793.552 262.071 791.494 261.952Z" fill="white"/>
<path d="M747.387 258.532L791.544 261.094C794.07 261.24 796 263.386 795.884 265.915C795.451 275.482 792.021 289.743 787.42 296.62C783.439 302.573 762.056 303.179 752.282 297.315C745.697 292.082 743.595 268.37 746.518 259.131C746.636 258.756 746.994 258.509 747.387 258.532ZM747.975 260.288L747.862 260.708C745.587 270.028 747.687 291.469 753.26 295.906C762.245 301.288 782.616 300.711 785.991 295.664C790.385 289.097 793.746 275.119 794.167 265.837C794.24 264.247 793.03 262.902 791.445 262.81L747.975 260.288Z" fill="#253368"/>
<path d="M769.94 270.779C768.992 270.723 768.178 271.447 768.122 272.396C767.806 277.787 771.438 282.473 776.364 282.758C781.289 283.043 785.44 278.811 785.752 273.421C785.807 272.472 785.082 271.658 784.133 271.604C783.185 271.549 782.371 272.273 782.316 273.222C782.109 276.811 779.479 279.491 776.563 279.322C773.647 279.154 771.347 276.186 771.558 272.597C771.613 271.648 770.889 270.834 769.94 270.779Z" fill="#253368"/>
<path d="M808.181 262.313C806.757 262.267 805.566 263.385 805.52 264.81C805.478 266.139 806.449 267.265 807.737 267.446L808.017 267.47L856.438 269.009C857.862 269.054 859.053 267.936 859.098 266.512C859.141 265.183 858.17 264.056 856.882 263.875L856.602 263.851L808.181 262.313Z" fill="#253368"/>
<path d="M747.105 257.768C745.684 257.665 744.448 258.734 744.346 260.156C744.25 261.482 745.175 262.647 746.454 262.879L746.734 262.915L794.073 266.331C795.494 266.433 796.73 265.364 796.832 263.943C796.928 262.617 796.003 261.452 794.724 261.219L794.444 261.184L747.105 257.768Z" fill="#253368"/>
<path fill-rule="evenodd" clip-rule="evenodd" d="M876.086 269.192C881.174 264.14 888.947 262.86 894.316 268.893C902.968 278.611 894.136 313.998 870.298 315.05C861.279 313.634 868.143 277.073 876.086 269.192Z" fill="#FFC999"/>
<path fill-rule="evenodd" clip-rule="evenodd" d="M900.584 712.174C900.584 712.174 921.963 605.145 931.426 565.608C940.885 526.066 955.256 431.402 938.921 424.314C922.583 417.226 883.471 402.174 883.471 402.174C883.471 402.174 844.668 407.158 809.617 414.62C781.873 420.53 789.75 394.48 756.112 400.037C741.867 402.394 697.158 409.439 674.838 421.615C665.887 426.498 667.332 456.147 666.06 484.968C662.002 576.959 684.448 717.903 684.448 717.903C684.448 717.903 671.137 731.582 687.274 749.322C695.27 757.628 729.889 754.814 774.205 754.922C824.65 755.045 883.989 761.38 894.998 751.787C915.679 733.769 900.584 712.174 900.584 712.174Z" fill="#597EF7"/>
<path fill-rule="evenodd" clip-rule="evenodd" d="M770.387 386.213L804.206 418.681L763.623 447.091L746.038 403.799L770.387 386.213Z" fill="#597EF7"/>
<path fill-rule="evenodd" clip-rule="evenodd" d="M862.849 1608.06L791.759 935.106L788.926 933.712L714.305 1609.61C714.305 1609.61 658.666 1622.51 629.265 1604.86C628.119 1473.81 658.976 1048.1 672.035 853.692C674.136 822.392 683.758 779.849 685.678 768.022C775.006 752.927 896.023 774.696 896.023 774.696L901.251 790.389C902.268 793.441 902.884 796.616 903.078 799.827L959.167 1601.42C959.167 1601.42 904.188 1621.32 862.849 1608.06Z" fill="#ADC6FF"/>
<path d="M743.385 907.659C742.745 907.346 741.972 907.611 741.659 908.251C741.381 908.82 741.56 909.494 742.053 909.856L742.252 909.977L796.089 936.286C796.729 936.599 797.501 936.334 797.814 935.693C798.092 935.124 797.913 934.451 797.421 934.088L797.221 933.968L743.385 907.659Z" fill="#597EF7"/>
<path fill-rule="evenodd" clip-rule="evenodd" d="M895.537 751.507C895.537 751.507 781.792 734.697 687.24 751.258C686.461 759.64 685.651 769.961 685.651 769.961C685.651 769.961 766.557 775.532 897.372 778.757C897.008 756.008 895.537 751.507 895.537 751.507Z" fill="#ADC6FF"/>
<path d="M858.69 775.535C817.257 772.164 774.726 770.867 735.008 772.85C718.316 773.683 702.568 775.09 687.92 777.119C687.214 777.217 686.721 777.868 686.819 778.574C686.917 779.279 687.568 779.772 688.274 779.675C702.843 777.656 718.517 776.256 735.137 775.427C774.727 773.45 817.151 774.744 858.481 778.107L865.041 778.66C871.464 779.22 877.467 779.801 882.989 780.385L889.183 781.063L893.593 781.582C894.014 781.633 894.334 781.674 894.551 781.701C895.257 781.792 895.904 781.293 895.995 780.587C896.086 779.88 895.587 779.233 894.88 779.142L892.335 778.831C890.554 778.62 888.52 778.388 886.246 778.139L881.397 777.624C874.499 776.91 866.894 776.202 858.69 775.535Z" fill="#597EF7"/>
<path d="M859.146 747.128C817.713 743.758 775.182 742.461 735.464 744.443C718.772 745.277 703.024 746.683 688.376 748.712C687.67 748.81 687.177 749.461 687.275 750.167C687.373 750.873 688.024 751.366 688.73 751.268C703.299 749.25 718.973 747.85 735.593 747.02C775.183 745.044 817.607 746.338 858.937 749.7L863.341 750.067C869.856 750.623 875.958 751.201 881.587 751.784L888.607 752.54L895.007 753.295C895.713 753.386 896.36 752.887 896.451 752.18C896.542 751.473 896.042 750.827 895.336 750.736L892.791 750.425C891.307 750.249 889.647 750.058 887.818 749.856L881.853 749.218C874.955 748.504 867.349 747.796 859.146 747.128Z" fill="#597EF7"/>
<path d="M781.575 748.899C780.862 748.883 780.271 749.446 780.253 750.158L780.111 756.889C780.055 759.778 780.001 762.962 779.949 766.409C779.521 794.975 779.495 825.281 780.136 853.677L780.295 860.137C780.993 886.355 782.26 908.337 784.189 924.822C784.272 925.53 784.913 926.036 785.62 925.953C786.328 925.87 786.835 925.23 786.752 924.522L786.446 921.815C784.548 904.368 783.337 881.172 782.715 853.619C782.125 827.442 782.101 799.63 782.438 773.062L782.551 764.988L782.832 750.222C782.85 749.51 782.287 748.918 781.575 748.899Z" fill="#597EF7"/>
<path fill-rule="evenodd" clip-rule="evenodd" d="M759.457 758.231C759.407 761.438 761.389 764.072 763.886 764.115C766.379 764.155 768.444 761.586 768.495 758.375C768.545 755.168 766.567 752.534 764.07 752.49C761.572 752.451 759.507 755.02 759.457 758.231Z" fill="white"/>
<path fill-rule="evenodd" clip-rule="evenodd" d="M804.024 416.035L835.328 457.223L882.098 402.262L864.971 380.85L804.024 416.035Z" fill="#597EF7"/>
<path d="M802.618 418.263C801.726 417.935 800.737 418.392 800.409 419.284L800.084 420.245L799.763 421.273C799.65 421.645 799.531 422.048 799.406 422.48L799.214 423.152C798.429 425.935 797.57 429.357 796.653 433.467L796.147 435.777C793.077 450.054 790.011 468.931 787.139 493.001L786.375 499.569C783.291 526.783 780.642 558.751 778.551 595.854L778.378 598.957C775.263 655.51 775.984 704.025 778.697 740.29C778.768 741.238 779.594 741.949 780.542 741.878C781.489 741.807 782.2 740.981 782.129 740.034L781.861 736.318C779.426 701.25 778.833 655.278 781.66 602.007L781.814 599.147C783.927 560.785 786.632 527.86 789.794 499.959L790.311 495.478C793.241 470.518 796.378 451.074 799.512 436.501L800.011 434.222C800.832 430.539 801.605 427.426 802.315 424.845L802.526 424.087C802.779 423.192 803.008 422.421 803.212 421.768L803.562 420.69C803.595 420.593 803.621 420.52 803.638 420.472C803.967 419.581 803.51 418.592 802.618 418.263Z" fill="#253368"/>
<path d="M665.811 478.238C664.972 477.535 663.79 477.661 663.106 478.492C662.815 478.845 662.659 479.242 662.535 479.758C662.393 480.348 662.289 481.173 662.215 482.256L662.18 482.818C662.054 485.093 662.033 488.4 662.119 492.635L662.166 494.656C662.448 505.395 663.317 520.781 664.716 539.257L665.239 545.993C668.732 590.012 674.561 644.657 682.39 704.026L683.227 710.309L682.907 711.13L682.63 711.875C682.059 713.438 681.489 715.166 680.956 717.015C679.663 721.503 678.8 725.96 678.569 730.156C678.182 737.165 679.588 742.871 683.318 746.722C683.98 747.405 685.069 747.422 685.752 746.761C686.434 746.1 686.452 745.011 685.79 744.328C682.849 741.291 681.666 736.489 682.005 730.346C682.22 726.44 683.036 722.226 684.263 717.968C684.67 716.554 685.101 715.213 685.536 713.97L686.122 712.358C686.321 711.831 686.477 711.442 686.576 711.208C686.695 710.925 686.737 710.615 686.696 710.311L685.362 700.224C677.616 641.094 671.874 586.801 668.474 543.246L668.015 537.226C666.785 520.766 665.989 506.869 665.668 496.689L665.562 492.699C665.481 488.781 665.492 485.68 665.592 483.497L665.616 483.009C665.655 482.306 665.705 481.723 665.761 481.275L665.822 480.861L665.848 480.845L666.026 480.662C666.636 479.933 666.54 478.848 665.811 478.238Z" fill="#253368"/>
<path d="M753.507 470.788L755.871 470.991C756.636 471.06 757.376 471.13 758.09 471.201L761.579 471.573L762.646 471.701C763.589 471.822 764.276 472.656 764.215 473.605L760.049 537.798C760.009 538.407 759.664 538.955 759.131 539.254L724.357 558.709C723.76 559.043 723.026 559.01 722.461 558.625L695.601 540.286C695.11 539.951 694.816 539.396 694.815 538.802L694.839 527.119L694.88 519.668C694.965 506.76 695.123 492.393 695.373 476.821C695.385 476.127 695.793 475.501 696.424 475.212C703.207 472.104 713.004 470.47 725.076 470.01C734.196 469.662 743.949 470.005 753.507 470.788ZM723.929 473.665C713.732 474.133 705.338 475.494 699.367 477.872L698.96 478.039L698.733 493.863C698.63 502.087 698.553 509.9 698.501 517.257L698.428 531.178L698.419 537.845L723.572 555.017L756.517 536.586L760.51 475.077L759.767 474.997C757.815 474.786 755.615 474.576 753.213 474.379C743.787 473.607 734.17 473.27 725.213 473.611L723.929 473.665Z" fill="#253368"/>
<path fill-rule="evenodd" clip-rule="evenodd" d="M801.589 446.994C801.539 450.205 803.665 452.839 806.338 452.882C809.012 452.925 811.221 450.36 811.275 447.149C811.326 443.942 809.2 441.304 806.526 441.261C803.848 441.218 801.639 443.783 801.589 446.994Z" fill="white"/>
<path fill-rule="evenodd" clip-rule="evenodd" d="M793.861 505.959C793.811 509.167 795.937 511.804 798.611 511.848C801.284 511.891 803.493 509.325 803.547 506.114C803.598 502.907 801.472 500.269 798.798 500.226C796.121 500.183 793.912 502.749 793.861 505.959Z" fill="white"/>
<path fill-rule="evenodd" clip-rule="evenodd" d="M788.961 569.813C788.91 573.023 791.036 575.658 793.71 575.701C796.384 575.744 798.593 573.178 798.647 569.968C798.698 566.76 796.571 564.123 793.898 564.079C791.22 564.036 789.011 566.605 788.961 569.813Z" fill="white"/>
<path fill-rule="evenodd" clip-rule="evenodd" d="M787.027 629.84C786.977 633.047 789.103 635.685 791.777 635.728C794.45 635.771 796.659 633.205 796.713 629.995C796.764 626.788 794.638 624.15 791.964 624.106C789.29 624.063 787.081 626.629 787.027 629.84Z" fill="white"/>
<path fill-rule="evenodd" clip-rule="evenodd" d="M786.721 709.266C786.671 712.477 788.797 715.111 791.47 715.154C794.144 715.197 796.353 712.632 796.407 709.421C796.458 706.214 794.332 703.576 791.658 703.533C788.98 703.489 786.771 706.055 786.721 709.266Z" fill="white"/>
<path d="M882.605 402.631C881.947 402.072 880.989 402.095 880.359 402.648L880.18 402.83L836.29 454.587L804.954 418.136C804.391 417.481 803.442 417.354 802.733 417.801L802.528 417.953C801.873 418.516 801.745 419.465 802.193 420.174L802.345 420.379L834.992 458.361C835.625 459.096 836.722 459.154 837.428 458.537L837.61 458.352L882.805 405.056C883.42 404.331 883.33 403.245 882.605 402.631Z" fill="#253368"/>
<path d="M751.588 404.96C751.299 404.054 750.332 403.554 749.426 403.842C748.596 404.106 748.106 404.942 748.253 405.777L748.309 406.004L761.984 448.965C762.322 450.027 763.548 450.474 764.479 449.936L764.674 449.806L803.419 419.954C804.171 419.374 804.312 418.294 803.732 417.541C803.204 416.857 802.263 416.679 801.531 417.088L801.318 417.228L764.52 445.581L751.588 404.96Z" fill="#253368"/>
<path d="M753.272 773.763C752.568 773.658 751.911 774.144 751.806 774.848L751.473 777.311L751.394 777.941C751.086 780.412 750.779 783.209 750.492 786.276C749.181 800.28 748.735 814.725 749.667 828.233C751.841 859.748 761.011 879.744 779.621 882.278C780.327 882.374 780.977 881.88 781.073 881.174C781.169 880.468 780.675 879.818 779.969 879.722C763.032 877.415 754.339 858.458 752.241 828.056C751.32 814.706 751.762 800.392 753.06 786.516L753.309 783.978C753.477 782.331 753.65 780.778 753.824 779.328L754.108 777.054L754.358 775.229C754.463 774.524 753.977 773.868 753.272 773.763Z" fill="#597EF7"/>
<path d="M886.825 274.08C886.558 273.419 885.806 273.1 885.146 273.368L884.694 273.568C884.425 273.694 884.096 273.86 883.72 274.068C882.684 274.639 881.649 275.331 880.678 276.15C877.105 279.167 875.314 283.076 876.416 287.807C876.833 289.599 877.657 290.556 879.19 291.469L879.85 291.84C881.166 292.559 881.494 292.915 881.616 294.032C881.848 296.176 880.873 297.778 879 299.006C878.378 299.415 877.702 299.746 877.027 300.004L876.422 300.215C876.316 300.248 876.231 300.271 876.17 300.286C875.478 300.455 875.054 301.154 875.223 301.846C875.393 302.538 876.091 302.962 876.783 302.793C877.721 302.563 879.061 302.052 880.416 301.164C883.029 299.449 884.53 296.982 884.181 293.753C883.964 291.756 883.183 290.791 881.469 289.791L880.833 289.436C879.621 288.769 879.184 288.316 878.929 287.222C878.076 283.557 879.446 280.568 882.343 278.122C883.174 277.42 884.07 276.821 884.965 276.327C885.497 276.035 885.901 275.845 886.113 275.759C886.774 275.492 887.093 274.74 886.825 274.08Z" fill="#DD936F"/>
<path fill-rule="evenodd" clip-rule="evenodd" d="M433.58 389.113C433.58 389.113 396.514 278.622 354.548 251.805C342.054 252.266 353.77 268.723 362.465 282.19C366.912 289.076 369.845 297.775 369.845 297.775C369.845 297.775 352.71 295.984 355.996 310.528C342.267 309.865 347.236 325.23 347.236 325.23C347.236 325.23 336.682 325.252 340.076 339.525C342.408 349.338 355.629 360.919 358.66 371.243C370.346 411.055 389.542 413.257 397.25 414.478C416.759 417.563 428.737 410.136 433.58 389.113Z" fill="#FFC999"/>
<path d="M409.501 339.219L394.477 306.685L394.102 305.276C390.778 293.339 385.511 288.453 380.999 292.763C377.119 296.469 376.433 305.928 379.909 314.528C386.827 331.643 387.525 339.563 385.037 348.903L384.216 351.89C383.753 353.659 383.486 355.079 383.375 356.586C382.897 363.049 383.212 369.067 385.011 374.873C387.639 383.355 393.074 389.332 401.907 391.744C402.594 391.932 403.303 391.527 403.491 390.84C403.679 390.152 403.274 389.443 402.586 389.255C388.609 385.439 384.749 372.982 385.948 356.776C386.032 355.637 386.22 354.538 386.541 353.221L386.894 351.862C387.007 351.448 387.149 350.943 387.36 350.194L387.689 348.956C390.132 339.318 389.277 330.82 382.301 313.561C379.182 305.844 379.788 297.488 382.781 294.628C385.196 292.322 388.763 295.646 391.664 306.076L392.055 307.543L407.158 340.299C407.456 340.946 408.222 341.229 408.869 340.93C409.444 340.665 409.732 340.03 409.579 339.438L409.501 339.219Z" fill="#DD936F"/>
<path d="M355.428 309.371C354.788 309.684 354.523 310.457 354.837 311.097L355.326 312.07C355.718 312.837 356.164 313.69 356.659 314.609C358.073 317.236 359.589 319.864 361.149 322.321C362.819 324.951 364.444 327.231 365.994 329.063C369.155 332.798 371.918 334.627 374.448 333.852C380.133 332.111 381.878 327.926 380.455 322.486C379.915 320.426 378.948 318.263 377.676 316.067C376.981 314.868 376.239 313.734 375.495 312.697L374.901 311.889C374.731 311.664 374.591 311.486 374.487 311.358C374.038 310.806 373.225 310.722 372.673 311.172C372.12 311.621 372.036 312.434 372.486 312.986L373.016 313.676C373.132 313.831 373.26 314.007 373.398 314.2C374.096 315.173 374.793 316.239 375.443 317.36C376.609 319.372 377.486 321.334 377.958 323.139C379.06 327.348 377.916 330.092 373.693 331.385C372.542 331.737 370.485 330.375 367.963 327.396C366.499 325.666 364.939 323.477 363.327 320.938C361.803 318.538 360.317 315.963 358.931 313.387L358.239 312.085L357.154 309.962C356.84 309.322 356.068 309.057 355.428 309.371Z" fill="#DD936F"/>
<path d="M349.099 325.56C348.87 324.886 348.138 324.524 347.463 324.752C346.788 324.981 346.426 325.713 346.655 326.388L346.946 327.195L347.329 328.187C347.467 328.534 347.615 328.896 347.773 329.272C348.677 331.418 349.722 333.565 350.9 335.577C354.559 341.824 358.689 345.513 363.402 345.141C368.037 344.775 370.201 341.743 370.325 337.276C370.371 335.65 370.147 333.937 369.747 332.237C369.529 331.31 369.309 330.587 369.156 330.16C368.916 329.489 368.178 329.139 367.507 329.379C366.836 329.619 366.487 330.357 366.726 331.028L366.869 331.463C366.977 331.813 367.106 332.278 367.235 332.828C367.588 334.328 367.785 335.83 367.746 337.205C367.655 340.479 366.34 342.321 363.198 342.569C359.797 342.837 356.327 339.738 353.126 334.273C352.011 332.368 351.014 330.32 350.151 328.271L349.727 327.236L349.197 325.841C349.153 325.718 349.12 325.624 349.099 325.56Z" fill="#DD936F"/>
<path d="M339.402 336.151C338.71 336.321 338.286 337.019 338.456 337.711L338.653 338.449L339.016 339.672C339.084 339.888 339.155 340.11 339.23 340.338C339.871 342.291 340.643 344.245 341.551 346.077C344.915 352.871 349.282 356.41 354.704 354.331C358.544 352.858 360.05 350.103 359.47 346.701C359.186 345.035 358.426 343.315 357.341 341.591C356.866 340.836 356.358 340.129 355.85 339.488L355.373 338.906C355.285 338.803 355.211 338.719 355.152 338.654C354.673 338.128 353.857 338.09 353.33 338.57C352.803 339.049 352.765 339.865 353.245 340.392L353.538 340.733C353.624 340.835 353.721 340.955 353.828 341.091C354.281 341.662 354.735 342.294 355.157 342.964C356.077 344.427 356.708 345.856 356.926 347.135C357.303 349.342 356.453 350.897 353.78 351.922C350.024 353.362 346.707 350.675 343.863 344.932C343.015 343.22 342.287 341.377 341.681 339.533C341.54 339.102 341.412 338.693 341.298 338.308L340.962 337.097C340.811 336.482 340.243 336.079 339.632 336.116L339.402 336.151Z" fill="#DD936F"/>
<path d="M543.612 524.449C542.8 524.941 542.54 525.999 543.033 526.812L544.981 529.968L546.816 532.889C548.313 535.257 549.948 537.804 551.703 540.496C558.389 550.751 565.452 561.006 572.577 570.582C577.738 577.519 582.745 583.843 587.534 589.415C596.659 600.034 604.739 607.639 611.563 611.647C612.039 611.927 612.615 611.958 613.113 611.744L613.355 611.617L669.671 575.935C670.473 575.426 670.712 574.363 670.203 573.56C669.741 572.831 668.82 572.567 668.054 572.907L667.829 573.028L612.418 608.138L611.957 607.848C606.025 604.023 598.973 597.332 591.06 588.233L590.144 587.172C585.412 581.666 580.454 575.404 575.338 568.528C568.26 559.014 561.235 548.816 554.585 538.616L552.88 535.988C551.494 533.84 550.194 531.8 548.992 529.889L547.196 527.014L545.976 525.029C545.483 524.216 544.425 523.956 543.612 524.449Z" fill="#253368"/>
<path d="M519.73 530.591C519.399 529.96 518.619 529.718 517.988 530.049C517.428 530.344 517.174 530.992 517.357 531.576L517.446 531.791L547.705 589.379C548.036 590.009 548.816 590.252 549.447 589.921C550.008 589.626 550.262 588.977 550.078 588.394L549.989 588.179L519.73 530.591Z" fill="#DD936F"/>
<path fill-rule="evenodd" clip-rule="evenodd" d="M1016.75 724.434C1039.33 715.025 1050.64 689.627 1042.52 666.554L968.972 457.536C958.155 426.798 923.723 411.468 893.641 424.001C863.912 436.387 850.445 471.006 863.988 500.223L957.171 701.256C967.585 723.727 993.891 733.958 1016.75 724.434Z" fill="#FFC999"/>
<path fill-rule="evenodd" clip-rule="evenodd" d="M1013.71 583.392L967.627 450.776C954.413 421.955 905.827 410.521 877.244 424.247C848.665 437.973 836.895 472.473 851.129 500.803L916.158 630.242C916.158 630.242 989.151 613.237 1013.71 583.392Z" fill="#597EF7"/>
<path d="M881.368 532.547C880.996 531.673 879.985 531.265 879.111 531.637C878.316 531.976 877.907 532.842 878.119 533.653L878.201 533.895L918.788 629.265C919.136 630.083 920.05 630.501 920.897 630.23L924.478 629.045L927.792 627.916C930.477 626.991 933.367 625.973 936.421 624.868C948.054 620.658 959.688 616.065 970.554 611.24L973.691 609.83C990.199 602.323 1003.14 594.983 1011.31 588.005C1012.66 586.852 1013.87 585.71 1014.95 584.58C1015.61 583.893 1015.58 582.803 1014.89 582.147C1014.21 581.492 1013.12 581.517 1012.46 582.205C1011.47 583.246 1010.34 584.308 1009.07 585.389C1000.71 592.534 986.885 600.222 969.158 608.094C958.374 612.883 946.812 617.447 935.25 621.632L932.27 622.701C929.834 623.568 927.521 624.374 925.354 625.114L921.337 626.465L881.368 532.547Z" fill="#253368"/>
<path fill-rule="evenodd" clip-rule="evenodd" d="M733.46 699.412C734.786 712.839 745.935 723.16 759.427 723.451L996.574 728.568C1023.81 729.156 1045.6 706.119 1043.51 678.959C1041.47 652.415 1017.41 633.122 991.057 636.884L756.234 670.386C742.094 672.404 732.055 685.2 733.46 699.412Z" fill="#FFC999"/>
<path fill-rule="evenodd" clip-rule="evenodd" d="M752.87 760.395L700.73 597.296C699.869 594.604 697.39 592.767 694.565 592.731L548.359 590.752C543.819 590.691 540.59 595.149 542.064 599.444L596.491 758.211C597.367 760.766 599.716 762.521 602.412 762.64L746.329 768.953C750.895 769.152 754.261 764.748 752.87 760.395Z" fill="#4E5C93"/>
<path fill-rule="evenodd" clip-rule="evenodd" d="M745.163 758.406L693.932 598.147C692.89 594.893 689.885 592.666 686.465 592.619L538.454 590.615C535.28 590.576 533.02 593.693 534.051 596.695L589.235 757.66C590.204 760.489 592.803 762.435 595.79 762.564L737.242 768.77C742.77 769.011 746.849 763.674 745.163 758.406Z" fill="#253368"/>
<path fill-rule="evenodd" clip-rule="evenodd" d="M673.889 608.063C672.235 609.904 672.83 613.137 675.219 615.288C677.608 617.436 680.887 617.684 682.545 615.846C684.199 614.005 683.605 610.769 681.215 608.621C678.826 606.47 675.543 606.221 673.889 608.063Z" fill="#ADC6FF"/>
<path fill-rule="evenodd" clip-rule="evenodd" d="M675.855 609.988C674.994 610.943 675.303 612.622 676.543 613.739C677.786 614.853 679.487 614.982 680.348 614.027C681.206 613.072 680.896 611.393 679.657 610.276C678.417 609.163 676.712 609.033 675.855 609.988Z" fill="#E4EBF7"/>
<path fill-rule="evenodd" clip-rule="evenodd" d="M687.786 729.727C679.386 728.913 674.968 725.399 675.765 718.401C665.66 715.223 666.788 706.665 666.788 706.665C666.788 706.665 647.34 706.366 644.068 698.056C642.796 694.827 645.265 691.375 648.724 691.141C690.391 688.316 720.102 666.237 720.102 666.237C720.102 666.237 703.721 642.183 705.454 631.081C705.966 627.798 710.258 626.739 712.265 629.387C729.443 652.057 763.889 669.833 763.889 669.833C763.889 669.833 805.239 708.575 760.386 726.142C760.386 726.142 726.192 739.767 702.387 738.041C691.116 737.226 687.786 729.727 687.786 729.727Z" fill="#FFC999"/>
<path d="M697.433 699.278C697.085 698.656 696.299 698.434 695.677 698.782C692.694 700.45 689.207 701.809 685.318 702.883C680.683 704.163 675.706 704.981 670.698 705.426L669.175 705.55C667.213 705.696 665.531 705.763 664.22 705.779L663.251 705.782C662.539 705.772 661.954 706.342 661.944 707.054C661.935 707.695 662.396 708.233 663.007 708.342L663.216 708.361L663.748 708.363C665.492 708.358 667.962 708.259 670.926 707.996C676.078 707.538 681.204 706.695 686.005 705.37C690.081 704.244 693.757 702.811 696.937 701.034C697.558 700.686 697.781 699.9 697.433 699.278Z" fill="#DD936F"/>
<path d="M701.354 712.083C701.044 711.442 700.273 711.173 699.631 711.483C699.247 711.669 698.86 711.85 698.469 712.026C693.521 714.258 688.208 715.69 682.873 716.476C679.577 716.961 676.937 717.118 675.294 717.106C674.562 717.096 673.976 717.666 673.967 718.378C673.958 719.02 674.418 719.558 675.03 719.666L675.239 719.686H675.702L676.656 719.665C678.357 719.604 680.606 719.417 683.248 719.028C688.805 718.21 694.345 716.717 699.53 714.378C699.941 714.193 700.35 714.002 700.754 713.806C701.396 713.496 701.664 712.725 701.354 712.083Z" fill="#DD936F"/>
<path d="M708.77 726.391C708.46 725.749 707.689 725.481 707.047 725.791C705.675 726.455 702.435 727.074 698.029 727.582C695.776 727.842 693.358 728.059 690.94 728.234L687.721 728.439C687.009 728.475 686.462 729.081 686.498 729.793C686.534 730.504 687.14 731.052 687.852 731.016L690.495 730.852L691.126 730.807C693.578 730.63 696.031 730.41 698.324 730.146L699.933 729.949C703.815 729.446 706.642 728.853 708.171 728.114C708.812 727.804 709.081 727.032 708.77 726.391Z" fill="#DD936F"/>
<path d="M990.884 635.605L761.917 666.883C761.211 666.98 760.717 667.63 760.813 668.336C760.9 668.972 761.435 669.435 762.056 669.451L762.266 669.44L991.233 638.161C991.939 638.065 992.433 637.414 992.337 636.708C992.25 636.073 991.715 635.609 991.094 635.593L990.884 635.605Z" fill="#DD936F"/>
</g>
<path d="M996.937 242.062H982.062C973.226 242.062 966.063 249.226 966.062 258.062L966.062 272.937C966.062 281.774 973.226 288.938 982.062 288.938H996.937C1005.77 288.938 1012.94 281.774 1012.94 272.938V258.062C1012.94 249.226 1005.77 242.062 996.937 242.062Z" fill="#597EF7"/>
<path d="M923.25 358C923.25 365.594 929.406 371.75 937 371.75C944.594 371.75 950.75 365.594 950.75 358C950.75 350.406 944.594 344.25 937 344.25C929.406 344.25 923.25 350.406 923.25 358Z" fill="#597EF7"/>
<path d="M976.25 779.312H955.75C946.913 779.312 939.75 786.476 939.75 795.312L939.75 817.687C939.75 826.524 946.913 833.688 955.75 833.688H976.25C985.087 833.688 992.25 826.524 992.25 817.688V795.312C992.25 786.476 985.087 779.312 976.25 779.312Z" fill="#597EF7"/>
</g>
<defs>
<filter id="filter0_d_8047_9371" x="0" y="0" width="1059" height="916" filterUnits="userSpaceOnUse" color-interpolation-filters="sRGB">
<feFlood flood-opacity="0" result="BackgroundImageFix"/>
<feColorMatrix in="SourceAlpha" type="matrix" values="0 0 0 0 0 0 0 0 0 0 0 0 0 0 0 0 0 0 127 0" result="hardAlpha"/>
<feOffset dy="4"/>
<feGaussianBlur stdDeviation="2"/>
<feColorMatrix type="matrix" values="0 0 0 0 0 0 0 0 0 0 0 0 0 0 0 0 0 0 0.25 0"/>
<feBlend mode="normal" in2="BackgroundImageFix" result="effect1_dropShadow_8047_9371"/>
<feBlend mode="normal" in="SourceGraphic" in2="effect1_dropShadow_8047_9371" result="shape"/>
</filter>
<clipPath id="clip0_8047_9371">
<rect width="1059" height="908" fill="white" transform="translate(4)"/>
</clipPath>
<clipPath id="clip1_8047_9371">
<rect x="257" width="1059" height="908" rx="454" fill="white"/>
</clipPath>
</defs>
</svg>
