<svg width="1440" height="1440" viewBox="0 0 1440 1440" fill="none" xmlns="http://www.w3.org/2000/svg">
<path d="M399.075 320.984H261.448C257.714 320.984 254.687 324.011 254.687 327.745V520.085H377.635C377.635 540.733 395.292 555.162 415.975 555.056C436.302 554.954 452.931 537.722 452.931 517.397V374.575H417.045C411.321 374.575 399.075 362.045 399.075 356.324V320.984Z" fill="#E4EBF7"/>
<path d="M377.905 519.479H236.895C236.895 537.925 250.312 551.26 267.915 554.216L274.113 554.734L415.405 554.452C394.853 554.452 377.382 538.668 377.905 519.479Z" fill="#253368"/>
<path d="M315.312 339.024H284.527C283.071 339.024 281.891 340.205 281.891 341.661V372.445C281.891 373.902 283.071 375.082 284.527 375.082H315.312C316.768 375.082 317.948 373.902 317.948 372.445V341.661C317.948 340.205 316.768 339.024 315.312 339.024Z" fill="#597EF7"/>
<path d="M414.408 392.829H284.465C283.009 392.829 281.829 394.01 281.829 395.466V399.207C281.829 400.663 283.009 401.844 284.465 401.844H414.408C415.864 401.844 417.045 400.663 417.045 399.207V395.466C417.045 394.01 415.864 392.829 414.408 392.829Z" fill="#597EF7"/>
<path d="M414.408 419.971H284.465C283.009 419.971 281.829 421.152 281.829 422.608V426.349C281.829 427.805 283.009 428.986 284.465 428.986H414.408C415.864 428.986 417.045 427.805 417.045 426.349V422.608C417.045 421.152 415.864 419.971 414.408 419.971Z" fill="#597EF7"/>
<path d="M414.408 447.113H284.465C283.009 447.113 281.829 448.294 281.829 449.75V453.491C281.829 454.947 283.009 456.127 284.465 456.127H414.408C415.864 456.127 417.045 454.947 417.045 453.491V449.75C417.045 448.294 415.864 447.113 414.408 447.113Z" fill="#597EF7"/>
<path opacity="0.6" d="M399.058 365.952V372.995C399.058 374.508 399.688 375.953 400.797 376.983C401.907 378.012 403.394 378.533 404.904 378.42L453.114 374.834L399.058 365.952Z" fill="#CCD7EE"/>
<path d="M427.003 347.819L398.999 320.812L399.072 372.572C399.072 373.817 400.081 374.826 401.326 374.826H453.114L427.003 347.819Z" fill="#FAAD14"/>
<path d="M1250.21 947.273H1094.11C1089.23 947.273 1085.27 951.219 1085.27 956.086V1196.61C1085.27 1201.47 1089.23 1205.42 1094.11 1205.42H1288.25C1293.14 1205.42 1297.09 1201.47 1297.09 1196.61V994.364L1250.21 947.273Z" fill="#597EF7"/>
<path d="M1250.21 946.906L1250.29 985.57C1250.29 990.437 1254.24 994.383 1259.13 994.383H1297.09" fill="#E4EBF7"/>
<path d="M1179.49 970.841H1023.75C1018.86 970.841 1014.91 974.787 1014.91 979.654V1220.17C1014.91 1225.04 1018.86 1228.99 1023.75 1228.99H1218.26C1223.14 1228.99 1227.1 1225.04 1227.1 1220.17V1022.33H1193.12C1188.24 1022.33 1179.49 1018.39 1179.49 1013.52V970.841Z" fill="#E4EBF7"/>
<path d="M1079.2 994.316H1044.17C1040.83 994.316 1038.11 997.031 1038.11 1000.38V1035.26C1038.11 1038.6 1040.83 1041.32 1044.17 1041.32H1079.2C1082.55 1041.32 1085.27 1038.6 1085.27 1035.26V1000.38C1085.27 997.031 1082.55 994.316 1079.2 994.316Z" fill="#597EF7"/>
<path d="M1200.95 1064.82H1040.31C1039.1 1064.82 1038.11 1065.81 1038.11 1067.02V1074.37C1038.11 1075.59 1039.1 1076.57 1040.31 1076.57H1200.95C1202.16 1076.57 1203.15 1075.59 1203.15 1074.37V1067.02C1203.15 1065.81 1202.16 1064.82 1200.95 1064.82Z" fill="#597EF7"/>
<path d="M1200.95 1100.03H1040.31C1039.1 1100.03 1038.11 1101.02 1038.11 1102.23V1109.58C1038.11 1110.8 1039.1 1111.78 1040.31 1111.78H1200.95C1202.16 1111.78 1203.15 1110.8 1203.15 1109.58V1102.23C1203.15 1101.02 1202.16 1100.03 1200.95 1100.03Z" fill="#FF7946"/>
<path d="M1200.95 1135.28H1040.31C1039.1 1135.28 1038.11 1136.27 1038.11 1137.49V1144.83C1038.11 1146.05 1039.1 1147.03 1040.31 1147.03H1200.95C1202.16 1147.03 1203.15 1146.05 1203.15 1144.83V1137.49C1203.15 1136.27 1202.16 1135.28 1200.95 1135.28Z" fill="#FAAD14"/>
<path d="M1179.49 970.841V1013.52C1179.49 1018.39 1183.45 1022.33 1188.33 1022.33H1227.1" fill="white"/>
<g clip-path="url(#clip0_8949_10715)">
<path fill-rule="evenodd" clip-rule="evenodd" d="M558 1669.56C558 1669.56 482.242 1132.08 524.967 1106.75C567.688 1081.42 699.703 1117.58 714.243 1194.45C728.784 1271.31 716.133 1671.02 716.133 1671.02C716.133 1671.02 732.545 1717.01 713.789 1732.68C687.249 1746.67 655.456 1700.79 576.685 1718.93C538.142 1704.18 558 1669.56 558 1669.56Z" fill="#4E5C93"/>
<path fill-rule="evenodd" clip-rule="evenodd" d="M697.334 1217.86L821.36 1674.16C821.36 1674.16 808.453 1739.76 853.217 1749.54C867.136 1752.59 892.34 1735.2 921.931 1730.73C951.521 1726.26 985.503 1734.7 992.416 1722.46C1006.23 1697.98 989.082 1661.56 989.082 1661.56C989.082 1661.56 930.187 1271.98 909.887 1126.9C901.634 1067.91 705.382 1132.25 697.334 1217.86Z" fill="#4E5C93"/>
<path d="M666.239 1033.95C665.297 1033.96 664.521 1034.66 664.401 1035.57L664.385 1035.82L664.578 1096.62C664.582 1097.64 665.417 1098.47 666.445 1098.47C667.386 1098.47 668.162 1097.76 668.283 1096.86L668.299 1096.6L668.105 1035.81C668.102 1034.78 667.267 1033.95 666.239 1033.95Z" fill="#253368"/>
<path fill-rule="evenodd" clip-rule="evenodd" d="M526.556 1029.34C526.556 1029.34 507.975 1146.44 512.815 1192.71C517.652 1238.98 643.65 1288.75 714.85 1290.98C753.069 1292.18 891.832 1249.5 905.193 1193.54C922.082 1122.8 910.737 1100.93 900.877 1070.41C893.771 1048.41 884.097 1020.11 884.097 1020.11C884.097 1020.11 557.966 1030.33 526.556 1029.34Z" fill="#4E5C93"/>
<path d="M667.359 1110.58C666.337 1110.47 665.426 1111.22 665.325 1112.24L665.168 1114.08L665.052 1115.65C664.976 1116.75 664.9 1117.96 664.828 1119.27C662.906 1154.23 665.679 1194.89 676.901 1233.64C679.719 1243.37 683.021 1252.69 686.836 1261.54C687.243 1262.48 688.337 1262.92 689.281 1262.51C690.224 1262.11 690.659 1261.01 690.253 1260.07C686.501 1251.37 683.251 1242.19 680.475 1232.61C669.624 1195.14 666.762 1155.76 668.428 1121.69L668.543 1119.47C668.632 1117.86 668.726 1116.41 668.821 1115.12L669.028 1112.61C669.129 1111.59 668.382 1110.68 667.359 1110.58Z" fill="#253368"/>
<path d="M895.606 1063.04C895.25 1062.08 894.18 1061.58 893.216 1061.94C820.201 1088.92 753.533 1102.91 693.369 1106.13C647.74 1108.57 608.94 1104.73 577.128 1096.82C568.909 1094.78 561.763 1092.61 555.698 1090.42L554.415 1089.96C552.522 1089.26 550.86 1088.6 549.431 1088L548.736 1087.71C547.8 1087.31 547.184 1087.03 546.888 1086.88C545.965 1086.43 544.851 1086.81 544.4 1087.74C543.95 1088.66 544.333 1089.77 545.256 1090.23L545.635 1090.4C545.94 1090.55 546.35 1090.73 546.864 1090.95L547.269 1091.13C548.905 1091.83 550.857 1092.61 553.126 1093.45C559.585 1095.83 567.291 1098.21 576.231 1100.44C608.397 1108.43 647.566 1112.31 693.568 1109.85C754.108 1106.6 821.144 1092.54 894.506 1065.43C895.47 1065.07 895.962 1064 895.606 1063.04Z" fill="#253368"/>
<path d="M528.143 1027.53C527.116 1027.5 526.261 1028.31 526.232 1029.34C526.207 1030.28 526.886 1031.08 527.79 1031.22L528.042 1031.25L885.174 1040.94C886.201 1040.97 887.056 1040.16 887.085 1039.13C887.109 1038.19 886.431 1037.39 885.527 1037.25L885.275 1037.22L528.143 1027.53Z" fill="#253368"/>
<path fill-rule="evenodd" clip-rule="evenodd" d="M789.563 482.269L795.68 577.85C798.444 621.025 764.374 657.663 721.113 658.039C678.031 658.411 643.406 622.662 645.148 579.617L649.058 482.983L789.563 482.269Z" fill="#9E7D6C"/>
<path fill-rule="evenodd" clip-rule="evenodd" d="M604.967 491.973C608.758 507.075 620.456 517.155 631.105 514.483C641.753 511.812 647.312 497.401 643.521 482.299C639.733 467.197 628.028 457.117 617.383 459.789C606.734 462.46 601.175 476.867 604.967 491.973Z" fill="#9E7D6C"/>
<path fill-rule="evenodd" clip-rule="evenodd" d="M827.282 493.318C822.438 508.119 810.052 517.346 799.619 513.931C789.19 510.519 784.658 495.751 789.502 480.954C794.343 466.153 806.733 456.926 817.162 460.338C827.595 463.753 832.126 478.517 827.282 493.318Z" fill="#9E7D6C"/>
<path fill-rule="evenodd" clip-rule="evenodd" d="M807.211 480.39C807.211 549.301 789.054 569.556 720.954 571.298C662.651 572.786 628.42 555.589 628.42 480.39C628.42 420.099 668.444 380.987 717.817 380.987C767.187 380.987 807.211 426.384 807.211 480.39Z" fill="#B0927B"/>
<path fill-rule="evenodd" clip-rule="evenodd" d="M797.432 456.416C805.391 462.927 798.831 489.94 805.115 492.734C809.305 492.034 809.305 466.89 812.099 435.465C813.945 414.692 807.713 397.469 800.926 390.068C793.243 381.686 786.025 382.884 768.102 367.718C740.863 344.672 684.989 349.561 666.832 377.496C636.802 374.006 606.073 398.447 620.04 455.021C626.466 481.04 626.831 493.586 629.818 492.734C634.707 491.335 627.024 464.795 637.502 456.416C650.613 445.927 643.265 423.741 651.469 413.814C651.469 413.814 713.627 376.797 782.069 413.814C789.053 424.288 782.069 443.844 797.432 456.416Z" fill="#4A3D39"/>
<path d="M672.489 440.44C680.078 436.935 689.192 435.528 699.616 437.39C701.639 437.752 702.986 439.685 702.625 441.708C702.263 443.73 700.33 445.077 698.307 444.716C689.453 443.134 681.87 444.304 675.61 447.196C674.129 447.88 672.854 448.606 671.79 449.323L671.266 449.687C671.116 449.795 670.992 449.887 670.894 449.963L670.679 450.138C669.132 451.491 666.781 451.334 665.428 449.787C664.075 448.241 664.232 445.89 665.779 444.537C667.038 443.436 669.288 441.919 672.489 440.44Z" fill="#4A3D39"/>
<path d="M737.434 437.385C746.073 435.882 754.23 436.973 761.519 439.706C764.539 440.838 766.753 441.991 768.028 442.816C769.753 443.933 770.246 446.236 769.13 447.961C768.014 449.687 765.71 450.18 763.985 449.064L763.734 448.911C763.514 448.782 763.19 448.601 762.766 448.38C761.659 447.803 760.366 447.22 758.907 446.674C752.78 444.377 745.93 443.46 738.709 444.717C736.684 445.069 734.758 443.713 734.406 441.689C734.053 439.664 735.409 437.738 737.434 437.385Z" fill="#4A3D39"/>
<path d="M703.957 446.073C704.585 445.78 705.321 445.996 705.699 446.551L705.811 446.749L711.749 459.492C711.921 459.861 711.923 460.287 711.755 460.657L711.437 461.385C711.306 461.692 711.153 462.06 710.98 462.484L710.801 462.928C710.078 464.729 709.354 466.697 708.68 468.764C707.547 472.234 706.67 475.621 706.147 478.785C704.222 490.432 707.185 496.515 716.98 495.535C717.746 495.459 718.43 496.018 718.507 496.785C718.583 497.552 718.024 498.235 717.257 498.312C705.115 499.527 701.214 491.52 703.394 478.33C703.942 475.012 704.854 471.492 706.027 467.899C706.722 465.769 707.466 463.744 708.211 461.888L708.707 460.679L708.952 460.099L703.281 447.927C702.988 447.299 703.204 446.563 703.759 446.185L703.957 446.073Z" fill="#7C5B4D"/>
<path fill-rule="evenodd" clip-rule="evenodd" d="M689.932 464.982C689.932 470.009 686.781 474.087 682.896 474.087C679.008 474.087 675.864 470.009 675.864 464.982C675.864 459.952 679.008 455.877 682.896 455.877C686.781 455.877 689.932 459.952 689.932 464.982Z" fill="#4A3D39"/>
<path fill-rule="evenodd" clip-rule="evenodd" d="M758.376 464.982C758.376 470.009 755.225 474.087 751.34 474.087C747.452 474.087 744.305 470.009 744.305 464.982C744.305 459.952 747.452 455.877 751.34 455.877C755.225 455.877 758.376 459.952 758.376 464.982Z" fill="#4A3D39"/>
<path fill-rule="evenodd" clip-rule="evenodd" d="M749.246 513.685C749.246 513.685 748.468 496.506 715.722 496.923C698.469 497.143 685.693 503.207 684.294 515.08C682.511 530.216 717.118 512.289 717.118 512.289C717.118 512.289 754.131 529.051 749.246 513.685Z" fill="#4A3D39"/>
<path d="M709.648 523.481L710.474 523.594C710.93 523.651 711.499 523.716 712.159 523.781C714.8 524.041 717.493 524.155 719.99 524.042C721.674 523.966 723.191 523.787 724.497 523.498C725.249 523.331 725.994 523.805 726.161 524.557C726.328 525.309 725.854 526.055 725.102 526.222C723.623 526.55 721.95 526.747 720.116 526.83C717.469 526.949 714.649 526.83 711.887 526.558L710.558 526.414L709.225 526.239C708.463 526.122 707.94 525.409 708.057 524.648C708.163 523.962 708.75 523.47 709.422 523.464L709.648 523.481Z" fill="#7C5B4D"/>
<path d="M669.855 562.507C670.277 561.862 671.142 561.681 671.787 562.103L672.351 562.447C672.753 562.681 673.3 562.983 673.989 563.337C675.848 564.29 678.032 565.247 680.525 566.141C690.793 569.825 702.779 571.334 716.157 569.442L717.596 569.226L718.025 569.225C733.247 571.546 745.748 570.198 755.578 566.552C757.804 565.726 759.702 564.845 761.273 563.967L761.986 563.557C762.515 563.242 762.877 563 763.075 562.852C763.693 562.391 764.567 562.517 765.028 563.135C765.489 563.752 765.363 564.626 764.746 565.088L764.344 565.37C763.943 565.639 763.373 565.991 762.633 566.404C760.939 567.35 758.911 568.292 756.548 569.168C746.61 572.854 734.134 574.284 719.115 572.203L717.821 572.014L716.544 572.205C703.19 574.094 691.148 572.705 680.733 569.169L679.583 568.768C676.973 567.831 674.678 566.827 672.715 565.819C672.196 565.553 671.727 565.3 671.31 565.064L670.367 564.507C670.325 564.481 670.289 564.458 670.26 564.438C669.615 564.017 669.434 563.152 669.855 562.507Z" fill="#7C5B4D"/>
<path d="M717.767 553.497C718.46 553.474 719.052 553.96 719.183 554.619L719.208 554.845L719.737 570.557C719.763 571.327 719.159 571.973 718.389 571.999C717.696 572.022 717.104 571.536 716.974 570.877L716.948 570.651L716.419 554.939C716.394 554.168 716.997 553.523 717.767 553.497Z" fill="#7C5B4D"/>
<path d="M611.561 475.282C613.437 471.7 615.372 469.701 617.798 470.432C620.574 471.268 622.322 476 623.519 485.576C623.555 485.864 623.501 486.156 623.363 486.411C621.008 490.785 621.255 493.605 622.931 495.429C623.398 495.937 623.854 496.238 624.1 496.347C624.805 496.66 625.122 497.485 624.809 498.189C624.496 498.893 623.671 499.21 622.967 498.897C622.398 498.644 621.632 498.139 620.876 497.317C618.46 494.686 618.035 490.777 620.597 485.681L620.694 485.493L620.644 485.097C619.637 477.529 618.26 473.723 617.115 473.152L616.993 473.104C616.487 472.951 615.278 474.2 614.033 476.577C613.572 477.457 613.142 478.409 612.757 479.361L612.418 480.233C612.36 480.389 612.314 480.517 612.281 480.614C612.031 481.343 611.237 481.731 610.508 481.48C609.779 481.23 609.392 480.436 609.642 479.708L609.904 478.991C609.981 478.79 610.07 478.564 610.17 478.316C610.586 477.285 611.053 476.252 611.561 475.282Z" fill="#7C5B4D"/>
<path d="M815.036 470.433C817.465 469.697 819.402 471.697 821.28 475.282C821.788 476.253 822.255 477.285 822.671 478.316L823.043 479.273C823.107 479.447 823.159 479.593 823.199 479.708C823.449 480.437 823.061 481.23 822.333 481.481C821.604 481.731 820.81 481.343 820.56 480.615L820.327 479.979C820.257 479.797 820.175 479.589 820.083 479.361C819.699 478.409 819.269 477.458 818.808 476.577C817.562 474.199 816.353 472.95 815.846 473.104C814.757 473.434 813.434 476.755 812.415 483.534L812.139 485.491L812.24 485.681C814.706 490.581 814.409 494.384 812.234 497.008L811.964 497.318C811.209 498.14 810.442 498.645 809.874 498.898C809.169 499.21 808.345 498.893 808.032 498.189C807.719 497.485 808.036 496.66 808.74 496.347C808.986 496.238 809.442 495.938 809.909 495.43C811.585 493.606 811.832 490.786 809.474 486.412C809.336 486.156 809.282 485.864 809.318 485.576L809.549 483.838C810.738 475.43 812.436 471.222 815.036 470.433Z" fill="#7C5B4D"/>
<path fill-rule="evenodd" clip-rule="evenodd" d="M333.461 681.705L304.548 583.799C304.548 583.799 256.089 504.12 238.133 508.815C221.427 515.297 258.671 538.332 265.819 560.782C250.017 559.599 256.908 581.15 256.908 581.15C256.908 581.15 244.321 580.606 247.468 598.146C235.692 604.348 244.786 624.529 244.786 624.529C244.786 624.529 267.553 677.676 293.092 713.22C293.092 713.22 335.854 744.079 333.461 681.705Z" fill="#B0927B"/>
<path fill-rule="evenodd" clip-rule="evenodd" d="M327.19 648.658C327.19 648.658 323.134 615.138 319.994 598.049C316.854 580.964 325.162 550.238 311.433 558.271C302.198 563.67 303.545 582.006 303.686 595.519C303.831 609.036 279.498 640.83 297.004 663.169C308.824 678.264 327.774 680.414 327.19 648.658Z" fill="#B0927B"/>
<path d="M264.825 559.803C264.285 560.352 264.292 561.236 264.842 561.776L265.707 562.648L266.808 563.789C267.193 564.193 267.596 564.621 268.014 565.07C270.403 567.64 272.791 570.386 275.018 573.195C277.224 575.977 279.149 578.67 280.713 581.214L281.442 582.432C286.196 590.611 286.325 595.872 281.038 597.825C280.315 598.092 279.945 598.894 280.212 599.617C280.479 600.34 281.282 600.71 282.005 600.443C289.896 597.528 289.346 589.926 283.091 579.752C281.463 577.105 279.475 574.324 277.205 571.461C274.929 568.59 272.493 565.79 270.058 563.17L268.827 561.862C268.63 561.656 268.438 561.456 268.25 561.261L266.798 559.786C266.248 559.245 265.365 559.253 264.825 559.803Z" fill="#7C5B4D"/>
<path d="M257.259 580.996C256.81 581.623 256.954 582.494 257.581 582.943L258.497 583.617L259.664 584.501C260.073 584.814 260.5 585.146 260.943 585.495C263.474 587.487 266.005 589.622 268.363 591.811C270.852 594.121 272.999 596.356 274.701 598.458C279.417 604.282 280.148 608.15 276.544 610.119C275.097 610.909 273.478 611.102 271.668 610.748C268.909 610.209 265.846 608.434 262.727 605.804C261.359 604.651 260.075 603.413 258.913 602.174L258.368 601.583C257.955 601.129 257.65 600.773 257.466 600.547C256.98 599.95 256.101 599.86 255.503 600.346C254.906 600.833 254.816 601.712 255.302 602.309L255.727 602.81C256.061 603.195 256.446 603.624 256.878 604.084C258.11 605.396 259.471 606.709 260.928 607.937C264.378 610.846 267.816 612.839 271.133 613.487C273.552 613.96 275.831 613.689 277.882 612.568C283.614 609.435 282.529 603.691 276.87 596.702C275.075 594.486 272.84 592.159 270.262 589.766C267.843 587.52 265.256 585.338 262.669 583.302L261.361 582.286L259.206 580.675C258.58 580.226 257.708 580.37 257.259 580.996Z" fill="#7C5B4D"/>
<path d="M251.874 598.083C251.113 597.966 250.401 598.49 250.285 599.251C250.168 600.013 250.692 600.725 251.453 600.841C254.142 601.252 257.436 603.43 261.328 607.712C269.476 616.675 271.124 622.453 268.385 623.879C265.54 625.36 259.338 622.704 255.461 617.51C254.427 616.125 252.295 617.484 253.114 619.006C258.078 628.226 263.995 634.439 271.555 639.271C273.439 640.476 275.405 641.587 277.699 642.773L279.389 643.631L283.578 645.697C295.822 651.755 300.587 656.604 303.09 668.781C303.245 669.535 303.983 670.021 304.738 669.866C305.493 669.711 305.979 668.973 305.824 668.218C303.176 655.341 297.988 649.84 285.649 643.612L278.359 639.978C275.867 638.705 275.056 638.197 273.058 636.92C268.62 634.083 264.789 630.755 261.391 626.546L260.499 625.405L260.75 625.535C263.843 627.07 266.969 627.521 269.276 626.542L269.674 626.354C274.812 623.679 272.617 615.982 263.393 605.834C259.11 601.123 255.305 598.606 251.874 598.083Z" fill="#7C5B4D"/>
<path d="M303.652 577.241C302.962 577.169 302.337 577.612 302.16 578.26L302.119 578.483L299.466 603.844L299.24 604.188L298.717 605.015C298.535 605.31 298.344 605.625 298.146 605.958C297.021 607.854 295.896 609.966 294.845 612.242C291.819 618.798 290.002 625.373 290.013 631.57C290.021 636.263 291.095 640.554 293.384 644.32C293.785 644.979 294.643 645.188 295.301 644.788C295.96 644.388 296.169 643.53 295.769 642.871C293.76 639.566 292.81 635.773 292.803 631.565C292.794 625.835 294.508 619.631 297.379 613.411C298.387 611.228 299.467 609.2 300.546 607.382L301.205 606.297C301.532 605.772 301.791 605.379 301.963 605.129C302.052 605.001 302.119 604.859 302.16 604.709L302.204 604.48L304.894 578.774C304.974 578.007 304.418 577.321 303.652 577.241Z" fill="#7C5B4D"/>
<path fill-rule="evenodd" clip-rule="evenodd" d="M519.798 887.555C519.798 887.555 435.989 1027.93 576.799 1073.89C626.076 1089.97 675.097 1088.27 720.939 1085.55C814.403 1080.01 879.17 1057.31 891.694 1043.65C925.336 1006.97 910.048 951.056 917.679 863.243C924.637 783.178 996.42 704.418 952.456 660.227C919.346 640.243 854.222 608.721 809.697 596.209C775.704 586.654 752.39 648.045 719.005 647.402C691.297 646.862 675.528 597.388 650.134 602.467C587.277 615.039 559.606 615.18 526.518 646.468C526.518 646.468 516.223 685.297 534.461 774.415C534.461 774.415 517.104 852.111 519.798 887.555Z" fill="#E4EBF7"/>
<path fill-rule="evenodd" clip-rule="evenodd" d="M652.286 616.738C652.286 616.738 655.37 728.177 693.087 817.225C769.879 685.471 809.166 601.324 811.249 601.1L716.714 641.113L652.286 616.738Z" fill="white"/>
<path fill-rule="evenodd" clip-rule="evenodd" d="M676.762 657.607L709.976 634.538L746.514 660.085L728.226 690.728L686.075 689.646L676.762 657.607Z" fill="#253368"/>
<path fill-rule="evenodd" clip-rule="evenodd" d="M666.668 736.541L686.826 689.25L728.71 690.56L741.852 730.509L695.131 823.843L666.668 736.541Z" fill="#253368"/>
<path fill-rule="evenodd" clip-rule="evenodd" d="M656.45 668.921L713.388 635.766L659.486 594.25L650.129 603.038L656.45 668.921Z" fill="white"/>
<path fill-rule="evenodd" clip-rule="evenodd" d="M713.387 635.767L761.116 673.596L812.298 601.131L802.219 588.239L713.387 635.767Z" fill="white"/>
<path fill-rule="evenodd" clip-rule="evenodd" d="M654.313 671.577L711.326 634.653L658.942 589.342L644.346 605.65L654.313 671.577Z" fill="white"/>
<path d="M660.159 587.935L712.543 633.246C713.48 634.057 713.377 635.541 712.337 636.214L655.325 673.139C654.19 673.873 652.676 673.192 652.474 671.855L642.506 605.928C642.423 605.38 642.589 604.823 642.959 604.409L657.556 588.102C658.233 587.345 659.391 587.271 660.159 587.935ZM659.11 591.945L646.318 606.238L655.721 668.448L708.238 634.438L659.11 591.945Z" fill="#E4EBF7"/>
<path fill-rule="evenodd" clip-rule="evenodd" d="M711.326 634.654L770.608 674.752L817.541 598.548L798.904 582.545L711.326 634.654Z" fill="white"/>
<path d="M707.858 634.552L799.102 580.262L819.959 598.171L771.175 677.38L707.858 634.552ZM798.708 584.825L714.796 634.752L770.044 672.123L815.126 598.924L798.708 584.825Z" fill="#E4EBF7"/>
<path d="M694.344 831.09C693.408 830.983 692.556 831.59 692.33 832.478L692.285 832.727L683.959 905.577L683.589 906.12L683.197 906.72C682.385 907.982 681.484 909.503 680.518 911.289C677.774 916.36 675.036 922.545 672.486 929.882C659.901 966.08 656.364 1014.98 667.331 1077.71C667.508 1078.72 668.472 1079.39 669.484 1079.22C670.496 1079.04 671.173 1078.08 670.996 1077.06C660.137 1014.96 663.627 966.693 676 931.103C678.484 923.958 681.14 917.956 683.79 913.06C684.558 911.641 685.278 910.404 685.937 909.347L686.676 908.198C686.939 907.802 687.129 907.532 687.238 907.386C687.387 907.188 687.494 906.962 687.554 906.724L687.599 906.481L695.981 833.15C696.098 832.129 695.365 831.207 694.344 831.09Z" fill="#A3B5D6"/>
<path d="M518.655 688.763C517.637 688.622 516.697 689.332 516.556 690.35L516.318 692.208L516.173 693.417C515.888 695.858 515.603 698.607 515.337 701.607C514.281 713.529 513.826 725.704 514.315 737.087C514.826 748.971 516.344 759.113 519.068 767.011L519.33 767.743L517.943 889.182L517.137 890.771L516.306 892.465C515.733 893.65 515.123 894.947 514.483 896.35C511.744 902.353 509.007 909.065 506.452 916.323C498.348 939.348 493.864 962.527 494.9 984.22C496.722 1022.39 515.47 1051.4 555.056 1067.19L556.004 1067.62C556.321 1067.76 556.697 1067.92 557.133 1068.11L558.645 1068.75C559.7 1069.18 560.849 1069.65 562.089 1070.13L563.037 1070.49C569.454 1072.95 576.821 1075.41 585.029 1077.7C596.406 1080.87 608.49 1083.47 621.148 1085.3C703.35 1097.14 817.45 1084.52 889.363 1049.51C890.287 1049.06 890.672 1047.95 890.222 1047.02C889.772 1046.1 888.659 1045.72 887.735 1046.17C816.55 1080.82 703.191 1093.36 621.679 1081.61C609.185 1079.81 597.257 1077.25 586.029 1074.11C577.936 1071.86 570.679 1069.44 564.367 1067.02L562.546 1066.31C561.377 1065.85 560.3 1065.41 559.317 1065L557.221 1064.09C556.946 1063.97 556.721 1063.86 556.537 1063.78C518.27 1048.51 500.372 1020.81 498.616 984.042C497.606 962.898 502.003 940.169 509.961 917.559C512.478 910.41 515.173 903.801 517.868 897.894L518.786 895.909C519.084 895.274 519.374 894.666 519.654 894.086L520.467 892.43C520.934 891.493 521.265 890.853 521.438 890.53C521.532 890.354 521.597 890.165 521.631 889.97L521.658 889.673L523.053 767.452C523.056 767.225 523.017 767 522.939 766.788C520.132 759.17 518.551 749 518.032 736.927C517.551 725.729 518 713.708 519.044 701.936L519.273 699.457C519.428 697.847 519.588 696.324 519.748 694.899L520.011 692.662L520.241 690.862C520.383 689.844 519.672 688.904 518.655 688.763Z" fill="#A3B5D6"/>
<path d="M819.754 597.132C818.954 596.488 817.783 596.614 817.139 597.414C804.574 613.021 788.44 639.418 769.545 674.432C764.305 684.142 758.899 694.433 753.353 705.232C740.433 730.392 727.304 757.225 714.566 784.17L709.677 794.557C707.185 799.877 704.813 804.976 702.577 809.818L696.619 822.803L695.952 824.27L694.813 820.998C687.512 799.721 679.989 772.106 672.394 739.597L671.838 737.206C665.59 710.277 659.634 681.54 654.14 652.689L652.127 642C651.07 636.329 650.077 630.893 649.15 625.732L647.423 615.998L645.684 605.881C645.515 604.868 644.557 604.183 643.543 604.351C642.614 604.506 641.961 605.324 641.988 606.24L642.106 607.042L643.962 617.804L645.488 626.389C646.549 632.296 647.697 638.563 648.926 645.129L649.391 647.606C655.193 678.436 661.536 709.266 668.213 738.047L669.33 742.828C677.702 778.419 685.989 808.053 694.01 829.859C694.552 831.331 696.519 831.485 697.318 830.23L697.617 829.615L702.26 819.409L705.005 813.435C708.141 806.633 711.557 799.294 715.21 791.529C728.778 762.687 742.842 733.846 756.663 706.931C761.582 697.351 766.392 688.173 771.071 679.449L772.819 676.199C791.613 641.372 807.652 615.13 820.037 599.748C820.681 598.948 820.555 597.776 819.754 597.132Z" fill="#A3B5D6"/>
<path d="M755.105 910.708C713.371 905.9 677.514 905.422 649.128 907.492L645.531 907.774C644.013 907.902 642.605 908.033 641.307 908.164L638.592 908.459L637.311 908.618C636.293 908.757 635.581 909.695 635.72 910.713C635.86 911.731 636.798 912.444 637.816 912.304L639.556 912.093L640.747 911.963C643.191 911.704 646.08 911.445 649.399 911.203L653.035 910.955C680.604 909.197 714.953 909.827 754.679 914.404C755.7 914.521 756.623 913.789 756.74 912.769C756.858 911.748 756.126 910.825 755.105 910.708Z" fill="#A3B5D6"/>
<path d="M722.449 875.964L720.243 876.097C715.178 876.365 707.219 876.589 697.087 876.772L694.614 876.816C689.627 876.9 684.384 876.971 679.069 877.03L662.692 877.173C661.665 877.179 660.837 878.016 660.842 879.044C660.847 879.985 661.552 880.76 662.46 880.878L662.939 880.892L672.702 880.816L682.294 880.714C685.465 880.675 688.597 880.632 691.651 880.585L702.106 880.396C711.459 880.199 718.547 879.961 722.703 879.676C723.728 879.606 724.502 878.718 724.432 877.693C724.362 876.668 723.474 875.894 722.449 875.964Z" fill="#A3B5D6"/>
<path fill-rule="evenodd" clip-rule="evenodd" d="M313.622 649.239L263.59 684.612C248.931 694.974 245.225 715.148 255.252 730.045L365.712 894.225C392.204 929.683 442.422 936.954 477.88 910.462C512.687 884.462 520.334 835.594 495.55 800.266C494.62 798.945 493.563 797.706 492.451 796.534L356.671 653.473C345.367 641.563 327.032 639.759 313.622 649.239Z" fill="#E4EBF7"/>
<path d="M360.158 653.862C359.451 653.117 358.274 653.086 357.528 653.793C356.851 654.436 356.764 655.468 357.285 656.21L357.46 656.423L493.239 799.484C494.383 800.689 495.348 801.845 496.161 803.004C496.751 803.845 497.911 804.049 498.753 803.459C499.594 802.869 499.797 801.708 499.207 800.867C498.466 799.811 497.626 798.771 496.674 797.717L495.938 796.923L360.158 653.862Z" fill="#A3B5D6"/>
<path d="M895.963 774.648C895.021 774.612 894.215 775.279 894.055 776.181L894.028 776.433L890.054 873.86C890.044 874.103 890.082 874.346 890.166 874.574L890.987 876.917L891.875 879.555C892.184 880.489 892.505 881.477 892.837 882.517L893.173 883.573C895.437 890.738 897.701 898.683 899.815 907.19C905.094 928.436 908.546 949.527 909.31 969.196C910.58 1001.87 904.3 1027.56 888.823 1043.66C888.111 1044.4 888.134 1045.58 888.875 1046.29C889.616 1047 890.793 1046.98 891.505 1046.24C907.825 1029.26 914.334 1002.64 913.028 969.052C912.253 949.098 908.761 927.766 903.426 906.293C901.487 898.487 899.421 891.15 897.344 884.445L896.72 882.452C896.263 881.004 895.824 879.647 895.407 878.385L893.991 874.223L893.787 873.644L897.746 776.585C897.784 775.644 897.116 774.837 896.214 774.677L895.963 774.648Z" fill="#A3B5D6"/>
<path fill-rule="evenodd" clip-rule="evenodd" d="M373.717 901.649C405.041 933.375 456.238 933.435 487.637 901.783L626.017 762.275C656.955 731.084 657.015 680.803 626.148 649.538C594.823 617.811 543.626 617.752 512.227 649.407L373.847 788.911C342.909 820.102 342.85 870.387 373.717 901.649Z" fill="#E4EBF7"/>
<path fill-rule="evenodd" clip-rule="evenodd" d="M973.14 958.269C1010.81 948.195 1032.28 908.446 1021.08 869.488L971.642 697.469C960.448 658.513 920.832 635.101 883.159 645.18C845.486 655.255 824.022 695.003 835.216 733.959L884.655 905.978C895.849 944.933 935.465 968.346 973.14 958.269Z" fill="#E4EBF7"/>
<path d="M907.827 659.201C907.807 658.267 908.517 657.545 909.411 657.588C910.525 657.642 912.5 657.93 915.185 658.631C919.608 659.785 924.436 661.708 929.512 664.577C955.906 679.49 977.971 712.348 990.441 769.061C990.644 769.984 990.103 770.854 989.232 771.004C988.361 771.154 987.49 770.528 987.287 769.605C975.031 713.861 953.574 681.911 928.125 667.531C923.312 664.812 918.755 662.997 914.603 661.913C913.401 661.599 912.309 661.367 911.336 661.205L910.767 661.116C910.118 661.021 909.683 660.98 909.48 660.97C908.586 660.927 907.846 660.135 907.827 659.201Z" fill="#96A7CA"/>
<path fill-rule="evenodd" clip-rule="evenodd" d="M1223.4 740.87C1223.4 740.87 1178.61 781.55 1152.03 769.738C1127.96 759.042 1136.12 726.232 1136.12 726.232C1136.12 726.232 1145.39 701.427 1162.56 677.741C1173.81 662.217 1190.78 629.301 1200.3 633.325C1212.71 638.574 1189.88 669.146 1194.86 677.777C1204.95 695.261 1245.95 651.2 1256.47 647.835C1277.03 641.26 1277.51 692.504 1223.4 740.87Z" fill="#B69882"/>
<path d="M1261.77 656.252C1262.14 655.672 1262.91 655.542 1263.49 655.96C1264.07 656.379 1264.24 657.188 1263.87 657.768C1261.68 661.201 1259.19 664.535 1256.44 667.768C1249.91 675.438 1242.17 682.244 1233.88 688.139C1230.88 690.272 1227.99 692.156 1225.27 693.787L1224.13 694.465C1223.23 694.996 1222.43 695.445 1221.76 695.809L1220.86 696.289C1220.26 696.598 1219.5 696.324 1219.17 695.679C1218.87 695.098 1219.02 694.414 1219.49 694.058L1219.67 693.946L1220.92 693.276C1221.61 692.889 1222.43 692.42 1223.36 691.868L1223.93 691.527C1226.6 689.926 1229.44 688.073 1232.39 685.976C1240.54 680.183 1248.13 673.501 1254.53 665.992C1257.21 662.838 1259.64 659.591 1261.77 656.252Z" fill="#7C5B4D"/>
<path d="M1266.2 670.92C1266.56 670.342 1267.32 670.163 1267.9 670.52C1268.48 670.877 1268.66 671.636 1268.3 672.214L1267.86 672.893L1267.51 673.411C1266.86 674.36 1266.07 675.45 1265.14 676.667C1262.48 680.133 1259.21 683.927 1255.3 687.93C1247.21 696.221 1237.44 704.298 1225.92 711.74C1225.35 712.108 1224.59 711.944 1224.22 711.373C1223.85 710.801 1224.01 710.04 1224.58 709.671C1235.95 702.332 1245.57 694.372 1253.54 686.209C1257.38 682.278 1260.59 678.558 1263.18 675.169L1264.04 674.03C1264.45 673.482 1264.82 672.966 1265.15 672.486L1265.94 671.335C1266.06 671.151 1266.15 671.013 1266.2 670.92Z" fill="#7C5B4D"/>
<path d="M1256.44 698.789C1256.91 698.281 1257.7 698.247 1258.21 698.713C1258.71 699.178 1258.74 699.967 1258.28 700.475C1249.74 709.729 1241.7 717.097 1234.39 722.766C1232.11 724.535 1230.05 726.024 1228.22 727.251L1227.55 727.698C1227.02 728.043 1226.55 728.347 1226.12 728.61L1225.31 729.1C1225.2 729.164 1225.12 729.213 1225.06 729.246C1224.45 729.581 1223.69 729.365 1223.36 728.764C1223.02 728.162 1223.24 727.402 1223.85 727.067L1224.43 726.727L1225.24 726.225C1225.53 726.04 1225.84 725.838 1226.18 725.616L1227.51 724.721C1229.12 723.618 1230.91 722.315 1232.86 720.799C1240.06 715.214 1247.99 707.941 1256.44 698.789Z" fill="#7C5B4D"/>
<path fill-rule="evenodd" clip-rule="evenodd" d="M1191.22 766.819L1149.55 710.241C1138.69 695.496 1118.01 691.966 1102.63 702.236L919.097 824.822C883.624 850.805 875.811 900.298 901.643 935.372C927.479 970.443 977.177 977.812 1012.65 951.827L1184.85 813.86C1199.28 802.303 1202.09 781.568 1191.22 766.819Z" fill="#E4EBF7"/>
<path d="M1108.41 703.658C1122.82 694.002 1142.27 697.504 1152.86 711.562L1153.29 712.145L1191.46 765.053C1201.81 779.399 1199.47 799.227 1186.26 810.374L1185.72 810.827L1024.53 941.733C1023.82 942.31 1022.77 942.176 1022.18 941.433C1021.64 940.752 1021.68 939.797 1022.24 939.198L1022.4 939.044L1183.59 808.135C1195.74 798.329 1198.13 780.59 1189.2 767.595L1188.79 767.016L1150.63 714.109C1141.36 701.259 1123.96 697.814 1110.89 706.135L1110.31 706.515L976.528 797.591C975.772 798.106 974.732 797.885 974.205 797.098C973.721 796.376 973.836 795.429 974.441 794.88L974.617 794.741L1108.41 703.658Z" fill="#96A7CA"/>
</g>
<path fill-rule="evenodd" clip-rule="evenodd" d="M220.876 1001.08C222.045 1002.26 222.041 1004.16 220.867 1005.33L170.252 1055.71L218.081 1103.33C219.255 1104.49 219.259 1106.39 218.09 1107.57C216.922 1108.74 215.022 1108.75 213.848 1107.58L163.883 1057.84C163.318 1057.28 163 1056.51 163 1055.71C163 1054.91 163.318 1054.15 163.883 1053.59L216.633 1001.08C217.808 999.906 219.707 999.911 220.876 1001.08Z" fill="#597EF7"/>
<path fill-rule="evenodd" clip-rule="evenodd" d="M331.124 1001.08C332.293 999.911 334.192 999.906 335.367 1001.08L388.117 1053.59C388.682 1054.15 389 1054.91 389 1055.71C389 1056.51 388.682 1057.28 388.117 1057.84L338.152 1107.58C336.978 1108.75 335.078 1108.74 333.91 1107.57C332.741 1106.39 332.745 1104.49 333.919 1103.33L381.748 1055.71L331.133 1005.33C329.959 1004.16 329.955 1002.26 331.124 1001.08Z" fill="#597EF7"/>
<path fill-rule="evenodd" clip-rule="evenodd" d="M306.28 984.641C309.765 986.315 311.234 990.497 309.56 993.982L248.81 1120.48C247.136 1123.97 242.955 1125.44 239.47 1123.76C235.985 1122.09 234.516 1117.91 236.19 1114.42L296.94 987.921C298.614 984.436 302.795 982.968 306.28 984.641Z" fill="#597EF7"/>
<path fill-rule="evenodd" clip-rule="evenodd" d="M1104.97 415.68L1071.99 519.272H1091.93L1124.91 415.68H1104.97Z" fill="#597EF7"/>
<path fill-rule="evenodd" clip-rule="evenodd" d="M1057.95 427.457H1036.78H1023.44C1022.4 427.457 1021.55 428.301 1021.55 429.342V442.683V492.269V505.611C1021.55 506.652 1022.4 507.495 1023.44 507.495H1036.78H1057.95C1058.99 507.495 1059.83 506.652 1059.83 505.611V494.154C1059.83 493.113 1058.99 492.269 1057.95 492.269H1036.78V442.683H1057.95C1058.99 442.683 1059.83 441.84 1059.83 440.799V429.342C1059.83 428.301 1058.99 427.457 1057.95 427.457Z" fill="#CCD7EE"/>
<path fill-rule="evenodd" clip-rule="evenodd" d="M1173.46 427.457H1160.12H1138.95C1137.91 427.457 1137.07 428.301 1137.07 429.342V440.799C1137.07 441.84 1137.91 442.683 1138.95 442.683H1160.12V492.269H1138.95C1137.91 492.269 1137.07 493.113 1137.07 494.154V505.611C1137.07 506.652 1137.91 507.495 1138.95 507.495H1160.12H1173.46C1174.5 507.495 1175.34 506.652 1175.34 505.611V494.154V440.799V429.342C1175.34 428.301 1174.5 427.457 1173.46 427.457Z" fill="#CCD7EE"/>
<defs>
<clipPath id="clip0_8949_10715">
<rect x="186" y="212" width="1109" height="1018" rx="460" fill="white"/>
</clipPath>
</defs>
</svg>
