<svg width="735" height="733" viewBox="0 0 735 733" fill="none" xmlns="http://www.w3.org/2000/svg">
<rect x="447.158" y="0.38623" width="141.881" height="140.28" transform="rotate(45 447.158 0.38623)" fill="white"/>
<rect x="571.302" y="273.344" width="140.814" height="140.814" transform="rotate(-10 571.302 273.344)" fill="white"/>
<rect x="515.159" y="451.3" width="141.347" height="140.814" transform="rotate(-10 515.159 451.3)" fill="white"/>
<rect x="483.618" y="574.497" width="100" height="100" transform="rotate(45 483.618 574.497)" fill="white"/>
<rect x="599.088" y="95.9673" width="100" height="100" transform="rotate(45 599.088 95.9673)" fill="white"/>
<rect x="145.271" y="492.151" width="100" height="100" transform="rotate(45 145.271 492.151)" fill="white"/>
<rect x="269.806" y="9.86743" width="99.7431" height="99.7431" transform="rotate(45 269.806 9.86743)" fill="white"/>
<path d="M67.166 165.737L206.366 141.192L230.818 279.866L91.6181 304.411L67.166 165.737Z" fill="white"/>
<path d="M235 204.545L385.285 178.045L416.926 357.488L266.641 383.987L235 204.545Z" fill="white"/>
<path d="M170.77 369.895L363.425 335.925L390.107 487.249L197.452 521.219L170.77 369.895Z" fill="white"/>
<path d="M364.317 245.542L543.2 214L569.536 363.361L390.654 394.903L364.317 245.542Z" fill="white"/>
<path d="M318 369.692L476.001 341.832L509.652 532.674L351.651 560.534L318 369.692Z" fill="white"/>
<rect x="0.355957" y="347.398" width="140.814" height="140.814" transform="rotate(-10 0.355957 347.398)" fill="white"/>
<rect x="299.132" y="532.775" width="141.347" height="141.347" transform="rotate(45 299.132 532.775)" fill="white"/>
<rect x="329" y="324" width="88" height="88" fill="black"/>
</svg>
